<?xml version="1.0" encoding="utf-8"?>
<!-- Generator: Adobe Illustrator 22.1.0, SVG Export Plug-In . SVG Version: 6.00 Build 0)  -->
<svg version="1.1" xmlns="http://www.w3.org/2000/svg" xmlns:xlink="http://www.w3.org/1999/xlink" x="0px" y="0px"
	 viewBox="0 0 301.3 279.5" style="enable-background:new 0 0 301.3 279.5;" xml:space="preserve">
<style type="text/css">
	.st0{fill:#FFFFFF;}
	.st1{fill:#000091;}
	.st2{fill:#E1000F;}
	.st3{fill:#9C9B9B;}
</style>
<g id="Fond">
	<rect x="0" class="st0" width="301.3" height="279.5"/>
</g>
<g id="Calque_1">
	<path id="Devise_Républicaine_1_" d="M100.5,243.8c0.6,0,1.1,0.4,0.8,1.5l-2.7,0.6C99.1,244.7,99.9,243.8,100.5,243.8 M102,248.1
		h-0.5c-0.7,0.8-1.4,1.4-2.1,1.4c-0.7,0-1.1-0.4-1.1-1.4c0-0.4,0-0.8,0.1-1.2l4.3-1.4c0.8-2-0.2-2.9-1.4-2.9c-2,0-4.4,3.4-4.4,6.4
		c0,1.3,0.6,2.1,1.6,2.1C99.8,251.2,101,250,102,248.1 M101.2,241.9l3-2.8v-0.3h-1.6l-1.9,3.2H101.2z M91.8,243.9h1.4l-2.3,6.2
		c-0.2,0.5,0.1,1.1,0.6,1.1c1.3,0,3.4-1.3,4.1-3h-0.4c-0.6,0.6-1.7,1.4-2.6,1.6l2.1-5.8h2.1l0.3-0.9h-2.1l0.8-2.2h-0.8l-1.5,2.2
		l-1.8,0.2V243.9z M89.9,243.6c0.2-0.6-0.2-0.9-0.5-0.9c-1.2,0-2.7,1.1-3.3,2.7h0.4c0.4-0.6,1.1-1.2,1.7-1.3l-2.4,6.2
		c-0.2,0.6,0.2,0.9,0.5,0.9c1.2,0,2.6-1.1,3.2-2.7h-0.4c-0.4,0.6-1.1,1.2-1.7,1.3L89.9,243.6z M90.3,240.5c0.6,0,1-0.5,1-1
		c0-0.6-0.5-1-1-1c-0.6,0-1,0.5-1,1C89.3,240,89.8,240.5,90.3,240.5 M76.6,250c-0.3,0.7,0,1.2,0.7,1.2c0.4,0,0.6-0.1,0.8-0.6
		l1.7-4.4c0.8-0.9,2.3-1.9,3-1.9c0.5,0,0.4,0.4,0.1,0.9l-2.5,4.9c-0.2,0.5,0.1,1.1,0.6,1.1c1.2,0,2.7-1.1,3.3-2.7h-0.4
		c-0.4,0.6-1.1,1.2-1.7,1.3l2.2-4.4c0.3-0.6,0.4-1.1,0.4-1.5c0-0.7-0.4-1.2-1.2-1.2c-1.1,0-2.2,1.2-3.5,2.7v-1.2
		c0-0.8-0.3-1.6-1-1.6c-0.5,0-0.9,0.4-1.3,1v0.2c0.8,0,1.2,1.2,0.6,2.4L76.6,250z M76.6,244.6c0.3-1,0.1-1.9-0.6-1.9
		c-0.9,0-1.2,0.7-2.1,2.7v-1.2c0-0.8-0.3-1.6-1-1.6c-0.9,0-1.7,1.4-2.3,2.7H71c0.4-0.6,0.8-1,1.1-1c0.4,0,0.6,0.6,0,1.9l-1.7,3.7
		c-0.3,0.7,0,1.2,0.7,1.2c0.4,0,0.6-0.1,0.8-0.6l1.7-4.4c0.5-0.6,0.9-1.1,1.4-1.6H76.6z M67,243.8c0.6,0,1.1,0.4,0.8,1.5l-2.7,0.6
		C65.6,244.7,66.4,243.8,67,243.8 M68.5,248.1H68c-0.7,0.8-1.4,1.4-2.1,1.4c-0.7,0-1.1-0.4-1.1-1.4c0-0.4,0-0.8,0.1-1.2l4.3-1.4
		c0.8-2-0.2-2.9-1.4-2.9c-2,0-4.4,3.4-4.4,6.4c0,1.3,0.6,2.1,1.6,2.1C66.3,251.2,67.5,250,68.5,248.1 M58.3,243.9h1.4l-2.3,6.2
		c-0.2,0.5,0.1,1.1,0.6,1.1c1.3,0,3.4-1.3,4.1-3h-0.4c-0.6,0.6-1.7,1.4-2.6,1.6l2.1-5.8h2.1l0.3-0.9h-2.1l0.8-2.2h-0.8l-1.5,2.2
		l-1.8,0.2V243.9z M50.5,248.7c0-1.9,2.1-4.5,3.3-4.5c0.3,0,0.5,0,0.7,0.1l-1.2,3.3c-0.7,0.9-1.8,1.9-2.3,1.9
		C50.7,249.5,50.5,249.3,50.5,248.7 M57,242.3l-0.7,0l-0.7,0.7h-0.2c-3.6,0-6.6,4-6.6,6.9c0,0.8,0.5,1.3,1.3,1.3
		c0.9,0,1.8-1.3,2.8-2.7l0,0.5c-0.1,1.4,0.3,2.2,1.1,2.2c0.9,0,1.7-1.4,2.3-2.7h-0.4c-0.4,0.6-0.8,1-1.1,1c-0.3,0-0.6-0.6,0-1.9
		L57,242.3z M49.5,244.6c0.3-1,0.1-1.9-0.6-1.9c-0.9,0-1.2,0.7-2.1,2.7v-1.2c0-0.8-0.3-1.6-1-1.6c-0.9,0-1.7,1.4-2.3,2.7h0.4
		c0.4-0.6,0.8-1,1.1-1c0.4,0,0.6,0.6,0,1.9l-1.7,3.7c-0.3,0.7,0,1.2,0.7,1.2c0.4,0,0.6-0.1,0.8-0.6l1.7-4.4c0.5-0.6,0.9-1.1,1.4-1.6
		H49.5z M37.5,250.8l0.2-0.5c-2.1-0.4-2.3-0.4-1.5-2.6l0.8-2.3h2.3c1,0,1,0.4,0.9,1.5h0.6l1.4-3.8h-0.6c-0.5,0.9-0.9,1.5-2,1.5h-2.3
		l1.2-3.3c0.4-1,0.6-1.3,2-1.3h1c1.4,0,1.6,0.4,1.6,1.9h0.6l0.5-2.6h-8.6l-0.2,0.5c1.7,0.3,1.8,0.5,1,2.6l-1.9,5.1
		c-0.8,2.1-1.1,2.3-3,2.6l-0.1,0.5H37.5z M79.7,224.4c0.6,0,1.1,0.4,0.8,1.5l-2.7,0.6C78.3,225.3,79.1,224.4,79.7,224.4 M81.2,228.7
		h-0.5c-0.7,0.8-1.4,1.4-2.1,1.4c-0.7,0-1.1-0.4-1.1-1.4c0-0.4,0-0.8,0.1-1.2l4.3-1.4c0.8-2-0.2-2.9-1.4-2.9c-2,0-4.4,3.4-4.4,6.4
		c0,1.3,0.6,2.1,1.6,2.1C78.9,231.7,80.2,230.5,81.2,228.7 M80.3,222.4l3-2.8v-0.3h-1.6l-1.9,3.2H80.3z M71,224.4h1.4l-2.3,6.2
		c-0.2,0.5,0.1,1.1,0.6,1.1c1.3,0,3.4-1.3,4.1-3h-0.4c-0.6,0.6-1.7,1.4-2.6,1.6l2.1-5.8h2.1l0.3-0.9h-2.1l0.8-2.2h-0.8l-1.5,2.2
		l-1.8,0.2V224.4z M69.1,224.1c0.2-0.6-0.2-0.9-0.5-0.9c-1.2,0-2.7,1.1-3.3,2.7h0.4c0.4-0.6,1.1-1.2,1.7-1.3l-2.4,6.2
		c-0.2,0.6,0.2,0.9,0.5,0.9c1.2,0,2.6-1.1,3.2-2.7h-0.4c-0.4,0.6-1.1,1.2-1.7,1.3L69.1,224.1z M69.5,221c0.6,0,1-0.5,1-1
		c0-0.6-0.5-1-1-1c-0.6,0-1,0.5-1,1C68.5,220.5,68.9,221,69.5,221 M61.2,230.3l4.3-11.4l-0.1-0.2l-2.7,0.3v0.3l0.5,0.4
		c0.5,0.4,0.3,0.7-0.1,1.9l-3.4,8.9c-0.2,0.5,0.1,1.1,0.6,1.1c1.2,0,2.6-1.1,3.2-2.7h-0.4C62.7,229.6,61.8,230.2,61.2,230.3
		 M52.9,229.2c0-1.9,2.1-4.5,3.3-4.5c0.3,0,0.5,0,0.7,0.1l-1.2,3.3c-0.7,0.9-1.8,1.9-2.3,1.9C53.1,230.1,52.9,229.8,52.9,229.2
		 M59.5,222.8l-0.7,0l-0.7,0.7H58c-3.6,0-6.6,4-6.6,6.9c0,0.8,0.5,1.3,1.3,1.3c0.9,0,1.8-1.3,2.8-2.7l0,0.5
		c-0.1,1.4,0.3,2.2,1.1,2.2c0.9,0,1.7-1.4,2.3-2.7h-0.4c-0.4,0.6-0.8,1-1.1,1c-0.3,0-0.6-0.6,0-1.9L59.5,222.8z M43.6,233.2
		c0-0.8,0.8-1.3,1.9-1.8c0.4,0.2,0.9,0.4,1.7,0.6c1.2,0.4,1.6,0.5,1.6,0.9c0,0.8-1.3,1.3-3.1,1.3C44.4,234.3,43.6,234,43.6,233.2
		 M46.9,228.2c-0.5,0-0.7-0.4-0.7-0.9c0-1.4,0.7-3.4,1.9-3.4c0.5,0,0.7,0.4,0.7,0.9C48.8,226.1,48,228.2,46.9,228.2 M50.2,232.4
		c0-1-0.9-1.4-2.3-1.8c-1.2-0.4-1.8-0.5-1.8-0.9c0-0.3,0.3-0.7,0.8-1c2-0.1,3.4-1.9,3.4-3.5c0-0.3-0.1-0.6-0.2-0.9h1.7l0.3-0.9h-2.7
		c-0.3-0.2-0.7-0.3-1.1-0.3c-2.2,0-3.6,1.9-3.6,3.4c0,1.2,0.7,1.9,1.7,2.1c-1,0.5-1.6,1-1.6,1.6c0,0.4,0.1,0.6,0.4,0.8
		c-2.3,0.7-3.3,1.5-3.3,2.6c0,1.1,1.4,1.5,3.1,1.5C47.9,235.3,50.2,233.7,50.2,232.4 M39.4,225.8c1,0,1,0.4,0.9,1.5h0.6l1.4-3.8
		h-0.6c-0.5,0.9-0.9,1.5-2,1.5h-2.3l1.1-3.1c0.4-1,0.6-1.2,2-1.2h1c1.4,0,1.6,0.4,1.6,1.8h0.6l0.5-2.6h-8.6l-0.2,0.5
		c1.7,0.3,1.8,0.5,1,2.6l-1.9,5.1c-0.8,2.1-1.1,2.3-3,2.6l-0.1,0.5h9.6l1.7-2.7H42c-1.1,1-2.5,2-4.4,2c-2.5,0-2.3-0.1-1.5-2.4
		l0.9-2.5H39.4z M40.6,219.2l3-2.1v-0.3h-1.8l-1.7,2.4H40.6z M78.7,204.9c0.6,0,1.1,0.4,0.8,1.5l-2.7,0.6
		C77.3,205.8,78,204.9,78.7,204.9 M80.1,209.2h-0.5c-0.7,0.8-1.4,1.4-2.1,1.4c-0.7,0-1.1-0.4-1.1-1.4c0-0.4,0-0.8,0.1-1.2l4.3-1.4
		c0.8-2-0.2-2.9-1.4-2.9c-2,0-4.4,3.4-4.4,6.4c0,1.3,0.6,2.1,1.6,2.1C77.9,212.2,79.1,211.1,80.1,209.2 M79.3,202.9l3-2.8v-0.3h-1.6
		l-1.9,3.2H79.3z M70.4,204.9h1.1l-2.3,6.2c-0.2,0.5,0.1,1.1,0.6,1.1c1.3,0,3.4-1.3,4.1-3h-0.4c-0.6,0.6-1.7,1.4-2.6,1.6l2.1-5.8
		h2.1l0.3-0.9h-2.1l0.8-2.2h-0.8l-1.5,2.2l-1.5,0.2V204.9z M69.2,205.6c0.3-1,0.1-1.9-0.6-1.9c-0.9,0-1.2,0.7-2.1,2.7v-1.2
		c0-0.8-0.3-1.6-1-1.6c-0.9,0-1.7,1.4-2.3,2.7h0.4c0.4-0.6,0.8-1,1.1-1c0.4,0,0.6,0.6,0,1.9l-1.7,3.7c-0.3,0.7,0,1.2,0.7,1.2
		c0.4,0,0.6-0.1,0.8-0.6l1.7-4.4c0.5-0.6,0.9-1.1,1.4-1.6H69.2z M59.7,204.9c0.6,0,1.1,0.4,0.8,1.5l-2.7,0.6
		C58.3,205.8,59,204.9,59.7,204.9 M61.2,209.2h-0.5c-0.7,0.8-1.4,1.4-2.1,1.4c-0.7,0-1.1-0.4-1.1-1.4c0-0.4,0-0.8,0.1-1.2l4.3-1.4
		c0.8-2-0.2-2.9-1.4-2.9c-2,0-4.4,3.4-4.4,6.4c0,1.3,0.6,2.1,1.6,2.1C58.9,212.2,60.2,211.1,61.2,209.2 M50.6,210.9
		c-0.4,0-1-0.4-1-0.7c0-0.1,0.2-0.6,0.4-1.2l0.7-1.9c0.7-0.9,1.9-1.8,2.5-1.8c0.4,0,0.7,0.2,0.7,0.8
		C53.9,207.8,52.3,210.9,50.6,210.9 M55.5,205.5c0-1.3-0.5-1.7-1.3-1.7c-1.1,0-2.1,1.2-3.1,2.6l2.6-6.8l-0.1-0.2l-2.7,0.3v0.3
		l0.5,0.4c0.5,0.4,0.3,0.8-0.1,1.9l-2.8,7.2c-0.2,0.5-0.5,1.2-0.5,1.3c0,0.7,1,1.4,1.9,1.4C51.9,212.2,55.5,208.4,55.5,205.5
		 M47,204.6c0.2-0.6-0.2-0.9-0.5-0.9c-1.2,0-2.7,1.1-3.3,2.7h0.4c0.4-0.6,1.1-1.2,1.7-1.3l-2.4,6.2c-0.2,0.6,0.2,0.9,0.5,0.9
		c1.2,0,2.6-1.1,3.2-2.7h-0.4c-0.4,0.6-1.1,1.2-1.7,1.3L47,204.6z M47.4,201.5c0.6,0,1-0.5,1-1c0-0.6-0.5-1-1-1c-0.6,0-1,0.5-1,1
		C46.4,201.1,46.9,201.5,47.4,201.5 M41.2,200.5h-5.7l-0.2,0.5c1.7,0.3,1.8,0.5,1,2.6l-1.8,5.1c-0.8,2.1-1.1,2.3-3,2.6l-0.1,0.5H40
		l1.9-3.3h-0.7c-1.1,1.2-2.3,2.6-4.2,2.6c-1.4,0-1.6-0.2-0.8-2.4l1.8-5.1c0.8-2.1,1.1-2.3,3-2.6L41.2,200.5z"/>
	<g>
		<path d="M31.4,91.5V70.9h5.3l5,8.5l5-8.5h5.3v20.6h-4.2V76.8l-4.6,7.6h-2.9l-4.6-7.6v14.7H31.4z"/>
		<path d="M57.7,91.5V70.9h4.2v20.6H57.7z"/>
		<path d="M67.6,91.5V70.9H73l9.2,14.8V70.9h4.2v20.6h-5.4l-9.2-14.8v14.8H67.6z"/>
		<path d="M92.2,91.5V70.9h4.2v20.6H92.2z"/>
		<path d="M100.3,88.7l3-2.8c0.6,0.8,1.3,1.4,2.1,1.9c0.8,0.5,1.6,0.7,2.5,0.7c0.8,0,1.5-0.2,1.9-0.6c0.5-0.4,0.7-1,0.7-1.8
			c0-0.9-0.5-1.6-1.5-2.1c-1-0.5-2.1-1-3.2-1.6s-2.3-1.3-3.2-2.2c-1-0.9-1.5-2.2-1.5-3.9c0-0.8,0.2-1.6,0.5-2.3
			c0.3-0.7,0.8-1.4,1.4-1.9c0.6-0.5,1.3-1,2.1-1.3c0.8-0.3,1.7-0.5,2.7-0.5c1.5,0,2.9,0.3,4.1,1c1.2,0.6,2.2,1.5,3.1,2.5l-3.1,2.7
			c-0.6-0.8-1.3-1.4-1.9-1.9c-0.7-0.5-1.4-0.7-2.2-0.7c-0.7,0-1.3,0.2-1.7,0.6s-0.6,0.9-0.6,1.5c0,0.9,0.5,1.6,1.5,2.1
			c1,0.5,2.1,1,3.2,1.6s2.3,1.3,3.2,2.2c1,0.9,1.5,2.2,1.5,4c0,1-0.2,1.8-0.6,2.6c-0.4,0.8-0.9,1.4-1.5,1.9
			c-0.6,0.5-1.3,0.9-2.2,1.2s-1.7,0.4-2.7,0.4c-1.7,0-3.2-0.3-4.5-0.9C102.3,90.6,101.2,89.7,100.3,88.7z"/>
		<path d="M117,74.7v-3.8h16.9v3.8h-6.4v16.8h-4.2V74.7H117z"/>
		<path d="M137.6,91.5V70.9h12v3.6h-7.8v4.8h6.7v3.6h-6.7v5.2h7.8v3.6H137.6z M141.7,69.1l-3.8-4h4.3l3.3,4H141.7z"/>
		<path d="M154.5,91.5V70.9h6.3c2.3,0,4.1,0.6,5.4,1.7c1.3,1.1,2,2.6,2,4.5c0,1.2-0.3,2.3-0.9,3.2s-1.4,1.6-2.4,2.1l6.5,9.1h-5
			l-5.5-8.3h-2.2v8.3H154.5z M161,74.4h-2.4v5.2h2.4c0.9,0,1.6-0.2,2.1-0.7c0.5-0.5,0.7-1.1,0.7-1.9c0-0.8-0.2-1.4-0.7-1.9
			C162.6,74.7,161.9,74.4,161,74.4z"/>
		<path d="M173.9,91.5V70.9h12v3.6h-7.8v4.8h6.7v3.6h-6.7v5.2h7.8v3.6H173.9z"/>
		<path d="M31.4,122.7v-20.7h8.1c1.6,0,3.1,0.3,4.5,0.8c1.4,0.6,2.5,1.3,3.5,2.2c1,0.9,1.7,2,2.2,3.3c0.5,1.2,0.8,2.6,0.8,4
			c0,1.4-0.3,2.7-0.8,4c-0.5,1.2-1.3,2.3-2.2,3.3c-1,0.9-2.1,1.7-3.5,2.2c-1.4,0.6-2.9,0.8-4.5,0.8H31.4z M39.6,105.9h-4v13h4
			c1,0,1.8-0.2,2.7-0.5c0.8-0.3,1.5-0.8,2.1-1.4c0.6-0.6,1-1.3,1.4-2.1c0.3-0.8,0.5-1.6,0.5-2.6c0-0.9-0.2-1.8-0.5-2.6
			s-0.8-1.5-1.4-2.1c-0.6-0.6-1.3-1-2.1-1.4C41.4,106,40.5,105.9,39.6,105.9z"/>
		<path d="M54.5,122.7v-20.7h12v3.6h-7.8v4.8h6.7v3.6h-6.7v5.2h7.8v3.6H54.5z"/>
		<path d="M79.1,122.7v-20.7h4.2v16.8h7.8v3.8H79.1z"/>
		<path d="M93.7,110.6h-3.5l2.7-8.5h4.2L93.7,110.6z"/>
		<path d="M100.4,122.7v-20.7h12v3.6h-7.8v4.8h6.7v3.6h-6.7v5.2h7.8v3.6H100.4z"/>
		<path d="M129.3,115v-12.9h4.2v12.6c0,2.7-0.8,4.8-2.3,6.4c-1.5,1.5-3.5,2.3-6.1,2.3s-4.6-0.8-6.1-2.3c-1.5-1.5-2.2-3.7-2.2-6.4
			v-12.6h4.2V115c0,1.4,0.4,2.5,1.1,3.2c0.7,0.8,1.8,1.2,3.1,1.2c1.3,0,2.3-0.4,3-1.2C129,117.4,129.3,116.4,129.3,115z"/>
		<path d="M138.7,122.7v-20.7h6.3c2.3,0,4.1,0.6,5.4,1.7s2,2.6,2,4.5c0,1.2-0.3,2.3-0.9,3.2c-0.6,0.9-1.4,1.6-2.4,2.1l6.5,9.1h-5
			l-5.5-8.3h-2.2v8.3H138.7z M145.3,105.6h-2.4v5.2h2.4c0.9,0,1.6-0.2,2.1-0.7c0.5-0.5,0.7-1.1,0.7-1.9c0-0.8-0.2-1.4-0.7-1.9
			C146.9,105.9,146.2,105.6,145.3,105.6z"/>
		<path d="M167.2,101.5c1.6,0,3.1,0.3,4.4,0.9c1.3,0.6,2.5,1.4,3.5,2.4c1,1,1.7,2.1,2.2,3.5c0.5,1.3,0.8,2.7,0.8,4.2
			c0,1.5-0.3,2.9-0.8,4.2c-0.5,1.3-1.3,2.5-2.2,3.5c-1,1-2.1,1.8-3.5,2.4c-1.3,0.6-2.8,0.9-4.4,0.9s-3.1-0.3-4.5-0.9
			c-1.4-0.6-2.5-1.4-3.5-2.4c-1-1-1.7-2.1-2.2-3.5c-0.5-1.3-0.8-2.7-0.8-4.2c0-1.5,0.3-2.9,0.8-4.2c0.5-1.3,1.3-2.5,2.2-3.5
			s2.1-1.8,3.5-2.4C164.1,101.8,165.6,101.5,167.2,101.5z M167.2,119.4c1,0,1.9-0.2,2.7-0.5c0.8-0.4,1.5-0.9,2.1-1.5
			c0.6-0.6,1-1.4,1.4-2.2c0.3-0.9,0.5-1.8,0.5-2.8s-0.2-1.9-0.5-2.8c-0.3-0.9-0.8-1.6-1.4-2.2c-0.6-0.6-1.3-1.1-2.1-1.5
			c-0.8-0.4-1.7-0.5-2.7-0.5s-1.9,0.2-2.7,0.5s-1.5,0.9-2.1,1.5c-0.6,0.6-1,1.4-1.4,2.2c-0.3,0.9-0.5,1.8-0.5,2.8s0.2,1.9,0.5,2.8
			c0.3,0.9,0.8,1.6,1.4,2.2c0.6,0.6,1.3,1.1,2.1,1.5S166.2,119.4,167.2,119.4z"/>
		<path d="M182.1,122.7v-20.7h6.8c2.3,0,4,0.6,5.4,1.7s2,2.6,2,4.5c0,1.9-0.7,3.4-2,4.5c-1.3,1.1-3.1,1.7-5.4,1.7h-2.6v8.3H182.1z
			 M189.1,105.6h-2.8v5.2h2.8c0.9,0,1.6-0.2,2.1-0.7c0.5-0.5,0.8-1.1,0.8-1.9c0-0.8-0.3-1.4-0.8-1.9
			C190.7,105.9,190,105.6,189.1,105.6z"/>
		<path d="M199.7,122.7v-20.7h12v3.6h-7.8v4.8h6.7v3.6h-6.7v5.2h7.8v3.6H199.7z"/>
		<path d="M31.4,153.9v-20.7h12v3.6h-7.8v4.8h6.7v3.6h-6.7v5.2h7.8v3.6H31.4z"/>
		<path d="M46.6,137.1v-3.8h16.9v3.8h-6.4v16.8H53v-16.8H46.6z"/>
		<path d="M74.9,153.9v-20.7H83c1.6,0,3.1,0.3,4.5,0.8c1.4,0.6,2.5,1.3,3.5,2.2s1.7,2,2.2,3.3c0.5,1.2,0.8,2.6,0.8,4
			c0,1.4-0.3,2.7-0.8,4c-0.5,1.2-1.3,2.3-2.2,3.3c-1,0.9-2.1,1.7-3.5,2.2c-1.4,0.6-2.9,0.8-4.5,0.8H74.9z M83.1,137.1h-4v13h4
			c1,0,1.8-0.2,2.7-0.5c0.8-0.3,1.5-0.8,2.1-1.4c0.6-0.6,1-1.3,1.4-2.1c0.3-0.8,0.5-1.6,0.5-2.6c0-0.9-0.2-1.8-0.5-2.6
			s-0.8-1.5-1.4-2.1c-0.6-0.6-1.3-1-2.1-1.4C84.9,137.2,84,137.1,83.1,137.1z"/>
		<path d="M98,153.9v-20.7h12v3.6h-7.8v4.8h6.7v3.6h-6.7v5.2h7.8v3.6H98z"/>
		<path d="M113.1,151.1l3-2.8c0.6,0.8,1.3,1.4,2.1,1.9c0.8,0.5,1.6,0.7,2.5,0.7c0.8,0,1.5-0.2,1.9-0.6c0.5-0.4,0.7-1,0.7-1.8
			c0-0.9-0.5-1.6-1.5-2.1c-1-0.5-2.1-1-3.2-1.6s-2.3-1.3-3.2-2.2s-1.5-2.2-1.5-3.9c0-0.8,0.2-1.6,0.5-2.3c0.3-0.7,0.8-1.4,1.4-1.9
			s1.3-1,2.1-1.3c0.8-0.3,1.7-0.5,2.7-0.5c1.5,0,2.9,0.3,4.1,1c1.2,0.6,2.2,1.5,3.1,2.5l-3.1,2.7c-0.6-0.8-1.3-1.4-1.9-1.9
			s-1.4-0.7-2.2-0.7c-0.7,0-1.3,0.2-1.7,0.6s-0.6,0.9-0.6,1.5c0,0.9,0.5,1.6,1.5,2.1c1,0.5,2.1,1,3.2,1.6s2.3,1.3,3.2,2.2
			s1.5,2.2,1.5,4c0,1-0.2,1.8-0.6,2.6c-0.4,0.8-0.9,1.4-1.5,1.9c-0.6,0.5-1.3,0.9-2.2,1.2s-1.7,0.4-2.7,0.4c-1.7,0-3.2-0.3-4.5-0.9
			C115,153,114,152.1,113.1,151.1z"/>
		<path d="M137,153.9l7.8-20.7h5.5l7.8,20.7h-4.5l-2-5.4h-8.3l-2,5.4H137z M144.8,145h5.7l-2.8-7.8L144.8,145z"/>
		<path d="M161.4,153.9v-20.7h12v3.6h-7.8v4.8h6.7v3.6h-6.7v8.7H161.4z"/>
		<path d="M177.1,153.9v-20.7h12v3.6h-7.8v4.8h6.7v3.6h-6.7v8.7H177.1z"/>
		<path d="M188.3,153.9l7.8-20.7h5.5l7.8,20.7H205l-2-5.4h-8.3l-2,5.4H188.3z M196,145h5.7l-2.8-7.8L196,145z"/>
		<path d="M212.6,153.9v-20.7h4.2v20.7H212.6z"/>
		<path d="M222.6,153.9v-20.7h6.3c2.3,0,4.1,0.6,5.4,1.7c1.3,1.1,2,2.6,2,4.5c0,1.2-0.3,2.3-0.9,3.2c-0.6,0.9-1.4,1.6-2.4,2.1
			l6.5,9.1h-5l-5.5-8.3h-2.2v8.3H222.6z M229.1,136.8h-2.4v5.2h2.4c0.9,0,1.6-0.2,2.1-0.7c0.5-0.5,0.7-1.1,0.7-1.9
			c0-0.8-0.2-1.4-0.7-1.9C230.7,137.1,230,136.8,229.1,136.8z"/>
		<path d="M242,153.9v-20.7h12v3.6h-7.8v4.8h6.7v3.6h-6.7v5.2h7.8v3.6H242z"/>
		<path d="M257.1,151.1l3-2.8c0.6,0.8,1.3,1.4,2.1,1.9c0.8,0.5,1.6,0.7,2.5,0.7c0.8,0,1.5-0.2,1.9-0.6c0.5-0.4,0.7-1,0.7-1.8
			c0-0.9-0.5-1.6-1.5-2.1c-1-0.5-2.1-1-3.2-1.6c-1.2-0.6-2.3-1.3-3.2-2.2c-1-0.9-1.5-2.2-1.5-3.9c0-0.8,0.2-1.6,0.5-2.3
			c0.3-0.7,0.8-1.4,1.4-1.9s1.3-1,2.1-1.3c0.8-0.3,1.7-0.5,2.7-0.5c1.5,0,2.9,0.3,4.1,1c1.2,0.6,2.2,1.5,3.1,2.5l-3.1,2.7
			c-0.6-0.8-1.3-1.4-1.9-1.9c-0.7-0.5-1.4-0.7-2.2-0.7c-0.7,0-1.3,0.2-1.7,0.6c-0.4,0.4-0.6,0.9-0.6,1.5c0,0.9,0.5,1.6,1.5,2.1
			c1,0.5,2.1,1,3.2,1.6c1.2,0.6,2.3,1.3,3.2,2.2s1.5,2.2,1.5,4c0,1-0.2,1.8-0.6,2.6c-0.4,0.8-0.9,1.4-1.5,1.9
			c-0.6,0.5-1.3,0.9-2.2,1.2s-1.7,0.4-2.7,0.4c-1.7,0-3.2-0.3-4.5-0.9S258,152.1,257.1,151.1z"/>
		<path d="M31.4,185.1v-20.7h12v3.6h-7.8v4.8h6.7v3.6h-6.7v5.2h7.8v3.6H31.4z M39.3,162.7h-3.8l3.3-4h4.3L39.3,162.7z"/>
		<path d="M46.6,168.3v-3.8h16.9v3.8h-6.4v16.8H53v-16.8H46.6z"/>
		<path d="M67.2,185.1v-20.7h6.3c2.3,0,4.1,0.6,5.4,1.7c1.3,1.1,2,2.6,2,4.5c0,1.2-0.3,2.3-0.9,3.2c-0.6,0.9-1.4,1.6-2.4,2.1
			l6.5,9.1h-5l-5.5-8.3h-2.2v8.3H67.2z M73.8,168h-2.4v5.2h2.4c0.9,0,1.6-0.2,2.1-0.7c0.5-0.5,0.7-1.1,0.7-1.9
			c0-0.8-0.2-1.4-0.7-1.9C75.3,168.3,74.7,168,73.8,168z"/>
		<path d="M85,185.1l7.8-20.7h5.5l7.8,20.7h-4.5l-2-5.4h-8.3l-2,5.4H85z M92.7,176.2h5.7l-2.8-7.8L92.7,176.2z"/>
		<path d="M109.3,185.1v-20.7h5.4l9.2,14.8v-14.8h4.2v20.7h-5.4l-9.2-14.8v14.8H109.3z"/>
		<path d="M143.3,181.8c1,0,1.9-0.2,2.7-0.5s1.5-0.8,2.1-1.3v-3.5h-5.3v-3.8h9.4v8.8c-1,1.3-2.2,2.3-3.8,3.1s-3.3,1.2-5.2,1.2
			c-1.7,0-3.2-0.3-4.6-0.9s-2.6-1.4-3.6-2.4c-1-1-1.8-2.1-2.3-3.5c-0.6-1.3-0.8-2.7-0.8-4.2c0-1.5,0.3-2.9,0.8-4.2
			c0.5-1.3,1.3-2.5,2.2-3.5s2.1-1.8,3.5-2.4c1.4-0.6,2.8-0.9,4.5-0.9c1.9,0,3.5,0.4,5,1.2c1.5,0.8,2.7,1.8,3.7,3l-3.3,2.6
			c-0.6-0.8-1.3-1.5-2.3-2.1c-0.9-0.5-2-0.8-3.1-0.8c-1,0-1.9,0.2-2.7,0.5s-1.5,0.9-2.1,1.5c-0.6,0.6-1,1.4-1.4,2.2
			c-0.3,0.9-0.5,1.8-0.5,2.8s0.2,1.9,0.5,2.8c0.3,0.9,0.8,1.6,1.4,2.2c0.6,0.6,1.4,1.1,2.2,1.5C141.4,181.6,142.3,181.8,143.3,181.8
			z"/>
		<path d="M157,185.1v-20.7h12v3.6h-7.8v4.8h6.7v3.6h-6.7v5.2h7.8v3.6H157z M161.2,162.7l-3.8-4h4.3l3.3,4H161.2z"/>
		<path d="M173.9,185.1v-20.7h6.3c2.3,0,4.1,0.6,5.4,1.7c1.3,1.1,2,2.6,2,4.5c0,1.2-0.3,2.3-0.9,3.2c-0.6,0.9-1.4,1.6-2.4,2.1
			l6.5,9.1h-5l-5.5-8.3h-2.2v8.3H173.9z M180.4,168h-2.4v5.2h2.4c0.9,0,1.6-0.2,2.1-0.7c0.5-0.5,0.7-1.1,0.7-1.9
			c0-0.8-0.2-1.4-0.7-1.9C182,168.3,181.3,168,180.4,168z"/>
		<path d="M193.3,185.1v-20.7h12v3.6h-7.8v4.8h6.7v3.6h-6.7v5.2h7.8v3.6H193.3z"/>
		<path d="M208.4,182.3l3-2.8c0.6,0.8,1.3,1.4,2.1,1.9c0.8,0.5,1.6,0.7,2.5,0.7c0.8,0,1.5-0.2,1.9-0.6c0.5-0.4,0.7-1,0.7-1.8
			c0-0.9-0.5-1.6-1.5-2.1c-1-0.5-2.1-1-3.2-1.6c-1.2-0.6-2.3-1.3-3.2-2.2c-1-0.9-1.5-2.2-1.5-3.9c0-0.8,0.2-1.6,0.5-2.3
			c0.3-0.7,0.8-1.4,1.4-1.9s1.3-1,2.1-1.3c0.8-0.3,1.7-0.5,2.7-0.5c1.5,0,2.9,0.3,4.1,1c1.2,0.6,2.2,1.5,3.1,2.5l-3.1,2.7
			c-0.6-0.8-1.3-1.4-1.9-1.9c-0.7-0.5-1.4-0.7-2.2-0.7c-0.7,0-1.3,0.2-1.7,0.6c-0.4,0.4-0.6,0.9-0.6,1.5c0,0.9,0.5,1.6,1.5,2.1
			c1,0.5,2.1,1,3.2,1.6c1.2,0.6,2.3,1.3,3.2,2.2s1.5,2.2,1.5,4c0,1-0.2,1.8-0.6,2.6c-0.4,0.8-0.9,1.4-1.5,1.9
			c-0.6,0.5-1.3,0.9-2.2,1.2s-1.7,0.4-2.7,0.4c-1.7,0-3.2-0.3-4.5-0.9S209.3,183.3,208.4,182.3z"/>
	</g>
	<g id="Marianne">
		<path id="Fond_1_" class="st0" d="M63.6,53.3c0.3-0.3,0.6-0.6,0.9-1h0c0.6-0.6,1.1-1.3,1.8-1.8c0.2-0.2,0.4-0.3,0.6-0.5
			c0.1-0.1,0.1-0.2,0.1-0.2c-0.3,0.1-0.4,0.3-0.7,0.4c-0.1,0-0.1-0.1-0.1-0.1c0.2-0.1,0.4-0.3,0.6-0.4c0,0,0,0,0,0
			c-0.1,0-0.1-0.1-0.1-0.1C66,49.6,65.5,50,65,50.5c-0.1,0.1-0.2-0.1-0.3-0.1c-0.8,0.3-1.4,1-2.2,1.3v-0.1c-0.3,0.1-0.6,0.3-1,0.4
			c-0.5,0.1-0.9,0.1-1.3,0.1c-0.6,0.1-1.3,0.2-1.9,0.3c0,0,0,0-0.1,0c-0.3,0.1-0.7,0.2-1,0.4c0,0,0,0,0,0c0,0-0.1,0.1-0.1,0.1
			c-0.1,0.1-0.2,0.2-0.4,0.3c-0.3,0.2-0.6,0.5-0.9,0.7c0,0-0.1,0-0.1,0c-0.3,0.3-0.6,0.6-0.9,0.8c0,0-0.1,0-0.2,0c0,0,0,0,0,0
			c0,0,0,0,0-0.1c0-0.1,0.1-0.2,0.1-0.2c0.1-0.1,0.1-0.2,0.2-0.2c0.1-0.1,0.1-0.2,0.2-0.3c0,0,0-0.1,0-0.1c0,0,0,0-0.1,0
			c0.3-0.3,0.6-0.5,0.9-0.7v0c0,0-0.1,0-0.1-0.1c0,0,0.1-0.1,0.1-0.1c0,0,0,0,0,0c0,0,0,0,0,0C56.1,52.9,56,53,55.9,53
			c-0.1,0.1-0.2,0.4-0.4,0.3c0,0-0.1,0-0.1,0c0,0,0,0-0.1,0c0,0,0,0,0,0c0,0,0,0,0,0c0,0,0,0,0,0c0,0,0,0,0,0c0,0,0,0,0,0
			c0,0,0,0,0,0c0,0,0,0,0-0.1c0,0,0,0,0,0c0,0,0-0.1,0.1-0.1c0,0,0,0,0-0.1c0,0,0-0.1,0.1-0.1c0,0,0-0.1,0-0.1
			c0.1-0.1,0.2-0.2,0.4-0.3h0c0.2-0.1,0.4-0.2,0.6-0.3c0,0,0.1-0.1,0.1-0.1c-0.3,0.1-0.6,0.2-0.9,0.4c0,0-0.1,0-0.1,0
			c0,0-0.1,0-0.1,0c0,0,0,0,0,0c0.1-0.1,0.2-0.2,0.3-0.3c0.1,0,0.1,0,0.1,0.1c1.7-1.3,4.1-1,6.1-1.7c0.2-0.1,0.3-0.2,0.5-0.3
			c0.3-0.1,0.5-0.4,0.8-0.5c0.4-0.3,0.7-0.7,0.9-1.2c0-0.1-0.1-0.1-0.1-0.1c-0.7,0.8-1.5,1.3-2.4,1.8c-1.1,0.6-2.4,0.5-3.5,0.6
			c0.1-0.1,0.2-0.1,0.3-0.1c0-0.2,0.1-0.2,0.2-0.3H59c0.1,0,0.1-0.1,0.1-0.1c0.1,0,0.3-0.1,0.2-0.1c-0.2-0.2-0.5,0.2-0.8,0
			c0.1-0.1,0.1-0.3,0.2-0.3h0.2c0-0.1,0.1-0.2,0.1-0.2c0.8-0.5,1.6-0.9,2.3-1.3c-0.2,0-0.3,0.2-0.4,0.1c0.1,0,0-0.2,0.1-0.2
			c0.6-0.2,1.1-0.5,1.7-0.7c-0.2,0-0.4,0.2-0.6,0c0.1-0.1,0.2-0.2,0.3-0.2v-0.2c0-0.1,0.1-0.1,0.1-0.1c-0.1,0-0.1-0.1-0.1-0.1
			c0.1-0.1,0.2-0.1,0.3-0.2c-0.1,0-0.2,0-0.2-0.1c0.2-0.2,0.4-0.3,0.7-0.3c-0.1-0.1-0.2,0-0.2-0.1c0-0.1,0.1-0.1,0.1-0.1H63
			c-0.1-0.1-0.1-0.2-0.1-0.2c0.3-0.4,0.3-0.9,0.5-1.3c-0.1,0-0.1,0-0.1-0.1c-0.5,0.6-1.4,0.8-2.2,1h-0.3c-0.3,0.1-0.6,0.1-0.9-0.1
			c-0.2-0.1-0.3-0.3-0.5-0.4c-0.4-0.3-0.9-0.5-1.3-0.6C56.8,44.2,55.4,44,54,44c0.6-0.3,1.2-0.3,1.9-0.5c0.9-0.3,1.8-0.6,2.7-0.5
			c-0.2-0.1-0.4,0-0.5,0c-0.8-0.1-1.5,0.2-2.3,0.3c-0.5,0.1-1,0.3-1.6,0.4c-0.3,0.1-0.5,0.4-0.9,0.4v-0.2c0.5-0.6,1.2-1.3,2-1.3
			c1-0.2,1.9,0,2.8,0.1c0.7,0.1,1.3,0.2,2,0.4c0.3,0,0.3,0.4,0.5,0.5c0.3,0.1,0.6,0,1,0.2c0-0.1-0.1-0.2,0-0.3
			c0.2-0.2,0.5,0.1,0.7-0.1c0.4-0.3-0.4-0.7-0.6-1.1c0-0.1,0.1-0.1,0.1-0.1c0.4,0.4,0.7,0.8,1.3,1.1c0.3,0.1,0.9,0.3,0.8-0.1
			c-0.3-0.6-0.8-1.1-1.2-1.6v-0.2c-0.1,0-0.1-0.1-0.2-0.1V41c-0.2-0.1-0.2-0.3-0.3-0.5c-0.2-0.3-0.1-0.6-0.2-1
			C62.1,39.3,62,39,62,38.7c-0.2-0.9-0.4-1.7-0.5-2.6c-0.1-1,0.6-1.8,1.1-2.7c0.4-0.6,0.8-1.3,1.5-1.7c0.2-0.6,0.6-1.2,1-1.7
			c0.4-0.5,1.1-0.8,1.7-1.1c0.7-0.3,1.4-0.5,1.4-0.5l10.7,0c0,0,0.1,0,0.3,0.1c0.2,0.1,0.6,0.3,0.8,0.4c0.4,0.2,0.8,0.5,1,0.9
			c0.1,0.2,0.3,0.5,0.2,0.7c-0.1,0.3-0.2,0.7-0.4,0.8c-0.3,0.2-0.7,0.2-1.1,0.1c-0.2,0-0.4-0.1-0.6-0.1c0.8,0.3,1.6,0.7,2.1,1.4
			c0.1,0.1,0.3,0.2,0.5,0.2c0.1,0,0.1,0.1,0.1,0.2c-0.1,0.1-0.2,0.2-0.2,0.3h0.2c0.3-0.1,0.2-0.6,0.6-0.5c0.3,0.2,0.4,0.5,0.2,0.8
			c-0.2,0.2-0.4,0.4-0.6,0.5c-0.1,0.1-0.1,0.3,0,0.4c0.2,0.2,0.2,0.4,0.3,0.6c0.2,0.4,0.2,0.8,0.4,1.2c0.2,0.8,0.4,1.6,0.4,2.4
			c0,0.4-0.2,0.8-0.1,1.2c0.1,0.4,0.4,0.8,0.6,1.1c0.2,0.3,0.4,0.5,0.6,0.9c0.3,0.5,0.9,1.1,0.6,1.7c-0.2,0.4-0.8,0.3-1.1,0.5
			c-0.3,0.3-0.1,0.7,0.1,1c0.3,0.5-0.3,0.8-0.7,1c0.1,0.2,0.3,0.1,0.4,0.2c0.1,0.3,0.3,0.4,0.2,0.7c-0.2,0.3-0.9,0.5-0.5,1
			c0.2,0.4,0.1,0.8-0.1,1.2c-0.2,0.5-0.6,0.7-1,0.8c-0.3,0.1-0.7,0.1-1,0.1C80.6,50,80.5,50,80.4,50c-0.9-0.1-1.8-0.4-2.7-0.4
			c-0.3,0.1-0.5,0.1-0.7,0.2c-0.2,0.2-0.5,0.4-0.6,0.6c0,0,0,0,0,0c0,0-0.1,0.1-0.1,0.1c0,0,0,0.1-0.1,0.1c0,0,0,0,0,0.1
			c-0.2,0.2-0.3,0.4-0.4,0.6c0,0,0,0,0,0c0,0,0,0.1,0,0.1c-0.2,0.3-0.3,0.7-0.4,1c-0.4,1.2-0.2,2.3,0.1,2.5c0.1,0.1,1.8,0.6,2.9,1.1
			c0.6,0.2,0.9,0.4,1.3,0.6l-22,0c1-0.7,2-1.1,3.5-1.8C61.5,54.6,63.1,53.9,63.6,53.3 M55.4,49.5c-0.1,0-0.3,0.1-0.3-0.1
			c0.1-0.3,0.4-0.3,0.6-0.4c0.1-0.1,0.3-0.2,0.4-0.1c0.1,0.2,0.3,0.1,0.4,0.2C56.2,49.5,55.7,49.3,55.4,49.5 M47.2,48.3
			c0,0-0.1-0.1-0.1-0.1c0.7-0.9,1.2-1.8,1.7-2.7c0.7-0.4,1.3-0.9,1.8-1.5c0.9-1,1.9-1.8,3-2.4c0.4-0.2,1-0.1,1.4,0.1
			c-0.2,0.2-0.4,0.2-0.6,0.3c-0.1,0-0.1,0-0.2-0.1c0.1-0.1,0.1-0.1,0.1-0.2c-0.5,0.6-1.3,0.9-1.7,1.6c-0.3,0.5-0.5,1.2-1.2,1.4
			c-0.2,0.1,0.1-0.2-0.1-0.1C49.6,45.7,48.5,46.9,47.2,48.3 M51.6,44.8c-0.1,0.1-0.1,0.1-0.2,0.2c-0.1,0.1-0.1,0.2-0.2,0.2
			c-0.1,0-0.1,0-0.1-0.1c0.1-0.2,0.2-0.4,0.4-0.5C51.6,44.7,51.6,44.7,51.6,44.8 M54.1,52.8c0,0.1-0.1,0.1-0.1,0.2
			c0.1,0,0.1,0,0.1,0.1c-0.1,0.1-0.2,0.2-0.4,0.3c0,0,0,0-0.1,0c-0.1,0.1-0.1,0.1-0.2,0.2c-0.1,0.1-0.4,0-0.3-0.1
			c0.1-0.1,0.3-0.3,0.4-0.4c0.1-0.1,0.2-0.1,0.2-0.2c0,0,0.1-0.1,0.1-0.1C53.9,52.7,54.2,52.7,54.1,52.8 M53.1,52.4
			C53.1,52.4,53.1,52.4,53.1,52.4c-0.2,0.2-0.4,0.3-0.6,0.4c-0.2,0.1-0.5,0.2-0.7,0.3c0,0,0,0,0,0c0,0-0.1,0-0.1,0
			c-0.2,0.1-0.4,0.3-0.5,0.4c0,0,0,0-0.1,0.1c0,0,0,0,0,0c0,0,0,0,0,0c0,0-0.1,0.1-0.1,0.1c0,0,0,0,0,0c0,0,0,0,0,0
			c0,0-0.1,0.1-0.1,0.1c0,0,0,0.1-0.1,0.1c0,0-0.1,0-0.1,0c0,0,0,0,0,0c0,0-0.1,0-0.1,0c0,0-0.1,0-0.1,0c0,0,0,0,0,0c0,0,0,0,0,0
			c-0.1,0.1-0.1,0.1-0.2,0.2c-0.1,0.1-0.2,0.2-0.3,0.3c0,0,0,0,0,0c0,0,0,0,0,0c0,0,0,0,0,0c0,0,0,0,0,0c0,0,0,0,0,0c0,0,0,0,0,0.1
			l0,0c0,0,0,0,0,0c0,0,0,0,0,0c0,0,0,0,0,0c0,0,0-0.1,0-0.1l0,0c0,0,0,0,0,0c0.1-0.1,0.1-0.1,0.2-0.2c0,0,0,0,0,0c0,0,0,0,0.1-0.1
			c0,0,0.1-0.1,0.1-0.1c0,0,0,0,0,0c0.1-0.1,0.1-0.2,0.2-0.2c0,0,0,0,0,0c0,0,0,0,0,0c0,0,0.1-0.1,0.1-0.1c0,0,0-0.1,0.1-0.1
			c0,0,0,0,0,0c0,0,0,0,0,0c0,0,0,0,0,0c0,0,0-0.1,0.1-0.1c0,0,0,0,0,0c0,0,0,0,0,0c0,0,0,0,0-0.1c0,0,0,0,0,0c0,0,0-0.1,0-0.1
			c0,0,0,0,0,0c0.1-0.1,0.1-0.2,0.2-0.3c0,0,0,0,0,0c-0.1,0-0.1,0.1-0.2,0.2c-0.1,0-0.2,0-0.1-0.1c0,0,0.1-0.1,0.1-0.1c0,0,0,0,0,0
			c0.1-0.1,0.2-0.2,0.3-0.3c0.1,0,0.1-0.1,0.2-0.1c0,0,0,0,0,0c0,0,0.1-0.1,0.1-0.1c0,0,0,0,0,0c0.5-0.5,1.4-0.5,2.1-0.8
			c0.3-0.1,0.6,0.1,0.9,0c0.2,0,0.3,0,0.5,0.1C54,51.8,53.6,52.1,53.1,52.4 M54.2,48.7c-0.1-0.1,0.2,0,0.2-0.1H54
			c-0.1,0-0.1-0.1-0.1-0.1c-0.3,0.1-0.6,0.2-0.9,0.2c-0.4,0.1-0.7,0.4-1.1,0.5c-0.6,0.2-1.1,0.7-1.7,0.9c-0.1,0-0.1-0.1-0.1-0.1
			c0.1-0.2,0.3-0.2,0.4-0.4c0-0.1,0-0.1-0.1-0.1c0.4-0.6,1-0.9,1.6-1.4v-0.2c0.2-0.2,0.4-0.3,0.5-0.6c0.1-0.2,0.3-0.4,0.5-0.5
			c-0.1-0.1-0.2-0.1-0.2-0.2c-0.2,0-0.4,0.1-0.6-0.1c0.1-0.1,0.2-0.2,0.3-0.2c0,0-0.1,0-0.1-0.1c-0.1-0.1,0.1-0.2,0.3-0.3
			c0.2-0.1,0.5-0.1,0.6-0.2c-0.4-0.1-0.8,0.1-1.2-0.1c0.3-0.7,0.7-1.3,1.3-1.6c0.1,0,0.2,0,0.2,0.1c0,0.3-0.2,0.5-0.4,0.5
			c0.4,0.1,0.9,0.1,1.3,0.3c-0.1,0.1-0.2,0.1-0.2,0.1c0.3,0.2,0.6,0.1,0.9,0.3c-0.2,0.2-0.3,0-0.5,0c1.7,0.5,3.4,0.9,4.8,1.9
			c-1.2,0.6-2.4,0.9-3.7,1.1c-0.2,0-0.3,0-0.4-0.1c0,0.1,0,0.2-0.1,0.2c-0.2,0-0.4,0-0.5,0.1C54.7,48.8,54.4,48.8,54.2,48.7"/>
		<path id="Rouge_2_" class="st1" d="M63.6,53.3c0.3-0.3,0.6-0.6,0.9-1h0c0.6-0.6,1.1-1.3,1.8-1.8c0.2-0.2,0.4-0.3,0.6-0.5
			c0.1-0.1,0.1-0.2,0.1-0.2c-0.3,0.1-0.4,0.3-0.7,0.4c-0.1,0-0.1-0.1-0.1-0.1c0.2-0.1,0.4-0.3,0.6-0.4c0,0,0,0,0,0
			c-0.1,0-0.1-0.1-0.1-0.1C66,49.6,65.5,50,65,50.5c-0.1,0.1-0.2-0.1-0.3-0.1c-0.8,0.3-1.4,1-2.2,1.3v-0.1c-0.3,0.1-0.6,0.3-1,0.4
			c-0.5,0.1-0.9,0.1-1.3,0.1c-0.6,0.1-1.3,0.2-1.9,0.3c0,0,0,0-0.1,0c-0.3,0.1-0.7,0.2-1,0.4c0,0,0,0,0,0c0,0-0.1,0.1-0.1,0.1
			c-0.1,0.1-0.2,0.2-0.4,0.3c-0.3,0.2-0.6,0.5-0.9,0.7c0,0-0.1,0-0.1,0c-0.3,0.3-0.6,0.6-0.9,0.8c0,0-0.1,0-0.2,0c0,0,0,0,0,0
			c0,0,0,0,0-0.1c0-0.1,0.1-0.2,0.1-0.2c0.1-0.1,0.1-0.2,0.2-0.2c0.1-0.1,0.1-0.2,0.2-0.3c0,0,0-0.1,0-0.1c0,0,0,0-0.1,0
			c0.3-0.3,0.6-0.5,0.9-0.7v0c0,0-0.1,0-0.1-0.1c0,0,0.1-0.1,0.1-0.1c0,0,0,0,0,0c0,0,0,0,0,0C56.1,52.9,56,53,55.9,53
			c-0.1,0.1-0.2,0.4-0.4,0.3c0,0-0.1,0-0.1,0c0,0,0,0-0.1,0c0,0,0,0,0,0c0,0,0,0,0,0c0,0,0,0,0,0c0,0,0,0,0,0c0,0,0,0,0,0
			c0,0,0,0,0,0c0,0,0,0,0-0.1c0,0,0,0,0,0c0,0,0-0.1,0.1-0.1c0,0,0,0,0-0.1c0,0,0-0.1,0.1-0.1c0,0,0-0.1,0-0.1
			c0.1-0.1,0.2-0.2,0.4-0.3h0c0.2-0.1,0.4-0.2,0.6-0.3c0,0,0.1-0.1,0.1-0.1c-0.3,0.1-0.6,0.2-0.9,0.4c0,0-0.1,0-0.1,0
			c0,0-0.1,0-0.1,0c0,0,0,0,0,0c0.1-0.1,0.2-0.2,0.3-0.3c0.1,0,0.1,0,0.1,0.1c1.7-1.3,4.1-1,6.1-1.7c0.2-0.1,0.3-0.2,0.5-0.3
			c0.3-0.1,0.5-0.4,0.8-0.5c0.4-0.3,0.7-0.7,0.9-1.2c0-0.1-0.1-0.1-0.1-0.1c-0.7,0.8-1.5,1.3-2.4,1.8c-1.1,0.6-2.4,0.5-3.5,0.6
			c0.1-0.1,0.2-0.1,0.3-0.1c0-0.2,0.1-0.2,0.2-0.3H59c0.1,0,0.1-0.1,0.1-0.1c0.1,0,0.3-0.1,0.2-0.1c-0.2-0.2-0.5,0.2-0.8,0
			c0.1-0.1,0.1-0.3,0.2-0.3h0.2c0-0.1,0.1-0.2,0.1-0.2c0.8-0.5,1.6-0.9,2.3-1.3c-0.2,0-0.3,0.2-0.4,0.1c0.1,0,0-0.2,0.1-0.2
			c0.6-0.2,1.1-0.5,1.7-0.7c-0.2,0-0.4,0.2-0.6,0c0.1-0.1,0.2-0.2,0.3-0.2v-0.2c0-0.1,0.1-0.1,0.1-0.1c-0.1,0-0.1-0.1-0.1-0.1
			c0.1-0.1,0.2-0.1,0.3-0.2c-0.1,0-0.2,0-0.2-0.1c0.2-0.2,0.4-0.3,0.7-0.3c-0.1-0.1-0.2,0-0.2-0.1c0-0.1,0.1-0.1,0.1-0.1H63
			c-0.1-0.1-0.1-0.2-0.1-0.2c0.3-0.4,0.3-0.9,0.5-1.3c-0.1,0-0.1,0-0.1-0.1c-0.5,0.6-1.4,0.8-2.2,1h-0.3c-0.3,0.1-0.6,0.1-0.9-0.1
			c-0.2-0.1-0.3-0.3-0.5-0.4c-0.4-0.3-0.9-0.5-1.3-0.6C56.8,44.2,55.4,44,54,44c0.6-0.3,1.2-0.3,1.9-0.5c0.9-0.3,1.8-0.6,2.7-0.5
			c-0.2-0.1-0.4,0-0.5,0c-0.8-0.1-1.5,0.2-2.3,0.3c-0.5,0.1-1,0.3-1.6,0.4c-0.3,0.1-0.5,0.4-0.9,0.4v-0.2c0.5-0.6,1.2-1.3,2-1.3
			c1-0.2,1.9,0,2.8,0.1c0.7,0.1,1.3,0.2,2,0.4c0.3,0,0.3,0.4,0.5,0.5c0.3,0.1,0.6,0,1,0.2c0-0.1-0.1-0.2,0-0.3
			c0.2-0.2,0.5,0.1,0.7-0.1c0.4-0.3-0.4-0.7-0.6-1.1c0-0.1,0.1-0.1,0.1-0.1c0.4,0.4,0.7,0.8,1.3,1.1c0.3,0.1,0.9,0.3,0.8-0.1
			c-0.3-0.6-0.8-1.1-1.2-1.6v-0.2c-0.1,0-0.1-0.1-0.2-0.1V41c-0.2-0.1-0.2-0.3-0.3-0.5c-0.2-0.3-0.1-0.6-0.2-1
			C62.1,39.3,62,39,62,38.7c-0.2-0.9-0.4-1.7-0.5-2.6c-0.1-1,0.6-1.8,1.1-2.7c0.4-0.6,0.8-1.3,1.5-1.7c0.2-0.6,0.6-1.2,1-1.7
			c0.4-0.5,1.1-0.8,1.7-1.1c0.7-0.3,1.4-0.5,1.4-0.5H31.4v28.3h26c1-0.7,2-1.1,3.5-1.8C61.5,54.6,63.1,53.9,63.6,53.3 M55.4,49.5
			c-0.1,0-0.3,0.1-0.3-0.1c0.1-0.3,0.4-0.3,0.6-0.4c0.1-0.1,0.3-0.2,0.4-0.1c0.1,0.2,0.3,0.1,0.4,0.2C56.2,49.5,55.7,49.3,55.4,49.5
			 M47.2,48.3c0,0-0.1-0.1-0.1-0.1c0.7-0.9,1.2-1.8,1.7-2.7c0.7-0.4,1.3-0.9,1.8-1.5c0.9-1,1.9-1.8,3-2.4c0.4-0.2,1-0.1,1.4,0.1
			c-0.2,0.2-0.4,0.2-0.6,0.3c-0.1,0-0.1,0-0.2-0.1c0.1-0.1,0.1-0.1,0.1-0.2c-0.5,0.6-1.3,0.9-1.7,1.6c-0.3,0.5-0.5,1.2-1.2,1.4
			c-0.2,0.1,0.1-0.2-0.1-0.1C49.6,45.7,48.5,46.9,47.2,48.3 M51.6,44.8c-0.1,0.1-0.1,0.1-0.2,0.2c-0.1,0.1-0.1,0.2-0.2,0.2
			c-0.1,0-0.1,0-0.1-0.1c0.1-0.2,0.2-0.4,0.4-0.5C51.6,44.7,51.6,44.7,51.6,44.8 M54.1,52.8c0,0.1-0.1,0.1-0.1,0.2
			c0.1,0,0.1,0,0.1,0.1c-0.1,0.1-0.2,0.2-0.4,0.3c0,0,0,0-0.1,0c-0.1,0.1-0.1,0.1-0.2,0.2c-0.1,0.1-0.4,0-0.3-0.1
			c0.1-0.1,0.3-0.3,0.4-0.4c0.1-0.1,0.2-0.1,0.2-0.2c0,0,0.1-0.1,0.1-0.1C53.9,52.7,54.2,52.7,54.1,52.8 M53.1,52.4
			C53.1,52.4,53.1,52.4,53.1,52.4c-0.2,0.2-0.4,0.3-0.6,0.4c-0.2,0.1-0.5,0.2-0.7,0.3c0,0,0,0,0,0c0,0-0.1,0-0.1,0
			c-0.2,0.1-0.4,0.3-0.5,0.4c0,0,0,0-0.1,0.1c0,0,0,0,0,0c0,0,0,0,0,0c0,0-0.1,0.1-0.1,0.1c0,0,0,0,0,0c0,0,0,0,0,0
			c0,0-0.1,0.1-0.1,0.1c0,0,0,0.1-0.1,0.1c0,0-0.1,0-0.1,0c0,0,0,0,0,0c0,0-0.1,0-0.1,0c0,0-0.1,0-0.1,0c0,0,0,0,0,0c0,0,0,0,0,0
			c-0.1,0.1-0.1,0.1-0.2,0.2c-0.1,0.1-0.2,0.2-0.3,0.3c0,0,0,0,0,0c0,0,0,0,0,0c0,0,0,0,0,0c0,0,0,0,0,0c0,0,0,0,0,0c0,0,0,0,0,0.1
			l0,0c0,0,0,0,0,0c0,0,0,0,0,0c0,0,0,0,0,0c0,0,0-0.1,0-0.1l0,0c0,0,0,0,0,0c0.1-0.1,0.1-0.1,0.2-0.2c0,0,0,0,0,0c0,0,0,0,0.1-0.1
			c0,0,0.1-0.1,0.1-0.1c0,0,0,0,0,0c0.1-0.1,0.1-0.2,0.2-0.2c0,0,0,0,0,0c0,0,0,0,0,0c0,0,0.1-0.1,0.1-0.1c0,0,0-0.1,0.1-0.1
			c0,0,0,0,0,0c0,0,0,0,0,0c0,0,0,0,0,0c0,0,0-0.1,0.1-0.1c0,0,0,0,0,0c0,0,0,0,0,0c0,0,0,0,0-0.1c0,0,0,0,0,0c0,0,0-0.1,0-0.1
			c0,0,0,0,0,0c0.1-0.1,0.1-0.2,0.2-0.3c0,0,0,0,0,0c-0.1,0-0.1,0.1-0.2,0.2c-0.1,0-0.2,0-0.1-0.1c0,0,0.1-0.1,0.1-0.1c0,0,0,0,0,0
			c0.1-0.1,0.2-0.2,0.3-0.3c0.1,0,0.1-0.1,0.2-0.1c0,0,0,0,0,0c0,0,0.1-0.1,0.1-0.1c0,0,0,0,0,0c0.5-0.5,1.4-0.5,2.1-0.8
			c0.3-0.1,0.6,0.1,0.9,0c0.2,0,0.3,0,0.5,0.1C54,51.8,53.6,52.1,53.1,52.4 M54.2,48.7c-0.1-0.1,0.2,0,0.2-0.1H54
			c-0.1,0-0.1-0.1-0.1-0.1c-0.3,0.1-0.6,0.2-0.9,0.2c-0.4,0.1-0.7,0.4-1.1,0.5c-0.6,0.2-1.1,0.7-1.7,0.9c-0.1,0-0.1-0.1-0.1-0.1
			c0.1-0.2,0.3-0.2,0.4-0.4c0-0.1,0-0.1-0.1-0.1c0.4-0.6,1-0.9,1.6-1.4v-0.2c0.2-0.2,0.4-0.3,0.5-0.6c0.1-0.2,0.3-0.4,0.5-0.5
			c-0.1-0.1-0.2-0.1-0.2-0.2c-0.2,0-0.4,0.1-0.6-0.1c0.1-0.1,0.2-0.2,0.3-0.2c0,0-0.1,0-0.1-0.1c-0.1-0.1,0.1-0.2,0.3-0.3
			c0.2-0.1,0.5-0.1,0.6-0.2c-0.4-0.1-0.8,0.1-1.2-0.1c0.3-0.7,0.7-1.3,1.3-1.6c0.1,0,0.2,0,0.2,0.1c0,0.3-0.2,0.5-0.4,0.5
			c0.4,0.1,0.9,0.1,1.3,0.3c-0.1,0.1-0.2,0.1-0.2,0.1c0.3,0.2,0.6,0.1,0.9,0.3c-0.2,0.2-0.3,0-0.5,0c1.7,0.5,3.4,0.9,4.8,1.9
			c-1.2,0.6-2.4,0.9-3.7,1.1c-0.2,0-0.3,0-0.4-0.1c0,0.1,0,0.2-0.1,0.2c-0.2,0-0.4,0-0.5,0.1C54.7,48.8,54.4,48.8,54.2,48.7"/>
		<path id="Bleu_2_" class="st2" d="M109.3,28.3H78.8c0,0,0.1,0,0.3,0.1c0.2,0.1,0.6,0.3,0.8,0.4c0.4,0.2,0.8,0.5,1,0.9
			c0.1,0.2,0.3,0.5,0.2,0.7c-0.1,0.3-0.2,0.7-0.4,0.8c-0.3,0.2-0.7,0.2-1.1,0.1c-0.2,0-0.4-0.1-0.6-0.1c0.8,0.3,1.6,0.7,2.1,1.4
			c0.1,0.1,0.3,0.2,0.5,0.2c0.1,0,0.1,0.1,0.1,0.2c-0.1,0.1-0.2,0.2-0.2,0.3h0.2c0.3-0.1,0.2-0.6,0.6-0.5c0.3,0.2,0.4,0.5,0.2,0.8
			c-0.2,0.2-0.4,0.4-0.6,0.5c-0.1,0.1-0.1,0.3,0,0.4c0.2,0.2,0.2,0.4,0.3,0.6c0.2,0.4,0.2,0.8,0.4,1.2c0.2,0.8,0.4,1.6,0.4,2.4
			c0,0.4-0.2,0.8-0.1,1.2c0.1,0.4,0.4,0.8,0.6,1.1c0.2,0.3,0.4,0.5,0.6,0.9c0.3,0.5,0.9,1.1,0.6,1.7c-0.2,0.4-0.8,0.3-1.1,0.5
			c-0.3,0.3-0.1,0.7,0.1,1c0.3,0.5-0.3,0.8-0.7,1c0.1,0.2,0.3,0.1,0.4,0.2c0.1,0.3,0.3,0.4,0.2,0.7c-0.2,0.3-0.9,0.5-0.5,1
			c0.2,0.4,0.1,0.8-0.1,1.2c-0.2,0.5-0.6,0.7-1,0.8c-0.3,0.1-0.7,0.1-1,0.1C80.6,50,80.5,50,80.4,50c-0.9-0.1-1.8-0.4-2.7-0.4
			c-0.3,0.1-0.5,0.1-0.7,0.2c-0.2,0.2-0.5,0.4-0.6,0.6c0,0,0,0,0,0c0,0-0.1,0.1-0.1,0.1c0,0,0,0.1-0.1,0.1c0,0,0,0,0,0.1
			c-0.2,0.2-0.3,0.4-0.4,0.6c0,0,0,0,0,0c0,0,0,0.1,0,0.1c-0.2,0.3-0.3,0.7-0.4,1c-0.4,1.2-0.2,2.3,0.1,2.5c0.1,0.1,1.8,0.6,2.9,1.1
			c0.6,0.2,0.9,0.4,1.3,0.6h29.9V28.3z"/>
		<path id="Yeux_2_" class="st3" d="M80.7,38.7c0.2,0.1,0.5,0.1,0.5,0.2c-0.1,0.4-0.7,0.5-1.1,1H80c-0.2,0.1-0.1,0.4-0.3,0.4
			c-0.2-0.1-0.3,0-0.5,0.1c0.2,0.2,0.5,0.4,0.8,0.3c0.1,0,0.2,0.1,0.2,0.2c0,0,0.1,0,0.1-0.1c0.1,0,0.1,0,0.1,0.1V41
			c-0.2,0.2-0.4,0.1-0.6,0.2c0.4,0.1,0.9,0.1,1.2,0c0.3-0.1,0-0.6,0.2-0.9c-0.1,0,0-0.2-0.1-0.2c0.1-0.1,0.2-0.3,0.3-0.3
			c0.1,0,0.3-0.1,0.3-0.2c0-0.1-0.2-0.2-0.2-0.3c0.3-0.2,0.6-0.5,0.5-0.9c-0.1-0.2-0.5-0.2-0.8-0.3c-0.3-0.1-0.6,0-0.9,0.1
			c-0.3,0-0.5,0.2-0.8,0.2c-0.4,0.1-0.7,0.3-1,0.5c0.4-0.2,0.8-0.2,1.2-0.3C80.1,38.7,80.3,38.6,80.7,38.7"/>
	</g>
</g>
</svg>
