<?xml version="1.0" encoding="UTF-8" standalone="no"?>
<!-- Created with Inkscape (http://www.inkscape.org/) -->

<svg
   xmlns:dc="http://purl.org/dc/elements/1.1/"
   xmlns:cc="http://creativecommons.org/ns#"
   xmlns:rdf="http://www.w3.org/1999/02/22-rdf-syntax-ns#"
   xmlns:svg="http://www.w3.org/2000/svg"
   xmlns="http://www.w3.org/2000/svg"
   xmlns:sodipodi="http://sodipodi.sourceforge.net/DTD/sodipodi-0.dtd"
   xmlns:inkscape="http://www.inkscape.org/namespaces/inkscape"
   width="200mm"
   height="171.92725mm"
   viewBox="0 0 199.99999 171.92725"
   version="1.1"
   id="svg2176"
   inkscape:version="0.92.4 (5da689c313, 2019-01-14)"
   sodipodi:docname="Gendarmerie nationale.svg">
  <defs
     id="defs2170">
    <clipPath
       clipPathUnits="userSpaceOnUse"
       id="clipPath1546">
      <path
         d="m 442.694,246.755 h 155.959 v 138.74 H 442.694 Z"
         id="path1544"
         inkscape:connector-curvature="0" />
    </clipPath>
    <clipPath
       clipPathUnits="userSpaceOnUse"
       id="clipPath1780">
      <path
         d="m 442.694,246.755 h 155.959 v 138.74 H 442.694 Z"
         id="path1778"
         inkscape:connector-curvature="0" />
    </clipPath>
  </defs>
  <sodipodi:namedview
     id="base"
     pagecolor="#ffffff"
     bordercolor="#666666"
     borderopacity="1.0"
     inkscape:pageopacity="0.0"
     inkscape:pageshadow="2"
     inkscape:zoom="0.175"
     inkscape:cx="1361.2518"
     inkscape:cy="913.45464"
     inkscape:document-units="mm"
     inkscape:current-layer="layer1"
     showgrid="false"
     fit-margin-top="0"
     fit-margin-left="0"
     fit-margin-right="0"
     fit-margin-bottom="0"
     inkscape:pagecheckerboard="true"
     inkscape:window-width="1920"
     inkscape:window-height="1001"
     inkscape:window-x="-9"
     inkscape:window-y="-9"
     inkscape:window-maximized="1" />
  <metadata
     id="metadata2173">
    <rdf:RDF>
      <cc:Work
         rdf:about="">
        <dc:format>image/svg+xml</dc:format>
        <dc:type
           rdf:resource="http://purl.org/dc/dcmitype/StillImage" />
        <dc:title></dc:title>
      </cc:Work>
    </rdf:RDF>
  </metadata>
  <g
     inkscape:label="Calque 1"
     inkscape:groupmode="layer"
     id="layer1"
     transform="translate(-19.719462,-62.948214)">
    <g
       id="g2834"
       transform="matrix(3.6351167,0,0,3.6351167,-245.76123,-452.32794)">
      <g
         transform="matrix(0.35277777,0,0,-0.35277777,-83.140371,277.74351)"
         id="g1540">
        <g
           clip-path="url(#clipPath1546)"
           id="g1542">
          <g
             transform="translate(482.0635,251.4267)"
             id="g1548">
            <path
               inkscape:connector-curvature="0"
               id="path1550"
               style="fill:#184b92;fill-opacity:1;fill-rule:nonzero;stroke:none"
               d="m 0,0 1.756,7.517 c 0,0 -21.128,15.132 -32.837,40.48 0,0 -21.337,40.659 19.243,86.071 0,0 -35.965,-30.473 -25.683,-74.155 0,0 5.283,-29.197 37.521,-59.913" />
          </g>
        </g>
      </g>
      <g
         transform="matrix(0.35277777,0,0,-0.35277777,85.221832,178.18271)"
         id="g1560">
        <path
           inkscape:connector-curvature="0"
           id="path1562"
           style="fill:#184b92;fill-opacity:1;fill-rule:nonzero;stroke:none"
           d="m 0,0 c 0,0 8.826,-8.288 6.52,-21.868 l -6.837,6.366 c 0,0 2.974,6.408 0.317,15.502" />
      </g>
      <g
         id="g2782">
        <g
           id="g1700"
           transform="matrix(0.35277777,0,0,-0.35277777,87.563747,170.66519)">
          <path
             d="m 0,0 v -0.225 c 0,-0.18 -0.03,-0.42 -0.09,-0.721 -0.061,-0.3 -0.218,-0.599 -0.472,-0.899 -0.256,-0.301 -0.638,-0.559 -1.149,-0.777 -0.51,-0.217 -1.215,-0.326 -2.115,-0.326 -0.899,0 -1.604,0.109 -2.115,0.326 -0.51,0.218 -0.893,0.476 -1.147,0.777 -0.255,0.3 -0.413,0.603 -0.473,0.911 -0.06,0.307 -0.09,0.543 -0.09,0.709 v 0.562 10.081 0.585 c 0,0.165 0.03,0.401 0.09,0.709 0.06,0.307 0.218,0.611 0.473,0.911 0.254,0.3 0.637,0.559 1.147,0.776 0.511,0.218 1.216,0.327 2.115,0.327 0.9,0 1.605,-0.109 2.115,-0.327 0.511,-0.217 0.893,-0.476 1.149,-0.776 0.254,-0.3 0.411,-0.604 0.472,-0.911 C -0.03,11.404 0,11.168 0,11.003 v -0.585 h -1.913 v 0.248 c 0,0.134 -0.023,0.281 -0.067,0.438 -0.045,0.158 -0.139,0.304 -0.282,0.439 -0.142,0.135 -0.341,0.251 -0.596,0.349 -0.255,0.097 -0.599,0.146 -1.035,0.146 -0.405,0 -0.731,-0.049 -0.979,-0.146 C -5.119,11.794 -5.311,11.67 -5.446,11.521 -5.58,11.371 -5.667,11.217 -5.704,11.059 -5.742,10.902 -5.76,10.755 -5.76,10.621 V 10.418 0.337 0.135 c 0,-0.135 0.018,-0.281 0.056,-0.439 0.037,-0.158 0.124,-0.308 0.258,-0.45 0.135,-0.143 0.327,-0.263 0.574,-0.36 0.248,-0.097 0.574,-0.147 0.979,-0.147 0.436,0 0.78,0.05 1.035,0.147 0.255,0.097 0.454,0.214 0.596,0.349 0.143,0.135 0.237,0.281 0.282,0.438 0.044,0.158 0.067,0.297 0.067,0.417 v 0.247 1.148 1.958 c 0,0.254 -0.015,0.46 -0.045,0.618 -0.03,0.158 -0.108,0.266 -0.236,0.326 C -2.322,4.447 -2.513,4.455 -2.768,4.41 -3.023,4.365 -3.375,4.268 -3.826,4.117 v 1.891 c 0.195,0.074 0.387,0.142 0.575,0.202 0.186,0.06 0.363,0.12 0.528,0.181 0.36,0.119 0.75,0.134 1.17,0.044 0.421,-0.09 0.765,-0.278 1.035,-0.562 C -0.383,5.738 -0.281,5.602 -0.214,5.468 -0.146,5.333 -0.095,5.186 -0.056,5.029 -0.019,4.871 0,4.687 0,4.477 V 3.757 2.363 Z"
             style="fill:#184b92;fill-opacity:1;fill-rule:nonzero;stroke:none"
             id="path1702"
             inkscape:connector-curvature="0" />
        </g>
        <g
           id="g1704"
           transform="matrix(0.35277777,0,0,-0.35277777,90.381736,168.60141)">
          <path
             d="M 0,0 V 0.203 C 0,0.338 -0.019,0.484 -0.057,0.641 -0.094,0.799 -0.18,0.949 -0.315,1.092 -0.45,1.234 -0.641,1.353 -0.889,1.452 -1.137,1.549 -1.462,1.598 -1.868,1.598 -2.288,1.598 -2.629,1.549 -2.892,1.452 -3.155,1.353 -3.357,1.238 -3.499,1.102 -3.641,0.968 -3.736,0.822 -3.781,0.664 -3.825,0.506 -3.848,0.367 -3.848,0.247 V 0 -0.022 -0.202 -2.093 c 0.03,0.135 0.098,0.244 0.203,0.327 0.104,0.082 0.225,0.146 0.36,0.191 0.135,0.045 0.269,0.075 0.404,0.09 0.135,0.015 0.241,0.022 0.316,0.022 h 1.282 c 0.345,0 0.645,0.124 0.901,0.372 C -0.128,-0.844 0,-0.548 0,-0.202 v 0.18 z m -1.913,3.285 c 0.9,0 1.605,-0.109 2.115,-0.326 C 0.712,2.742 1.095,2.482 1.35,2.183 1.605,1.882 1.763,1.579 1.823,1.271 1.882,0.964 1.913,0.727 1.913,0.563 V 0 -0.022 -0.518 C 1.913,-0.773 1.864,-1.057 1.766,-1.373 1.668,-1.687 1.44,-2.025 1.08,-2.385 0.914,-2.565 0.728,-2.7 0.518,-2.79 0.308,-2.88 0.12,-2.948 -0.045,-2.992 -0.24,-3.052 -0.443,-3.083 -0.652,-3.083 h -1.71 c -0.392,0 -0.736,-0.143 -1.036,-0.427 -0.3,-0.285 -0.45,-0.638 -0.45,-1.058 V -5.58 c 0,-0.36 0.067,-0.646 0.203,-0.856 0.06,-0.105 0.127,-0.195 0.202,-0.269 0.075,-0.076 0.188,-0.143 0.338,-0.203 0.12,-0.06 0.273,-0.113 0.461,-0.157 0.187,-0.046 0.431,-0.069 0.731,-0.069 0.391,0 0.698,0.042 0.922,0.125 0.225,0.082 0.384,0.153 0.473,0.213 0.195,0.151 0.331,0.33 0.405,0.541 C -0.037,-6.046 0,-5.821 0,-5.58 H 1.913 V -6.12 C 1.913,-6.525 1.826,-6.9 1.654,-7.245 1.481,-7.591 1.215,-7.89 0.855,-8.145 0.6,-8.326 0.247,-8.483 -0.202,-8.618 c -0.45,-0.135 -1.021,-0.203 -1.711,-0.203 -0.51,0 -0.953,0.042 -1.328,0.124 -0.375,0.082 -0.701,0.188 -0.979,0.315 -0.277,0.128 -0.506,0.274 -0.686,0.439 -0.179,0.164 -0.33,0.33 -0.449,0.495 -0.271,0.39 -0.398,0.84 -0.383,1.35 V -5.58 -4.568 -0.022 0 0.563 c 0,0.18 0.03,0.42 0.09,0.719 0.06,0.3 0.217,0.6 0.473,0.901 0.254,0.299 0.637,0.559 1.147,0.776 0.51,0.217 1.215,0.326 2.115,0.326"
             style="fill:#184b92;fill-opacity:1;fill-rule:nonzero;stroke:none"
             id="path1706"
             inkscape:connector-curvature="0" />
        </g>
        <g
           id="g1708"
           transform="matrix(0.35277777,0,0,-0.35277777,94.398287,171.64969)">
          <path
             d="m 0,0 h -1.913 v 8.641 0.202 c 0,0.136 -0.019,0.282 -0.056,0.439 -0.038,0.158 -0.124,0.307 -0.259,0.45 -0.135,0.142 -0.326,0.262 -0.574,0.36 -0.246,0.098 -0.573,0.147 -0.978,0.147 -0.42,0 -0.762,-0.049 -1.025,-0.147 C -5.067,9.994 -5.269,9.878 -5.412,9.743 -5.554,9.608 -5.648,9.462 -5.693,9.304 -5.738,9.147 -5.76,9.008 -5.76,8.888 V 8.641 0 h -1.913 v 8.798 0.406 c 0,0.18 0.03,0.419 0.09,0.719 0.06,0.3 0.221,0.6 0.484,0.901 0.262,0.299 0.648,0.559 1.159,0.776 0.51,0.217 1.215,0.326 2.114,0.326 0.9,0 1.605,-0.109 2.115,-0.326 0.511,-0.217 0.893,-0.477 1.149,-0.776 C -0.309,10.523 -0.15,10.22 -0.09,9.912 -0.03,9.604 0,9.368 0,9.204 V 8.979 Z"
             style="fill:#184b92;fill-opacity:1;fill-rule:nonzero;stroke:none"
             id="path1710"
             inkscape:connector-curvature="0" />
        </g>
        <g
           id="g1712"
           transform="matrix(0.35277777,0,0,-0.35277777,96.525431,171.12581)">
          <path
             d="m 0,0 c 0.375,0 0.686,0.042 0.934,0.124 0.248,0.082 0.443,0.191 0.584,0.327 0.143,0.134 0.245,0.284 0.305,0.45 0.06,0.164 0.09,0.321 0.09,0.472 v 4.77 0.112 2.79 C 1.883,8.88 1.812,8.761 1.699,8.686 1.587,8.611 1.47,8.559 1.351,8.528 1.125,8.453 0.882,8.371 0.619,8.281 0.356,8.191 0.113,8.108 -0.113,8.033 -0.382,7.943 -0.637,7.854 -0.876,7.763 -1.057,7.688 -1.229,7.576 -1.395,7.426 -1.53,7.306 -1.654,7.152 -1.766,6.965 -1.878,6.776 -1.935,6.541 -1.935,6.255 V 6.143 1.485 C -1.92,1.29 -1.878,1.103 -1.811,0.923 -1.744,0.743 -1.638,0.585 -1.496,0.451 -1.354,0.315 -1.158,0.206 -0.911,0.124 -0.663,0.042 -0.359,0 0,0 M 3.825,1.036 C 3.81,0.256 3.495,-0.393 2.881,-0.911 2.265,-1.428 1.305,-1.688 0,-1.688 c -0.675,0 -1.257,0.072 -1.744,0.214 -0.487,0.143 -0.888,0.338 -1.203,0.585 -0.315,0.248 -0.544,0.537 -0.687,0.866 -0.143,0.331 -0.213,0.684 -0.213,1.059 l -4.79e-5,0.539 c 5.082e-4,1.5911369 -4.157e-4,3.2062399 4.79e-5,4.568 v 0.518 c 0,0.57 0.146,1.087 0.439,1.553 0.292,0.464 0.716,0.794 1.271,0.99 0.27,0.089 0.577,0.194 0.922,0.314 0.345,0.12 0.675,0.237 0.991,0.349 0.314,0.113 0.591,0.214 0.832,0.305 0.239,0.089 0.39,0.142 0.45,0.156 0.06,0.03 0.138,0.072 0.236,0.124 0.098,0.053 0.192,0.131 0.282,0.237 0.089,0.104 0.169,0.225 0.236,0.36 0.068,0.135 0.101,0.292 0.101,0.472 v 0.428 2.88 h 1.912 z"
             style="fill:#184b92;fill-opacity:1;fill-rule:nonzero;stroke:none"
             id="path1714"
             inkscape:connector-curvature="0"
             sodipodi:nodetypes="csccscccccsccccsccscccccscccsccsccsccccccscccc" />
        </g>
        <g
           id="g1716"
           transform="matrix(0.35277777,0,0,-0.35277777,100.68528,169.54586)">
          <path
             d="m 0,0 c -0.03,-0.15 -0.106,-0.263 -0.225,-0.338 -0.12,-0.075 -0.233,-0.128 -0.338,-0.157 -0.225,-0.076 -0.468,-0.162 -0.731,-0.259 -0.263,-0.098 -0.507,-0.184 -0.732,-0.259 -0.27,-0.09 -0.525,-0.18 -0.765,-0.27 -0.179,-0.075 -0.352,-0.18 -0.517,-0.315 -0.135,-0.12 -0.26,-0.274 -0.371,-0.461 -0.113,-0.188 -0.17,-0.425 -0.17,-0.709 0,-0.57 0.136,-0.993 0.406,-1.271 0.27,-0.278 0.772,-0.417 1.507,-0.417 0.75,0 1.261,0.147 1.53,0.439 C -0.136,-3.725 0,-3.308 0,-2.768 Z m -1.936,5.962 c 1.32,0 2.288,-0.258 2.903,-0.776 C 1.582,4.669 1.89,4.02 1.89,3.24 V 2.16 -2.768 -3.421 C 1.89,-3.69 1.841,-3.987 1.743,-4.309 1.647,-4.633 1.454,-4.928 1.169,-5.198 0.885,-5.468 0.495,-5.693 0,-5.873 c -0.495,-0.18 -1.14,-0.27 -1.936,-0.27 -0.795,0 -1.44,0.09 -1.935,0.27 -0.495,0.18 -0.885,0.405 -1.171,0.675 -0.284,0.27 -0.475,0.565 -0.573,0.889 -0.097,0.322 -0.146,0.619 -0.146,0.888 v 1.058 c 0,0.57 0.146,1.087 0.439,1.553 0.292,0.464 0.708,0.795 1.249,0.99 0.27,0.09 0.577,0.194 0.922,0.314 0.345,0.121 0.679,0.236 1.002,0.349 0.322,0.113 0.603,0.214 0.843,0.304 0.24,0.09 0.39,0.142 0.451,0.158 0.06,0.029 0.138,0.071 0.235,0.123 0.097,0.053 0.192,0.132 0.282,0.237 0.09,0.104 0.169,0.224 0.236,0.36 C -0.034,2.16 0,2.317 0,2.497 V 2.925 C 0,3.074 -0.03,3.229 -0.09,3.386 -0.15,3.544 -0.255,3.69 -0.406,3.825 -0.556,3.96 -0.754,4.068 -1.001,4.151 -1.249,4.233 -1.56,4.275 -1.936,4.275 -2.686,4.275 -3.192,4.121 -3.455,3.813 -3.717,3.506 -3.849,3.135 -3.849,2.7 h -1.912 v 0.54 c 0,0.374 0.071,0.727 0.214,1.058 0.142,0.329 0.371,0.618 0.686,0.866 0.316,0.247 0.712,0.442 1.193,0.585 0.48,0.142 1.057,0.213 1.732,0.213"
             style="fill:#184b92;fill-opacity:1;fill-rule:nonzero;stroke:none"
             id="path1718"
             inkscape:connector-curvature="0" />
        </g>
        <g
           id="g1720"
           transform="matrix(0.35277777,0,0,-0.35277777,103.47925,167.45029)">
          <path
             d="M 0,0 C 0,0 0.80564491,0.00162489 1.26,-0.022 L 0.833,-1.665 c 0,0 -1.29361004,0.040071 -1.857,-0.181 -0.248,-0.104 -0.439,-0.228 -0.574,-0.371 -0.134,-0.142 -0.221,-0.292 -0.259,-0.45 -0.037,-0.157 -0.055,-0.304 -0.055,-0.438 v -0.203 -8.596 h -1.913 v 8.664 0.518 c 0,0.164 0.03,0.401 0.09,0.708 0.059,0.307 0.217,0.611 0.473,0.911 0.254,0.3 0.637,0.559 1.146,0.776 C -1.606,-0.109 -0.9,0 0,0"
             style="fill:#184b92;fill-opacity:1;fill-rule:nonzero;stroke:none"
             id="path1722"
             inkscape:connector-curvature="0"
             sodipodi:nodetypes="ccccccsccccscccc" />
        </g>
        <g
           id="g1724"
           transform="matrix(0.35277777,0,0,-0.35277777,109.13096,171.64969)">
          <path
             d="m 0,0 h -1.912 v 8.641 0.202 c 0,0.136 -0.019,0.282 -0.057,0.439 -0.038,0.158 -0.12,0.307 -0.247,0.45 -0.129,0.142 -0.315,0.262 -0.563,0.36 -0.248,0.098 -0.582,0.147 -1.001,0.147 -0.42,0 -0.762,-0.049 -1.023,-0.147 C -5.066,9.994 -5.269,9.878 -5.412,9.743 -5.554,9.608 -5.647,9.462 -5.693,9.304 -5.738,9.147 -5.76,9.008 -5.76,8.888 V 8.641 0 h -1.913 v 8.641 0.202 c 0,0.136 -0.019,0.282 -0.056,0.439 -0.037,0.158 -0.12,0.307 -0.248,0.45 -0.127,0.142 -0.314,0.262 -0.561,0.36 -0.248,0.098 -0.583,0.147 -1.003,0.147 -0.42,0 -0.76,-0.049 -1.024,-0.147 C -10.827,9.994 -11.029,9.878 -11.172,9.743 -11.315,9.608 -11.408,9.462 -11.453,9.304 -11.497,9.147 -11.52,9.008 -11.52,8.888 V 8.641 0 h -1.891 v 8.798 0.406 c 0,0.18 0.031,0.419 0.09,0.719 0.06,0.3 0.218,0.6 0.472,0.901 0.256,0.299 0.638,0.559 1.148,0.776 0.51,0.217 1.216,0.326 2.116,0.326 0.719,0 1.308,-0.072 1.766,-0.214 0.457,-0.142 0.829,-0.319 1.114,-0.528 0.285,0.209 0.656,0.386 1.114,0.528 0.457,0.142 1.046,0.214 1.767,0.214 0.899,0 1.604,-0.109 2.115,-0.326 0.509,-0.217 0.891,-0.477 1.147,-0.776 0.256,-0.301 0.413,-0.604 0.473,-0.912 C -0.03,9.604 0,9.368 0,9.204 V 8.979 Z"
             style="fill:#184b92;fill-opacity:1;fill-rule:nonzero;stroke:none"
             id="path1726"
             inkscape:connector-curvature="0" />
        </g>
        <g
           id="g1728"
           transform="matrix(0.35277777,0,0,-0.35277777,111.94094,168.60141)">
          <path
             d="m 0,0 v 0.203 c 0,0.135 -0.019,0.281 -0.056,0.438 -0.038,0.158 -0.124,0.308 -0.259,0.451 -0.134,0.142 -0.326,0.261 -0.574,0.36 -0.247,0.097 -0.574,0.146 -0.978,0.146 -0.42,0 -0.762,-0.049 -1.025,-0.146 C -3.154,1.353 -3.356,1.238 -3.499,1.102 -3.642,0.968 -3.735,0.822 -3.78,0.664 -3.825,0.506 -3.848,0.367 -3.848,0.247 V 0 -0.022 -0.202 -2.093 c 0.03,0.135 0.098,0.244 0.202,0.327 0.106,0.082 0.225,0.146 0.361,0.191 0.135,0.045 0.27,0.075 0.404,0.09 0.136,0.015 0.24,0.022 0.317,0.022 h 1.282 c 0.345,0 0.644,0.124 0.9,0.372 C -0.128,-0.844 0,-0.548 0,-0.202 v 0.18 z m -1.913,3.285 c 0.901,0 1.606,-0.109 2.116,-0.326 C 0.712,2.742 1.095,2.482 1.35,2.183 1.605,1.882 1.763,1.579 1.822,1.271 1.882,0.964 1.913,0.727 1.913,0.563 V 0 -0.022 -0.518 C 1.913,-0.773 1.864,-1.057 1.767,-1.373 1.669,-1.687 1.44,-2.025 1.08,-2.385 0.915,-2.565 0.728,-2.7 0.517,-2.79 0.308,-2.88 0.12,-2.948 -0.044,-2.992 -0.24,-3.052 -0.442,-3.083 -0.652,-3.083 h -1.71 c -0.391,0 -0.736,-0.143 -1.035,-0.427 -0.301,-0.285 -0.451,-0.638 -0.451,-1.058 V -5.58 c 0,-0.36 0.068,-0.646 0.202,-0.856 0.061,-0.105 0.128,-0.195 0.203,-0.269 0.075,-0.076 0.188,-0.143 0.338,-0.203 0.12,-0.06 0.274,-0.113 0.462,-0.157 0.187,-0.046 0.43,-0.069 0.73,-0.069 0.39,0 0.698,0.042 0.923,0.125 0.225,0.082 0.383,0.153 0.472,0.213 0.195,0.151 0.331,0.33 0.406,0.541 C -0.037,-6.046 0,-5.821 0,-5.58 h 1.913 v -0.54 c 0,-0.405 -0.086,-0.78 -0.258,-1.125 -0.174,-0.346 -0.44,-0.645 -0.8,-0.9 -0.255,-0.181 -0.607,-0.338 -1.058,-0.473 -0.449,-0.135 -1.019,-0.203 -1.71,-0.203 -0.509,0 -0.953,0.042 -1.327,0.124 -0.375,0.082 -0.702,0.188 -0.979,0.315 -0.278,0.128 -0.506,0.274 -0.686,0.439 -0.18,0.164 -0.33,0.33 -0.45,0.495 -0.27,0.39 -0.398,0.84 -0.382,1.35 V -5.58 -4.568 -0.022 0 0.563 c 0,0.18 0.029,0.42 0.089,0.719 0.06,0.3 0.218,0.6 0.473,0.901 0.255,0.299 0.638,0.559 1.148,0.776 0.509,0.217 1.215,0.326 2.114,0.326"
             style="fill:#184b92;fill-opacity:1;fill-rule:nonzero;stroke:none"
             id="path1730"
             inkscape:connector-curvature="0" />
        </g>
        <g
           id="g1732"
           transform="matrix(0.35277777,0,0,-0.35277777,114.60007,167.45029)">
          <path
             d="M 0,0 C 0.256,0 0.477,0.003 0.664,0.011 0.852,0.019 1.05,0.008 1.261,-0.022 L 0.833,-1.665 c -0.18,0 -0.33,-0.004 -0.45,-0.011 -0.121,-0.008 -0.264,-0.012 -0.428,-0.012 -0.405,0 -0.731,-0.052 -0.979,-0.158 -0.247,-0.104 -0.439,-0.228 -0.573,-0.371 -0.136,-0.142 -0.222,-0.292 -0.259,-0.45 -0.038,-0.157 -0.057,-0.304 -0.057,-0.438 v -0.203 -8.596 h -1.912 v 8.664 0.518 c 0,0.164 0.03,0.401 0.089,0.708 0.06,0.307 0.218,0.611 0.474,0.911 0.255,0.3 0.637,0.559 1.147,0.776 C -1.605,-0.109 -0.9,0 0,0"
             style="fill:#184b92;fill-opacity:1;fill-rule:nonzero;stroke:none"
             id="path1734"
             inkscape:connector-curvature="0" />
        </g>
        <path
           d="m 115.61604,167.5061 h 0.6671 v 4.14373 h -0.6671 z m 0.6671,-0.80186 h -0.6671 v -0.80151 h 0.6671 z"
           style="fill:#184b92;fill-opacity:1;fill-rule:nonzero;stroke:none;stroke-width:0.35277778"
           id="path1736"
           inkscape:connector-curvature="0" />
        <g
           id="g1738"
           transform="matrix(0.35277777,0,0,-0.35277777,119.09305,168.60141)">
          <path
             d="m 0,0 v 0.203 c 0,0.135 -0.019,0.281 -0.056,0.438 -0.037,0.158 -0.125,0.308 -0.26,0.451 -0.134,0.142 -0.325,0.261 -0.573,0.36 -0.247,0.097 -0.574,0.146 -0.979,0.146 -0.42,0 -0.761,-0.049 -1.024,-0.146 C -3.155,1.353 -3.357,1.238 -3.499,1.102 -3.642,0.968 -3.736,0.822 -3.781,0.664 -3.826,0.506 -3.848,0.367 -3.848,0.247 V 0 -0.022 -0.202 -2.093 c 0.031,0.135 0.098,0.244 0.202,0.327 0.106,0.082 0.226,0.146 0.361,0.191 0.134,0.045 0.269,0.075 0.405,0.09 0.135,0.015 0.24,0.022 0.315,0.022 h 1.282 c 0.346,0 0.645,0.124 0.9,0.372 C -0.128,-0.844 0,-0.548 0,-0.202 v 0.18 z m -1.913,3.285 c 0.9,0 1.605,-0.109 2.116,-0.326 C 0.712,2.742 1.095,2.482 1.35,2.183 1.605,1.882 1.762,1.579 1.822,1.271 1.882,0.964 1.912,0.727 1.912,0.563 V 0 -0.022 -0.518 C 1.912,-0.773 1.864,-1.057 1.766,-1.373 1.668,-1.687 1.44,-2.025 1.08,-2.385 0.915,-2.565 0.728,-2.7 0.517,-2.79 0.307,-2.88 0.12,-2.948 -0.045,-2.992 -0.24,-3.052 -0.442,-3.083 -0.652,-3.083 h -1.711 c -0.39,0 -0.735,-0.143 -1.035,-0.427 -0.3,-0.285 -0.45,-0.638 -0.45,-1.058 V -5.58 c 0,-0.36 0.067,-0.646 0.202,-0.856 0.061,-0.105 0.128,-0.195 0.204,-0.269 0.074,-0.076 0.187,-0.143 0.336,-0.203 0.121,-0.06 0.274,-0.113 0.462,-0.157 0.187,-0.046 0.43,-0.069 0.731,-0.069 0.39,0 0.698,0.042 0.923,0.125 0.224,0.082 0.382,0.153 0.472,0.213 0.194,0.151 0.331,0.33 0.405,0.541 C -0.038,-6.046 0,-5.821 0,-5.58 H 1.912 V -6.12 C 1.912,-6.525 1.826,-6.9 1.654,-7.245 1.481,-7.591 1.215,-7.89 0.855,-8.145 0.599,-8.326 0.247,-8.483 -0.203,-8.618 c -0.449,-0.135 -1.019,-0.203 -1.71,-0.203 -0.51,0 -0.953,0.042 -1.327,0.124 -0.375,0.082 -0.702,0.188 -0.979,0.315 -0.278,0.128 -0.506,0.274 -0.687,0.439 -0.18,0.164 -0.329,0.33 -0.449,0.495 -0.27,0.39 -0.398,0.84 -0.383,1.35 V -5.58 -4.568 -0.022 0 0.563 c 0,0.18 0.03,0.42 0.091,0.719 0.058,0.3 0.217,0.6 0.472,0.901 0.254,0.299 0.637,0.559 1.146,0.776 0.511,0.217 1.216,0.326 2.116,0.326"
             style="fill:#184b92;fill-opacity:1;fill-rule:nonzero;stroke:none"
             id="path1740"
             inkscape:connector-curvature="0" />
        </g>
        <g
           id="g1742"
           transform="matrix(0.35277777,0,0,-0.35277777,86.499205,176.44299)">
          <path
             d="M 0,0 H -1.155 V 5.217 5.34 c 0,0.081 -0.011,0.169 -0.034,0.264 C -1.211,5.7 -1.263,5.79 -1.345,5.877 -1.427,5.963 -1.542,6.035 -1.691,6.094 -1.84,6.153 -2.038,6.182 -2.283,6.182 -2.537,6.182 -2.743,6.153 -2.901,6.094 -3.059,6.035 -3.182,5.965 -3.267,5.883 -3.354,5.802 -3.41,5.713 -3.437,5.618 -3.464,5.523 -3.478,5.439 -3.478,5.367 V 5.217 0 h -1.156 v 5.312 0.245 c 0,0.109 0.019,0.253 0.055,0.435 0.037,0.181 0.134,0.362 0.292,0.543 0.159,0.182 0.392,0.338 0.7,0.47 0.308,0.131 0.734,0.196 1.277,0.196 0.544,0 0.969,-0.065 1.277,-0.196 0.309,-0.132 0.539,-0.288 0.694,-0.47 C -0.185,6.354 -0.09,6.171 -0.054,5.985 -0.019,5.8 0,5.657 0,5.557 V 5.421 Z"
             style="fill:#184b92;fill-opacity:1;fill-rule:nonzero;stroke:none"
             id="path1744"
             inkscape:connector-curvature="0" />
        </g>
        <g
           id="g1746"
           transform="matrix(0.35277777,0,0,-0.35277777,90.315096,175.17295)">
          <path
             d="M 0,0 C -0.019,-0.09 -0.064,-0.158 -0.136,-0.203 -0.209,-0.249 -0.276,-0.28 -0.34,-0.298 -0.476,-0.344 -0.623,-0.396 -0.782,-0.455 -0.941,-0.514 -1.088,-0.565 -1.224,-0.612 -1.386,-0.666 -1.54,-0.719 -1.685,-0.774 -1.794,-0.82 -1.898,-0.883 -1.998,-0.964 -2.079,-1.037 -2.154,-1.129 -2.222,-1.243 -2.29,-1.356 -2.324,-1.499 -2.324,-1.67 c 0,-0.345 0.082,-0.601 0.245,-0.768 0.163,-0.168 0.466,-0.252 0.91,-0.252 0.454,0 0.761,0.088 0.924,0.264 C -0.082,-2.248 0,-1.998 0,-1.67 Z m -1.169,3.601 c 0.797,0 1.381,-0.156 1.753,-0.469 C 0.955,2.82 1.141,2.428 1.141,1.957 V 1.305 -1.67 -2.065 c 0,-0.162 -0.03,-0.341 -0.089,-0.537 C 0.994,-2.796 0.878,-2.975 0.706,-3.138 0.534,-3.302 0.299,-3.437 0,-3.546 c -0.299,-0.108 -0.689,-0.163 -1.169,-0.163 -0.48,0 -0.87,0.055 -1.169,0.163 -0.299,0.109 -0.534,0.244 -0.706,0.408 -0.172,0.163 -0.287,0.342 -0.346,0.536 -0.059,0.196 -0.089,0.375 -0.089,0.537 v 0.639 c 0,0.344 0.089,0.656 0.265,0.938 0.176,0.28 0.428,0.479 0.755,0.597 0.163,0.055 0.348,0.118 0.556,0.19 0.209,0.073 0.41,0.143 0.605,0.21 0.194,0.069 0.364,0.13 0.509,0.184 0.145,0.055 0.237,0.086 0.272,0.096 0.036,0.018 0.084,0.042 0.143,0.074 0.059,0.032 0.115,0.079 0.169,0.143 0.055,0.063 0.103,0.136 0.143,0.217 C -0.021,1.305 0,1.4 0,1.509 v 0.257 c 0,0.091 -0.019,0.184 -0.054,0.28 -0.037,0.095 -0.1,0.183 -0.191,0.265 -0.091,0.081 -0.21,0.146 -0.36,0.196 -0.15,0.05 -0.337,0.075 -0.564,0.075 -0.454,0 -0.759,-0.092 -0.917,-0.278 C -2.245,2.118 -2.324,1.893 -2.324,1.63 h -1.155 v 0.327 c 0,0.227 0.043,0.439 0.129,0.639 0.087,0.199 0.225,0.374 0.415,0.523 0.19,0.149 0.429,0.267 0.72,0.354 0.289,0.085 0.639,0.128 1.046,0.128"
             style="fill:#184b92;fill-opacity:1;fill-rule:nonzero;stroke:none"
             id="path1748"
             inkscape:connector-curvature="0" />
        </g>
        <g
           id="g1750"
           transform="matrix(0.35277777,0,0,-0.35277777,94.628969,176.08358)">
          <path
             d="m 0,0 v -1.019 c -0.544,0 -0.97,0.066 -1.277,0.197 -0.308,0.131 -0.541,0.288 -0.699,0.469 -0.159,0.181 -0.257,0.364 -0.293,0.55 -0.036,0.186 -0.055,0.328 -0.055,0.428 v 0.244 4.349 h -0.869 v 0.964 h 0.869 V 7.99 h 1.156 V 6.182 H 0 V 5.218 H -1.168 V 0.978 0.856 c 0,-0.082 0.011,-0.17 0.034,-0.264 0.023,-0.096 0.074,-0.189 0.156,-0.28 0.081,-0.09 0.196,-0.165 0.346,-0.223 C -0.482,0.03 -0.285,0 -0.041,0 Z"
             style="fill:#184b92;fill-opacity:1;fill-rule:nonzero;stroke:none"
             id="path1752"
             inkscape:connector-curvature="0" />
        </g>
        <path
           d="m 97.337208,173.94112 h 0.402873 v 2.5019 h -0.402873 z m 0.402873,-0.48436 h -0.402873 v -0.48401 h 0.402873 z"
           style="fill:#184b92;fill-opacity:1;fill-rule:nonzero;stroke:none;stroke-width:0.35277778"
           id="path1754"
           inkscape:connector-curvature="0" />
        <g
           id="g1756"
           transform="matrix(0.35277777,0,0,-0.35277777,101.74711,175.77684)">
          <path
             d="m 0,0 v 3.315 0.15 C 0,3.547 -0.014,3.634 -0.041,3.73 -0.068,3.824 -0.124,3.914 -0.21,3.995 -0.296,4.077 -0.417,4.146 -0.571,4.206 -0.724,4.265 -0.932,4.294 -1.195,4.294 -1.44,4.294 -1.636,4.265 -1.786,4.206 -1.936,4.146 -2.051,4.075 -2.133,3.988 -2.215,3.902 -2.267,3.809 -2.289,3.71 -2.312,3.61 -2.324,3.524 -2.324,3.452 V 3.315 0 -0.136 c 0,-0.072 0.012,-0.159 0.035,-0.258 0.022,-0.099 0.074,-0.192 0.156,-0.278 0.082,-0.086 0.197,-0.159 0.347,-0.218 0.15,-0.059 0.346,-0.088 0.591,-0.088 0.263,0 0.471,0.029 0.624,0.088 0.154,0.059 0.275,0.129 0.361,0.211 0.086,0.082 0.142,0.17 0.169,0.265 C -0.014,-0.319 0,-0.231 0,-0.149 Z M 1.156,-0.136 V -0.353 C 1.156,-0.461 1.137,-0.607 1.1,-0.788 1.065,-0.969 0.969,-1.151 0.816,-1.332 0.661,-1.512 0.431,-1.668 0.123,-1.8 c -0.308,-0.131 -0.734,-0.198 -1.277,-0.198 -0.544,0 -0.97,0.067 -1.278,0.198 -0.308,0.132 -0.539,0.288 -0.693,0.468 -0.153,0.181 -0.249,0.365 -0.285,0.551 -0.036,0.185 -0.054,0.328 -0.054,0.428 v 0.15 3.872 c 0,0.1 0.018,0.243 0.054,0.428 0.036,0.186 0.132,0.369 0.285,0.55 0.154,0.181 0.385,0.338 0.693,0.47 0.308,0.13 0.734,0.196 1.278,0.196 0.543,0 0.969,-0.066 1.277,-0.196 C 0.431,4.985 0.661,4.828 0.816,4.647 0.969,4.466 1.065,4.285 1.1,4.104 1.137,3.922 1.156,3.777 1.156,3.669 Z"
             style="fill:#184b92;fill-opacity:1;fill-rule:nonzero;stroke:none"
             id="path1758"
             inkscape:connector-curvature="0" />
        </g>
        <g
           id="g1760"
           transform="matrix(0.35277777,0,0,-0.35277777,106.57431,176.44299)">
          <path
             d="M 0,0 H -1.156 V 5.217 5.34 c 0,0.081 -0.011,0.169 -0.033,0.264 C -1.212,5.7 -1.264,5.79 -1.346,5.877 -1.427,5.963 -1.542,6.035 -1.692,6.094 -1.841,6.153 -2.039,6.182 -2.283,6.182 -2.537,6.182 -2.743,6.153 -2.901,6.094 -3.06,6.035 -3.182,5.965 -3.268,5.883 -3.354,5.802 -3.411,5.713 -3.438,5.618 -3.466,5.523 -3.479,5.439 -3.479,5.367 V 5.217 0 h -1.155 v 5.312 0.245 c 0,0.109 0.018,0.253 0.055,0.435 0.035,0.181 0.133,0.362 0.292,0.543 0.158,0.182 0.391,0.338 0.699,0.47 0.309,0.131 0.734,0.196 1.278,0.196 0.543,0 0.969,-0.065 1.277,-0.196 0.308,-0.132 0.539,-0.288 0.693,-0.47 0.154,-0.181 0.25,-0.364 0.285,-0.55 C -0.019,5.8 0,5.657 0,5.557 V 5.421 Z"
             style="fill:#184b92;fill-opacity:1;fill-rule:nonzero;stroke:none"
             id="path1762"
             inkscape:connector-curvature="0" />
        </g>
        <g
           id="g1764"
           transform="matrix(0.35277777,0,0,-0.35277777,110.5861,175.17295)">
          <path
             d="m 0,0 c -0.018,-0.09 -0.062,-0.158 -0.136,-0.203 -0.071,-0.046 -0.139,-0.077 -0.203,-0.095 -0.136,-0.046 -0.283,-0.098 -0.442,-0.157 -0.158,-0.059 -0.306,-0.11 -0.441,-0.157 -0.163,-0.054 -0.317,-0.107 -0.463,-0.162 -0.108,-0.046 -0.212,-0.109 -0.312,-0.19 -0.081,-0.073 -0.157,-0.165 -0.224,-0.279 -0.068,-0.113 -0.102,-0.256 -0.102,-0.427 0,-0.345 0.082,-0.601 0.245,-0.768 0.164,-0.168 0.467,-0.252 0.91,-0.252 0.453,0 0.761,0.088 0.925,0.264 C -0.081,-2.248 0,-1.998 0,-1.67 Z m -1.168,3.601 c 0.797,0 1.382,-0.156 1.754,-0.469 C 0.956,2.82 1.142,2.428 1.142,1.957 V 1.305 -1.67 -2.065 c 0,-0.162 -0.03,-0.341 -0.088,-0.537 C 0.995,-2.796 0.88,-2.975 0.708,-3.138 0.535,-3.302 0.3,-3.437 0,-3.546 c -0.298,-0.108 -0.687,-0.163 -1.168,-0.163 -0.48,0 -0.869,0.055 -1.168,0.163 -0.3,0.109 -0.535,0.244 -0.707,0.408 -0.172,0.163 -0.287,0.342 -0.346,0.536 -0.059,0.196 -0.089,0.375 -0.089,0.537 v 0.639 c 0,0.344 0.089,0.656 0.265,0.938 0.177,0.28 0.428,0.479 0.754,0.597 0.163,0.055 0.349,0.118 0.557,0.19 0.209,0.073 0.411,0.143 0.605,0.21 0.195,0.069 0.364,0.13 0.51,0.184 0.144,0.055 0.235,0.086 0.271,0.096 0.036,0.018 0.084,0.042 0.143,0.074 0.059,0.032 0.116,0.079 0.17,0.143 0.054,0.063 0.102,0.136 0.142,0.217 C -0.019,1.305 0,1.4 0,1.509 v 0.257 c 0,0.091 -0.018,0.184 -0.054,0.28 -0.035,0.095 -0.099,0.183 -0.189,0.265 -0.092,0.081 -0.212,0.146 -0.361,0.196 -0.15,0.05 -0.338,0.075 -0.564,0.075 -0.453,0 -0.759,-0.092 -0.917,-0.278 C -2.244,2.118 -2.323,1.893 -2.323,1.63 h -1.155 v 0.327 c 0,0.227 0.043,0.439 0.129,0.639 0.087,0.199 0.224,0.374 0.415,0.523 0.191,0.149 0.43,0.267 0.72,0.354 0.29,0.085 0.639,0.128 1.046,0.128"
             style="fill:#184b92;fill-opacity:1;fill-rule:nonzero;stroke:none"
             id="path1766"
             inkscape:connector-curvature="0" />
        </g>
        <path
           d="m 113.89871,172.96781 h 0.40288 v 3.47521 h -0.40288 z"
           style="fill:#184b92;fill-opacity:1;fill-rule:nonzero;stroke:none;stroke-width:0.35277778"
           id="path1768"
           inkscape:connector-curvature="0" />
        <g
           id="g1770"
           transform="matrix(0.35277777,0,0,-0.35277777,118.3133,174.60251)">
          <path
             d="m 0,0 v 0.123 c 0,0.081 -0.011,0.169 -0.034,0.264 -0.023,0.096 -0.075,0.186 -0.156,0.272 -0.082,0.087 -0.197,0.159 -0.346,0.218 -0.15,0.059 -0.348,0.088 -0.591,0.088 -0.254,0 -0.46,-0.029 -0.619,-0.088 C -1.905,0.818 -2.027,0.748 -2.113,0.666 -2.199,0.585 -2.256,0.496 -2.283,0.401 -2.31,0.306 -2.323,0.222 -2.323,0.149 V 0 -0.014 -0.122 -1.264 c 0.018,0.082 0.059,0.148 0.122,0.198 0.064,0.049 0.135,0.088 0.217,0.115 0.082,0.027 0.163,0.046 0.245,0.055 0.081,0.009 0.145,0.013 0.191,0.013 h 0.774 c 0.208,0 0.389,0.075 0.543,0.224 C -0.077,-0.509 0,-0.33 0,-0.122 v 0.108 z m -1.155,1.984 c 0.543,0 0.969,-0.065 1.277,-0.196 C 0.43,1.656 0.661,1.5 0.815,1.318 0.969,1.137 1.064,0.954 1.101,0.768 1.137,0.583 1.156,0.44 1.156,0.34 V 0 -0.014 -0.312 c 0,-0.154 -0.03,-0.326 -0.089,-0.516 C 1.009,-1.019 0.87,-1.222 0.652,-1.44 0.553,-1.548 0.44,-1.63 0.312,-1.685 0.186,-1.739 0.073,-1.78 -0.027,-1.807 -0.146,-1.844 -0.267,-1.861 -0.393,-1.861 h -1.033 c -0.236,0 -0.445,-0.087 -0.625,-0.259 -0.182,-0.171 -0.272,-0.385 -0.272,-0.638 v -0.611 c 0,-0.218 0.04,-0.39 0.122,-0.517 0.037,-0.063 0.077,-0.117 0.122,-0.163 0.045,-0.045 0.113,-0.086 0.204,-0.122 0.073,-0.036 0.165,-0.068 0.278,-0.095 0.114,-0.027 0.261,-0.041 0.442,-0.041 0.236,0 0.421,0.025 0.557,0.074 0.136,0.05 0.231,0.094 0.286,0.13 0.118,0.091 0.199,0.198 0.244,0.326 C -0.022,-3.651 0,-3.514 0,-3.369 H 1.156 V -3.695 C 1.156,-3.94 1.103,-4.166 0.999,-4.375 0.894,-4.583 0.733,-4.764 0.516,-4.918 0.363,-5.027 0.149,-5.122 -0.122,-5.203 c -0.271,-0.082 -0.615,-0.123 -1.033,-0.123 -0.308,0 -0.575,0.025 -0.802,0.075 -0.226,0.049 -0.423,0.113 -0.591,0.19 -0.168,0.077 -0.305,0.165 -0.414,0.265 -0.109,0.1 -0.199,0.199 -0.271,0.299 -0.164,0.236 -0.241,0.507 -0.232,0.815 v 0.313 0.611 2.744 V 0 0.34 c 0,0.109 0.018,0.253 0.055,0.435 0.035,0.181 0.131,0.362 0.285,0.543 0.154,0.182 0.385,0.338 0.693,0.47 0.308,0.131 0.733,0.196 1.277,0.196"
             style="fill:#184b92;fill-opacity:1;fill-rule:nonzero;stroke:none"
             id="path1772"
             inkscape:connector-curvature="0" />
        </g>
      </g>
      <g
         transform="matrix(0.35277777,0,0,-0.35277777,-83.140371,277.74351)"
         id="g1774">
        <g
           clip-path="url(#clipPath1780)"
           id="g1776">
          <g
             transform="translate(468.2315,312.6554)"
             id="g1782">
            <path
               inkscape:connector-curvature="0"
               id="path1784"
               style="fill:#184b92;fill-opacity:1;fill-rule:nonzero;stroke:none"
               d="m 0,0 c 0.613,-9.017 3.42,-12.12 3.42,-12.12 h -14.838 c 0,0 -3.095,1.468 -3.981,12.12 z" />
          </g>
          <g
             transform="translate(595.2343,312.6554)"
             id="g1786">
            <path
               inkscape:connector-curvature="0"
               id="path1788"
               style="fill:#d91920;fill-opacity:1;fill-rule:nonzero;stroke:none"
               d="m 0,0 c 0.613,-9.017 3.419,-12.12 3.419,-12.12 h -14.837 c 0,0 -3.095,1.468 -3.981,12.12 z" />
          </g>
        </g>
      </g>
    </g>
  </g>
</svg>
