<svg width="131" height="131" viewBox="0 0 131 131" fill="none" xmlns="http://www.w3.org/2000/svg">
<path d="M76.0973 1.39595C75.5603 0.868017 74.6897 0.868017 74.1527 1.39595L54.9027 20.3219L54.7883 20.4492C54.3689 20.9795 54.4071 21.7464 54.9027 22.2337C55.4397 22.7616 56.3103 22.7616 56.8473 22.2337L76.0973 3.30776L76.2117 3.1804C76.6311 2.65008 76.5929 1.88327 76.0973 1.39595Z" fill="#000091"/>
<path d="M82.8042 3.95887C82.2773 3.58463 81.5429 3.62205 81.0576 4.07114L66.35 17.6806L66.2317 17.8045C65.7962 18.3221 65.8106 19.0897 66.2911 19.5915L66.4171 19.7078C66.9435 20.136 67.7243 20.1218 68.2347 19.6494L81.9986 6.91165L104.036 27.3022L104.211 27.4517C104.696 27.8294 105.298 28.037 105.92 28.037H119.125L119.285 28.0279C119.969 27.9499 120.5 27.3785 120.5 26.6852C120.5 25.9386 119.884 25.3333 119.125 25.3333H105.92L82.9424 4.07114L82.8042 3.95887Z" fill="#000091"/>
<path d="M124.625 25.3333C123.92 25.3333 123.339 25.8552 123.259 26.5275L123.25 26.6852V71.2963H110.875C110.17 71.2963 109.589 71.8182 109.509 72.4905L109.5 72.6482C109.5 73.3414 110.031 73.9128 110.715 73.9909L110.875 74H124.625C125.33 74 125.911 73.4781 125.991 72.8058L126 72.6482V26.6852C126 25.9386 125.384 25.3333 124.625 25.3333Z" fill="#000091"/>
<path fill-rule="evenodd" clip-rule="evenodd" d="M98.5 67.2407C98.5 66.4941 97.8844 65.8889 97.125 65.8889H93V45.6111L92.9907 45.4535C92.9113 44.7811 92.3302 44.2593 91.625 44.2593H72.375L72.2146 44.2684C71.5308 44.3464 71 44.9178 71 45.6111V46.5V53.5646H79.25C80.4388 53.5646 87 54.3067 87 55C87 55.7466 84.75 64.5 83.5354 68.5835L97.125 68.5926L97.2854 68.5835C97.9692 68.5054 98.5 67.934 98.5 67.2407ZM83.375 53.7222L87.5 54.5V65.8889H90.25V46.9616H73.75V53.5646L78 51.5L80.625 53.7222C80.625 52.9756 81.2406 52.3704 82 52.3704C82.7052 52.3704 83.2863 52.8922 83.3657 53.5646L83.375 53.7222Z" fill="#000091"/>
<path d="M83.375 25.3333C84.1344 25.3333 84.75 25.9386 84.75 26.6852C84.75 27.3785 84.2192 27.9499 83.5354 28.0279L83.375 28.037H80.625C79.9198 28.037 79.3387 27.5152 79.2592 26.8428C79.2531 26.7911 79.25 26.7385 79.25 26.6852V23.9815C79.25 23.2349 79.8656 22.6296 80.625 22.6296C81.3302 22.6296 81.9113 23.1515 81.9907 23.8238L82 23.9815V25.3333H83.375Z" fill="#000091"/>
<path fill-rule="evenodd" clip-rule="evenodd" d="M73.75 25.3333C73.75 20.8537 77.4436 17.2222 82 17.2222C86.5564 17.2222 90.25 20.8537 90.25 25.3333C90.25 29.813 86.5564 33.4444 82 33.4444C77.4436 33.4444 73.75 29.813 73.75 25.3333ZM82 19.9259C85.0376 19.9259 87.5 22.3469 87.5 25.3333C87.5 28.3198 85.0376 30.7407 82 30.7407C78.9624 30.7407 76.5 28.3198 76.5 25.3333C76.5 22.3469 78.9624 19.9259 82 19.9259Z" fill="#000091"/>
<path d="M90.25 40.2037C90.25 39.4571 89.6344 38.8519 88.875 38.8519H75.125L74.9646 38.8609C74.2808 38.939 73.75 39.5104 73.75 40.2037C73.75 40.9503 74.3656 41.5556 75.125 41.5556H88.875L89.0354 41.5465C89.7192 41.4684 90.25 40.897 90.25 40.2037Z" fill="#000091"/>
<path d="M104 72.6482C104 71.9015 103.384 71.2963 102.625 71.2963H92.375L92.2146 71.3054C91.5308 71.3835 91 71.9549 91 72.6482C91 73.3948 91.6156 74 92.375 74H102.625L102.785 73.9909C103.469 73.9128 104 73.3414 104 72.6482Z" fill="#000091"/>
<path d="M60.4027 23.0256C60.9397 22.4976 61.8103 22.4976 62.3473 23.0256C62.8429 23.5129 62.8811 24.2797 62.4617 24.81L62.3473 24.9374L59.5973 27.6411C59.3824 27.8524 59.1037 27.9865 58.8057 28.0253L58.625 28.037H40.75V41.2407C40.75 41.934 40.2192 42.5054 39.5354 42.5835L39.375 42.5926C38.6699 42.5926 38.0887 42.0707 38.0093 41.3984L38 41.2407V26.6852C38 25.9919 38.5308 25.4205 39.2146 25.3424L39.375 25.3333H58.053L60.4027 23.0256Z" fill="#000091"/>
<path d="M119.125 19.9259C119.884 19.9259 120.5 20.5312 120.5 21.2778C120.5 21.9711 119.969 22.5424 119.285 22.6205L119.125 22.6296H108.125C107.366 22.6296 106.75 22.0244 106.75 21.2778C106.75 20.5845 107.281 20.0131 107.965 19.935L108.125 19.9259H119.125Z" fill="#000091"/>
<path d="M124.625 22.6296C125.384 22.6296 126 22.0244 126 21.2778C126 20.5312 125.384 19.9259 124.625 19.9259C123.866 19.9259 123.25 20.5312 123.25 21.2778C123.25 22.0244 123.866 22.6296 124.625 22.6296Z" fill="#000091"/>
<rect x="29" y="41" width="35" height="12" stroke="#000091" stroke-width="4" stroke-linecap="round" stroke-linejoin="round"/>
<rect x="38" y="71" width="15" height="9" stroke="#000091" stroke-width="4" stroke-linecap="round" stroke-linejoin="round"/>
<path d="M54.6724 76L86 65.1765V53H7V65.1765L37.6466 76" stroke="#000091" stroke-width="5" stroke-linecap="round" stroke-linejoin="round"/>
<path d="M11 68V102H82V68" stroke="#000091" stroke-width="5" stroke-linecap="round" stroke-linejoin="round"/>
<path fill-rule="evenodd" clip-rule="evenodd" d="M129.862 113.519C131.29 112.658 131.374 110.648 130.114 109.652L129.862 109.477L106.425 95.3362C106.007 95.0843 105.543 94.9784 105.091 95.0036L83.2733 94.9878L83 95.0036C81.8344 95.1398 80.9296 96.136 80.9296 97.3446C80.9296 98.6463 81.9789 99.7015 83.2733 99.7015L104.575 99.7174L112.251 104.349C112.25 104.376 112.25 104.403 112.25 104.431L112.25 118.572L112.254 118.648L107.562 121.48L107.562 111.498C107.562 110.29 106.658 109.294 105.492 109.157L105.219 109.142C104.017 109.142 103.026 110.051 102.891 111.224L102.875 111.498L102.875 123.286L58.3437 123.286L58.0704 123.302C56.9048 123.438 56 124.434 56 125.643C56 126.944 57.0493 128 58.3437 128L105.183 128C105.319 128.002 105.457 127.992 105.594 127.97C105.935 127.914 106.251 127.786 106.525 127.6L129.862 113.519ZM116.937 115.822L116.937 107.176L124.102 111.498L116.937 115.822Z" fill="#000091"/>
<path d="M98.1875 111.502C98.1875 112.71 97.2827 113.707 96.1171 113.843L95.8437 113.859L58.3437 113.859C57.0493 113.859 56 112.803 56 111.502C56 110.293 56.9048 109.297 58.0704 109.161L58.3437 109.145L95.8437 109.145C97.1382 109.145 98.1875 110.2 98.1875 111.502Z" fill="#000091"/>
</svg>
