<svg width="131" height="131" viewBox="0 0 131 131" fill="none" xmlns="http://www.w3.org/2000/svg">
<path d="M76.0973 0.395948C75.5603 -0.131983 74.6897 -0.131983 74.1527 0.395948L54.9027 19.3219L54.7883 19.4492C54.3689 19.9795 54.4071 20.7464 54.9027 21.2337C55.4397 21.7616 56.3103 21.7616 56.8473 21.2337L76.0973 2.30776L76.2117 2.1804C76.6311 1.65008 76.5929 0.883269 76.0973 0.395948Z" fill="#000091"/>
<path d="M82.8042 2.95887C82.2773 2.58463 81.5429 2.62205 81.0576 3.07114L66.35 16.6806L66.2317 16.8045C65.7962 17.3221 65.8106 18.0897 66.2911 18.5915L66.4171 18.7078C66.9435 19.136 67.7243 19.1218 68.2347 18.6494L81.9986 5.91165L104.036 26.3022L104.211 26.4517C104.696 26.8294 105.298 27.037 105.92 27.037H119.125L119.285 27.0279C119.969 26.9499 120.5 26.3785 120.5 25.6852C120.5 24.9386 119.884 24.3333 119.125 24.3333H105.92L82.9424 3.07114L82.8042 2.95887Z" fill="#000091"/>
<path d="M124.625 24.3333C123.92 24.3333 123.339 24.8552 123.259 25.5275L123.25 25.6852V70.2963H110.875C110.17 70.2963 109.589 70.8182 109.509 71.4905L109.5 71.6482C109.5 72.3414 110.031 72.9128 110.715 72.9909L110.875 73H124.625C125.33 73 125.911 72.4781 125.991 71.8058L126 71.6482V25.6852C126 24.9386 125.384 24.3333 124.625 24.3333Z" fill="#000091"/>
<path fill-rule="evenodd" clip-rule="evenodd" d="M98.5 66.2407C98.5 65.4941 97.8844 64.8889 97.125 64.8889H93V44.6111L92.9907 44.4535C92.9113 43.7811 92.3302 43.2593 91.625 43.2593H72.375L72.2146 43.2684C71.5308 43.3464 71 43.9178 71 44.6111V45.5L76 48.5L79.25 52.5646C82.5 54.5 85.5 58.3067 85.5 59C85.5 59.7466 87.1604 62.8428 89.0354 67.5835L97.125 67.5926L97.2854 67.5835C97.9692 67.5054 98.5 66.934 98.5 66.2407ZM83.375 52.7222L87.5 60.5L90.25 64.8889V45.9616H73.75L78 48V50.5L80.625 52.7222C80.625 51.9756 81.2406 51.3704 82 51.3704C82.7052 51.3704 83.2863 51.8922 83.3657 52.5646L83.375 52.7222Z" fill="#000091"/>
<path d="M83.375 24.3333C84.1344 24.3333 84.75 24.9386 84.75 25.6852C84.75 26.3785 84.2192 26.9499 83.5354 27.0279L83.375 27.037H80.625C79.9198 27.037 79.3387 26.5152 79.2592 25.8428C79.2531 25.7911 79.25 25.7385 79.25 25.6852V22.9815C79.25 22.2349 79.8656 21.6296 80.625 21.6296C81.3302 21.6296 81.9113 22.1515 81.9907 22.8238L82 22.9815V24.3333H83.375Z" fill="#000091"/>
<path fill-rule="evenodd" clip-rule="evenodd" d="M73.75 24.3333C73.75 19.8537 77.4436 16.2222 82 16.2222C86.5564 16.2222 90.25 19.8537 90.25 24.3333C90.25 28.813 86.5564 32.4444 82 32.4444C77.4436 32.4444 73.75 28.813 73.75 24.3333ZM82 18.9259C85.0376 18.9259 87.5 21.3469 87.5 24.3333C87.5 27.3198 85.0376 29.7407 82 29.7407C78.9624 29.7407 76.5 27.3198 76.5 24.3333C76.5 21.3469 78.9624 18.9259 82 18.9259Z" fill="#000091"/>
<path d="M90.25 39.2037C90.25 38.4571 89.6344 37.8519 88.875 37.8519H75.125L74.9646 37.8609C74.2808 37.939 73.75 38.5104 73.75 39.2037C73.75 39.9503 74.3656 40.5556 75.125 40.5556H88.875L89.0354 40.5465C89.7192 40.4684 90.25 39.897 90.25 39.2037Z" fill="#000091"/>
<path d="M104 71.6482C104 70.9015 103.384 70.2963 102.625 70.2963H92.375L92.2146 70.3054C91.5308 70.3835 91 70.9549 91 71.6482C91 72.3948 91.6156 73 92.375 73H102.625L102.785 72.9909C103.469 72.9128 104 72.3414 104 71.6482Z" fill="#000091"/>
<path d="M60.4027 22.0256C60.9397 21.4976 61.8103 21.4976 62.3473 22.0256C62.8429 22.5129 62.8811 23.2797 62.4617 23.81L62.3473 23.9374L59.5973 26.6411C59.3824 26.8524 59.1037 26.9865 58.8057 27.0253L58.625 27.037H40.75V40.2407C40.75 40.934 40.2192 41.5054 39.5354 41.5835L39.375 41.5926C38.6699 41.5926 38.0887 41.0707 38.0093 40.3984L38 40.2407V25.6852C38 24.9919 38.5308 24.4205 39.2146 24.3424L39.375 24.3333H58.053L60.4027 22.0256Z" fill="#000091"/>
<path d="M119.125 18.9259C119.884 18.9259 120.5 19.5312 120.5 20.2778C120.5 20.9711 119.969 21.5424 119.285 21.6205L119.125 21.6296H108.125C107.366 21.6296 106.75 21.0244 106.75 20.2778C106.75 19.5845 107.281 19.0131 107.965 18.935L108.125 18.9259H119.125Z" fill="#000091"/>
<path d="M124.625 21.6296C125.384 21.6296 126 21.0244 126 20.2778C126 19.5312 125.384 18.9259 124.625 18.9259C123.866 18.9259 123.25 19.5312 123.25 20.2778C123.25 21.0244 123.866 21.6296 124.625 21.6296Z" fill="#000091"/>
<path fill-rule="evenodd" clip-rule="evenodd" d="M50.375 122C72.6735 122 90.75 103.924 90.75 81.625C90.75 59.3265 72.6735 41.25 50.375 41.25C28.0765 41.25 10 59.3265 10 81.625C10 103.924 28.0765 122 50.375 122ZM50.375 127C75.4349 127 95.75 106.685 95.75 81.625C95.75 56.5651 75.4349 36.25 50.375 36.25C25.3151 36.25 5 56.5651 5 81.625C5 106.685 25.3151 127 50.375 127Z" fill="#000091"/>
<path fill-rule="evenodd" clip-rule="evenodd" d="M53.6172 48.2949C54.7218 48.2949 55.6172 49.1904 55.6172 50.2949V68.6501C55.6172 69.1781 55.7412 69.9484 56.0276 70.5076C56.1618 70.7698 56.2925 70.9087 56.3867 70.9771C56.457 71.0281 56.5576 71.0806 56.7682 71.0806H58.8197L57.8654 108.652L57.8577 108.727C57.8066 109.23 57.8718 109.936 58.1073 110.423C58.2121 110.64 58.3211 110.754 58.413 110.816C58.4914 110.869 58.6581 110.956 59.019 110.956V114.956C57.9394 114.956 56.9732 114.673 56.1673 114.126C55.3748 113.588 54.8479 112.871 54.5063 112.165C53.8674 110.844 53.7836 109.38 53.8703 108.405L54.7282 74.6302C53.6539 74.1105 52.9193 73.2135 52.4672 72.3308C51.8083 71.0439 51.6172 69.5989 51.6172 68.6501V50.2949C51.6172 49.1904 52.5126 48.2949 53.6172 48.2949Z" fill="#000091"/>
<path fill-rule="evenodd" clip-rule="evenodd" d="M65.5 48.2949C64.3954 48.2949 63.5 49.1904 63.5 50.2949V68.6501C63.5 69.1259 63.3641 69.8443 63.0397 70.3721C62.8907 70.6146 62.7261 70.7787 62.5511 70.8844C62.3866 70.9839 62.134 71.0806 61.7188 71.0806H59.6569L60.8028 108.677L60.8138 108.767C60.8682 109.213 60.7984 109.85 60.5426 110.29C60.4314 110.482 60.2932 110.625 60.1082 110.73C59.9217 110.835 59.5913 110.956 59.0179 110.956C57.9133 110.956 57.0179 111.851 57.0179 112.956C57.0179 114.06 57.9133 114.956 59.0179 114.956C61.4348 114.956 63.0966 113.859 64.0022 112.298C64.7919 110.937 64.9035 109.414 64.7957 108.383L63.7697 74.7217C64.9795 74.2642 65.8632 73.4176 66.4478 72.4663C67.2578 71.148 67.5 69.6511 67.5 68.6501V50.2949C67.5 49.1904 66.6046 48.2949 65.5 48.2949Z" fill="#000091"/>
<path fill-rule="evenodd" clip-rule="evenodd" d="M59.0176 48.7949C59.846 48.7949 60.5176 49.4665 60.5176 50.2949L60.5176 67.5806C60.5176 68.4091 59.846 69.0806 59.0176 69.0806C58.1892 69.0806 57.5176 68.4091 57.5176 67.5806L57.5176 50.2949C57.5176 49.4665 58.1892 48.7949 59.0176 48.7949Z" fill="#000091"/>
<path fill-rule="evenodd" clip-rule="evenodd" d="M35.6201 49.5054C36.3966 49.2105 37.2746 49.4263 37.826 50.0476C44.6575 57.7454 47.0572 64.3274 46.9707 69.6021C46.8952 74.2057 44.9228 77.6049 42.729 79.5955L46.3271 107.725C46.328 107.732 46.3288 107.739 46.3296 107.746C46.3304 107.752 46.3311 107.759 46.3318 107.766C46.4478 108.846 46.3634 110.512 45.6034 111.999C45.2089 112.771 44.6117 113.532 43.7361 114.094C42.8522 114.662 41.7955 114.955 40.6038 114.955C38.1052 114.955 36.4357 113.681 35.4838 112.141C34.5978 110.708 34.3301 109.073 34.3301 107.979V51.3751C34.3301 50.5444 34.8435 49.8002 35.6201 49.5054ZM38.3301 57.1055V107.979C38.3301 108.544 38.4898 109.397 38.8859 110.038C39.216 110.571 39.6834 110.955 40.6038 110.955C41.1215 110.955 41.4093 110.835 41.5749 110.728C41.7488 110.617 41.9062 110.444 42.0415 110.179C42.3379 109.599 42.4152 108.788 42.3565 108.21L38.6199 78.9979C38.5262 78.2648 38.8443 77.5398 39.4473 77.1124C40.996 76.0147 42.9064 73.4882 42.9712 69.5365C43.0223 66.426 41.9274 62.2629 38.3301 57.1055Z" fill="#000091"/>
</svg>
