<svg width="131" height="131" viewBox="0 0 131 131" fill="none" xmlns="http://www.w3.org/2000/svg">
<path d="M19.5 23C19.5 20.2386 21.7386 18 24.5 18H34.5C37.2614 18 39.5 20.2394 39.5 23.0009C39.5 28.362 39.5 32.638 39.5 37.9991C39.5 40.7606 37.2614 43 34.5 43H24.5C21.7386 43 19.5 40.7614 19.5 38V23Z" stroke="#000091" stroke-width="3"/>
<path fill-rule="evenodd" clip-rule="evenodd" d="M7 13C7 9.41015 9.91015 6.5 13.5 6.5H86.5C90.0936 6.5 93 9.42354 93 13.0096V13.2358V13.4616V13.6871V13.9123V14.1371V14.3616V14.5858V14.8096V15.0331V15.2563V15.4791V15.7016V15.9238V16.1457V16.3672V16.5884V16.8093V17.0299V17.2502V17.4701V17.6897V17.9091V18.1281V18.3468V18.5652V18.7832V19.001V19.2185V19.4356V19.6525V19.8691V20.0853V20.3013V20.5169V20.7323V20.9474V21.1622V21.3767V21.5909V21.8048V22.0184V22.2317V22.4448V22.6575V22.87V23.0822V23.2941V23.5058V23.7171V23.9282V24.139V24.3496V24.5599V24.7699V24.9796V25.189V25.3982V25.6072V25.8158V26.0242V26.2324V26.4403V26.6479V26.8553V27.0624V27.2692V27.4758V27.6822V27.8883V28.0941V28.2997V28.5051V28.7102V28.9151V29.1197V29.3241V29.5282V29.7321V29.9358V30.1392V30.3424V30.5454V30.7481V30.9506V31.1529V31.3549V31.5567V31.7583V31.9597V32.1608V32.3618V32.5625V32.763V32.9632V33.1633V33.3631V33.5627V33.7621V33.9613V34.1603V34.3591V34.5577V34.7561V34.9542V35.1522V35.35V35.5475V35.7449V35.9421V36.139V36.3358V36.5324V36.7288V36.925V37.121V37.3168V37.5125V37.7079V37.9032V38.0983V38.2932V38.4879V38.6825V38.8768V39.071V39.265V39.4589V39.6526V39.8461V40.0394V40.2326V40.4256V40.6184V40.8111V41H90V40.8111V40.6184V40.4256V40.2326V40.0394V39.8461V39.6526V39.4589V39.265V39.071V38.8768V38.6825V38.4879V38.2932V38.0983V37.9032V37.7079V37.5125V37.3168V37.121V36.925V36.7288V36.5324V36.3358V36.139V35.9421V35.7449V35.5475V35.35V35.1522V34.9542V34.7561V34.5577V34.3591V34.1603V33.9613V33.7621V33.5627V33.3631V33.1633V32.9632V32.763V32.5625V32.3618V32.1608V31.9597V31.7583V31.5567V31.3549V31.1529V30.9506V30.7481V30.5454V30.3424V30.1392V29.9358V29.7321V29.5282V29.3241V29.1197V28.9151V28.7102V28.5051V28.2997V28.0941V27.8883V27.6822V27.4758V27.2692V27.0624V26.8553V26.6479V26.4403V26.2324V26.0242V25.8158V25.6072V25.3982V25.189V24.9796V24.7699V24.5599V24.3496V24.139V23.9282V23.7171V23.5058V23.2941V23.0822V22.87V22.6575V22.4448V22.2317V22.0184V21.8048V21.5909V21.3767V21.1622V20.9474V20.7323V20.5169V20.3013V20.0853V19.8691V19.6525V19.4356V19.2185V19.001V18.7832V18.5652V18.3468V18.1281V17.9091V17.6897V17.4701V17.2502V17.0299V16.8093V16.5884V16.3672V16.1457V15.9238V15.7016V15.4791V15.2563V15.0331V14.8096V14.5858V14.3616V14.1371V13.9123V13.6871V13.4616V13.2358V13.0096C90 11.0729 88.4292 9.5 86.5 9.5H13.5C11.567 9.5 10 11.067 10 13V114C10 115.933 11.567 117.5 13.5 117.5H86.5C88.4292 117.5 90 115.927 90 113.99V113.764V113.538V113.313V113.088V112.863V112.638V112.414V112.19V111.967V111.744V111.521V111.298V111.076V110.854V110.633V110.412V110.191V109.97V109.75V109.53V109.31V109.091V108.872V108.653V108.435V108.217V107.999V107.782V107.564V107.348V107.131V106.915V106.699V106.483V106.268V106.053V105.838V105.623V105.409V105.195V104.982V104.768V104.555V104.342V104.13V103.918V103.706V103.494V103.283V103.072V102.861V102.65V102.44V102.23V102.02V101.811V101.602V101.393V101.184V100.976V100.768V100.56V100.352V100.145V99.9376V99.7308V99.5242V99.3178V99.1117V98.9059V98.7003V98.4949V98.2898V98.0849V98H93V98.0849V98.2898V98.4949V98.7003V98.9059V99.1117V99.3178V99.5242V99.7308V99.9376V100.145V100.352V100.56V100.768V100.976V101.184V101.393V101.602V101.811V102.02V102.23V102.44V102.65V102.861V103.072V103.283V103.494V103.706V103.918V104.13V104.342V104.555V104.768V104.982V105.195V105.409V105.623V105.838V106.053V106.268V106.483V106.699V106.915V107.131V107.348V107.564V107.782V107.999V108.217V108.435V108.653V108.872V109.091V109.31V109.53V109.75V109.97V110.191V110.412V110.633V110.854V111.076V111.298V111.521V111.744V111.967V112.19V112.414V112.638V112.863V113.088V113.313V113.538V113.764V113.99C93 117.576 90.0936 120.5 86.5 120.5H13.5C9.91015 120.5 7 117.59 7 114V13ZM90 54V54.1545V54.3388V54.5231V54.7074V54.8915V55.0756V55.2597V55.4437V55.6276V55.8115V55.9953V56H93V55.9953V55.8115V55.6276V55.4437V55.2597V55.0756V54.8915V54.7074V54.5231V54.3388V54.1545V54H90Z" fill="#000091"/>
<path fill-rule="evenodd" clip-rule="evenodd" d="M15 119V122C15 125.59 17.9102 128.5 21.5 128.5H94.5C98.0899 128.5 101 125.59 101 122V99H98V122C98 123.933 96.433 125.5 94.5 125.5H21.5C19.567 125.5 18 123.933 18 122V119H15ZM101 55V56H98V55H101ZM101 41V21C101 17.4101 98.0899 14.5 94.5 14.5H91.5V17.5H94.5C96.433 17.5 98 19.067 98 21V41H101Z" fill="#000091"/>
<path d="M19.5 52.5H45.5M19.5 60.5H45.5" stroke="#000091" stroke-width="3" stroke-linecap="round"/>
<path d="M53 23H79M53 31H79" stroke="#000091" stroke-width="3" stroke-linecap="round"/>
<path d="M19.5 72H45.5M19.5 80H45.5" stroke="#000091" stroke-width="3" stroke-linecap="round"/>
<path d="M19.5 91H45.5M19.5 99H45.5" stroke="#000091" stroke-width="3" stroke-linecap="round"/>
<path d="M30 109.5H82" stroke="#000091" stroke-width="3" stroke-linecap="round"/>
<path d="M29.5 33C32.5376 33 35 30.5376 35 27.5C35 24.4624 32.5376 22 29.5 22C26.4624 22 24 24.4624 24 27.5C24 30.5376 26.4624 33 29.5 33Z" stroke="#000091" stroke-width="3" stroke-miterlimit="10" stroke-linecap="round"/>
<path d="M27.5 32.5C27.5 32.5 20.5 33 20 39.8907" stroke="#000091" stroke-width="2" stroke-miterlimit="10" stroke-linecap="round"/>
<path d="M32.5008 32C32.5008 32 39.5 33.5 38.8699 39.8907" stroke="#000091" stroke-width="2" stroke-miterlimit="10" stroke-linecap="round"/>
<rect x="56" y="54" width="68" height="42" stroke="#000091" stroke-width="6" stroke-linecap="round" stroke-linejoin="round"/>
<rect x="73" y="40" width="33" height="14" stroke="#000091" stroke-width="4" stroke-linecap="round" stroke-linejoin="round"/>
<rect x="73" y="47" width="33" height="7" stroke="#000091" stroke-width="4" stroke-linecap="round" stroke-linejoin="round"/>
<line x1="56" y1="71" x2="124" y2="71" stroke="#000091" stroke-width="4"/>
<path d="M98 71C98 74.866 94.6421 78 90.5 78C86.3579 78 83 74.866 83 71" stroke="#000091" stroke-width="4"/>
</svg>
