<svg width="131" height="131" viewBox="0 0 131 131" fill="none" xmlns="http://www.w3.org/2000/svg">
<path d="M107.852 40.3323L65.4944 15.802L23.1363 40.5697C22.8748 40.7188 22.6572 40.9343 22.5055 41.1944C22.3537 41.4544 22.2731 41.7499 22.2719 42.0511V89.9638C22.2884 90.2616 22.3754 90.5512 22.5257 90.8087C22.676 91.0663 22.8853 91.2844 23.1363 91.4452L65.4887 115.758L107.847 91.1455C108.098 90.9849 108.307 90.7668 108.458 90.5093C108.608 90.2517 108.695 89.962 108.711 89.6641V41.8249C108.713 41.5224 108.634 41.2248 108.483 40.9625C108.332 40.7003 108.115 40.4828 107.852 40.3323Z" fill="#000091"/>
<path d="M50.3608 41.7458L36.1539 66.1375L23.2804 40.1994L38.5071 31.3988L51.1885 40.3323L50.3608 41.7458ZM108.714 89.749V41.808C108.714 41.5069 108.634 41.2113 108.482 40.9515C108.33 40.6917 108.112 40.477 107.85 40.3294L65.4944 15.802" fill="#E1000F"/>
<path d="M22.2775 89.749L65.5 15.802V115.772L23.1363 91.4452C22.8853 91.2844 22.676 91.0663 22.5257 90.8087C22.3754 90.5512 22.2884 90.2616 22.2719 89.9638V42.0511L22.2775 89.749ZM91.9674 31.1303L107.386 40.0496L94.7049 65.917L79.4866 39.8064L91.9674 31.1303Z" fill="#0063CB"/>
<path d="M120.887 32.4307L66.6752 1.2767C66.3101 1.09472 65.9078 1 65.5 1C65.0921 1 64.6899 1.09472 64.3248 1.2767L10.113 32.4307C9.78673 32.6481 9.516 32.9391 9.32267 33.2804C9.12934 33.6217 9.01881 34.0036 9 34.3955V96.5904C9.01663 96.9847 9.12612 97.3694 9.31955 97.7133C9.51297 98.0572 9.78486 98.3505 10.113 98.5693L64.322 129.723C64.687 129.905 65.0893 130 65.4972 130C65.905 130 66.3073 129.905 66.6724 129.723L120.887 98.5693C121.215 98.3505 121.487 98.0572 121.68 97.7133C121.874 97.3694 121.983 96.9847 122 96.5904V34.3955C121.981 34.0036 121.871 33.6217 121.677 33.2804C121.484 32.9391 121.213 32.6481 120.887 32.4307ZM39.4789 82.6276H39.7021C39.5834 82.6276 39.4789 82.6474 39.4789 82.769C39.4789 83.0517 39.9055 82.769 40.0439 83.0517C39.3726 83.0701 38.7351 83.3501 38.267 83.832C38.267 83.9761 38.5495 83.9761 38.6936 83.9761C38.4817 84.2588 38.0551 84.1175 37.911 84.403C37.9875 84.4794 38.0866 84.529 38.1936 84.5444C38.0523 84.5444 37.911 84.5444 37.911 84.6886V85.1154C37.5551 85.1154 37.4139 85.3981 37.1285 85.5423C37.6935 85.9692 38.0523 85.5423 38.6201 85.5423C37.1285 86.1077 35.9194 86.8936 34.4278 87.3205C34.1453 87.3205 34.4278 87.7474 34.1453 87.7474C34.5719 88.0301 34.7866 87.6061 35.2104 87.6061C33.3628 88.6719 31.4446 89.585 29.4558 90.8063C29.3026 90.9589 29.2034 91.1574 29.1733 91.3717H28.6083C28.3258 91.513 28.4671 91.8692 28.1818 92.1548C28.8202 92.5816 29.5943 91.5894 30.0293 92.1548C30.1706 92.1548 29.7468 92.2961 29.4643 92.2961C29.3231 92.2961 29.3231 92.5788 29.1818 92.5788H28.7468C28.4643 92.7909 28.1818 92.935 28.1818 93.3591C28.0593 93.3364 27.9328 93.3513 27.8189 93.4017C27.705 93.4521 27.6089 93.5358 27.5433 93.6418C30.5774 93.6298 33.5851 93.0765 36.4251 92.0078C38.6277 90.8854 40.6225 89.3948 42.3237 87.6004C42.4002 87.6768 42.4498 87.776 42.465 87.8831C42.0493 89.1171 41.2518 90.1865 40.188 90.9363C39.4055 91.3632 38.8377 92.0021 38.2105 92.2876C37.7915 92.5221 37.3877 92.7827 37.0014 93.0679C35.2152 93.624 33.3815 94.0139 31.5237 94.2326L30.6621 94.357C30.0265 94.4503 29.3937 94.5521 28.7665 94.6624L23.1363 91.4452C22.9303 91.3154 22.7522 91.1458 22.6125 90.9462C22.4728 90.7467 22.3743 90.5213 22.3227 90.2833C22.4169 90.2328 22.5058 90.1731 22.5883 90.1052C22.5007 90.0121 22.3908 89.943 22.269 89.9044V88.0669C25.2294 87.5401 28.1125 86.6455 30.8514 85.4038C28.2601 83.6015 25.3477 82.3127 22.2719 81.6071V77.3241C23.8399 77.5813 25.3874 77.9517 26.902 78.4323C28.0681 78.861 29.187 79.4086 30.2412 80.0663C30.6554 80.4649 31.1077 80.8219 31.5915 81.1321C31.9324 81.3268 32.3134 81.4407 32.7051 81.4652C33.0969 81.4897 33.489 81.4241 33.8515 81.2735H34.7838C36.8076 80.9387 38.7006 80.0536 40.2558 78.715C40.2558 78.8564 40.3971 78.8564 40.5383 78.8564C40.3171 79.9833 39.9083 81.0651 39.3292 82.0566C39.3377 82.2008 39.1936 82.4863 39.4789 82.6276ZM47.437 92.723C48.146 92.4403 48.567 91.9399 49.2139 91.6572C49.0726 91.7986 49.0726 92.0841 48.9314 92.2226C48.4013 92.5541 47.9021 92.9325 47.4398 93.3534C45.8417 94.7629 44.3454 96.2838 42.9622 97.905C42.2503 98.7531 41.4705 99.539 40.7021 100.322C40.4299 100.577 40.137 100.808 39.8264 101.015L32.6876 96.9155C33.703 97.0013 34.7253 96.951 35.7273 96.7657C36.5591 96.5323 37.3676 96.2229 38.1427 95.8412V96.1239C40.1202 95.3408 41.6231 93.5626 43.6147 92.9237C43.6853 92.9237 43.9707 93.2064 44.2532 93.0651C44.7648 92.4305 45.4153 91.9221 46.1544 91.579C46.8935 91.2359 47.7016 91.0673 48.5161 91.0861C48.5161 91.2275 48.5161 91.3688 48.6573 91.3688H48.728C48.3014 91.7251 47.8042 92.0784 47.3155 92.4346C47.1545 92.5816 47.2957 92.723 47.437 92.723ZM22.2719 75.2971V74.7713C23.7356 74.3882 25.2453 74.2093 26.7579 74.2398C27.2052 74.1685 27.661 74.1685 28.1083 74.2398C26.1151 74.2378 24.1379 74.596 22.2719 75.2971ZM108.717 89.6811C108.701 89.9789 108.614 90.2686 108.463 90.5262C108.313 90.7838 108.104 91.0019 107.852 91.1625L79.3792 107.703C76.1102 106.767 72.8959 105.649 69.7516 104.353C69.2959 103.361 69.0483 102.286 69.024 101.195C68.9997 100.103 69.1993 99.0181 69.6104 98.0067C69.836 97.1362 70.17 96.2975 70.6048 95.5105C70.6754 95.4398 70.746 95.3691 70.746 95.2956C70.7648 95.2956 70.7827 95.2882 70.796 95.2749C70.8092 95.2617 70.8166 95.2437 70.8166 95.2249C71.1304 94.6751 71.4865 94.1505 71.8817 93.6559L71.924 93.6135L71.9805 93.5541L72.0229 93.5117C72.0229 93.4411 72.0935 93.3704 72.1642 93.2969C72.2348 93.1527 72.376 93.082 72.4467 92.9407C72.9426 92.4152 73.4906 91.9416 74.0823 91.5272C74.6832 91.3093 75.3012 91.1419 75.9299 91.0268C78.2209 91.1955 80.4993 91.5052 82.7523 91.954C83.0292 91.9957 83.2952 92.0918 83.5348 92.2367C84.3855 92.4026 85.2641 92.354 86.0914 92.0954C86.6308 91.9967 87.1359 91.7614 87.5587 91.4121C87.9815 91.0627 88.3079 90.6108 88.5068 90.0995C88.7555 89.6438 88.8974 89.1375 88.9219 88.6189C88.9464 88.1002 88.8527 87.5828 88.648 87.1057C88.1452 86.3254 88.6113 85.8703 89.1594 85.4377L89.3515 85.2822C89.5956 85.1092 89.8151 84.9038 90.004 84.6716C90.36 83.9592 89.7216 83.5408 89.5775 82.8905C89.4362 82.6078 88.939 82.7492 88.6537 82.3251C89.6481 81.8983 91.0691 81.1123 90.4306 79.9024C90.004 79.2606 89.3656 78.1213 90.1481 77.4796C91.1425 76.9142 92.5635 77.0527 92.9901 76.1254C93.1296 75.5864 93.1269 75.0204 92.9823 74.4828C92.8377 73.9451 92.5562 73.4542 92.1652 73.0581L91.9533 72.7528C91.7414 72.4503 91.5324 72.1478 91.3572 71.8481C90.9082 71.1023 90.4099 70.3874 89.8656 69.7081C89.2443 68.8276 88.7426 67.8684 88.374 66.8556C87.9474 65.787 88.5153 64.8597 88.5153 63.7911C88.5571 61.7326 88.2446 59.6823 87.5915 57.7299C87.2355 56.7319 87.0943 55.6633 86.6677 54.736C86.614 54.1401 86.3926 53.5716 86.0293 53.0964C85.9591 52.9519 85.9226 52.7934 85.9226 52.6327C85.9226 52.4721 85.9591 52.3136 86.0293 52.1691C86.6085 51.7605 87.1554 51.3078 87.665 50.8149C87.8224 50.4692 87.8521 50.0788 87.7486 49.7132C87.6451 49.3476 87.4152 49.0308 87.0999 48.8191C86.1762 48.3922 86.2524 49.7463 85.6083 50.0319H85.1818C85.0405 49.6756 85.323 49.5315 85.6083 49.2488C85.6083 49.1074 85.6083 48.8219 85.4671 48.8219C84.9021 48.8219 84.4021 48.6777 84.258 48.395C82.8964 46.697 81.0693 45.4335 79.0007 44.7594C79.5317 44.9227 80.0813 45.0177 80.6363 45.0421C81.5901 45.244 82.5829 45.1452 83.4783 44.7594C84.1196 44.5446 84.2608 43.4053 84.5433 42.7635C84.6007 42.4529 84.5923 42.1336 84.5189 41.8264C84.4454 41.5191 84.3084 41.2307 84.1167 40.9797C83.4752 40.0462 82.5899 39.307 81.5573 38.8424C81.0601 38.6276 80.2776 38.2007 79.6391 37.8445C79.4217 37.6913 79.1827 37.5713 78.9301 37.4883C70.5539 33.2901 53.3101 36.9229 51.9965 37.4883H51.9711C50.7606 37.8396 49.5805 38.2887 48.4427 38.8311C46.8759 39.4132 45.4611 40.3425 44.3041 41.5493C43.1471 42.7561 42.2779 44.2092 41.7615 45.7998C40.1485 46.8601 38.8483 48.3331 37.9958 50.0658C36.7867 52.3274 35.0126 54.3318 35.2951 56.8903C35.5776 59.0953 36.0776 61.0856 36.5042 63.3614C36.6255 64.1304 36.8146 64.8873 37.0692 65.623C37.3517 66.4032 37.0692 67.4012 37.4958 68.0401C37.7077 68.467 37.5664 68.9645 38.137 69.2501V69.8155C38.2783 69.9568 38.2783 70.0982 38.5636 70.0982V70.6636C39.7915 71.8609 40.8444 73.2257 41.6909 74.7176C41.9734 75.4978 40.3405 75.1445 39.7134 74.8589C38.5396 74.0942 37.4654 73.1864 36.5155 72.1563C36.4378 72.2321 36.3871 72.3315 36.3714 72.439C36.9364 73.4341 38.9309 74.6441 37.863 75.283C37.298 75.5657 36.6539 74.8561 36.0861 75.4272C35.9448 75.6392 36.0861 75.9247 36.0861 76.2074C35.3036 75.642 34.4533 75.9247 33.6707 75.642C33.1057 75.5007 32.9588 74.4349 32.3204 74.4349C30.6353 74.0233 28.9268 73.7146 27.2043 73.5104C25.5767 73.2661 23.9365 73.116 22.2916 73.0609V42.0511C22.2929 41.7499 22.3735 41.4544 22.5252 41.1944C22.677 40.9343 22.8946 40.7188 23.1561 40.5697L65.4944 15.802L107.852 40.3323C108.114 40.4811 108.332 40.6965 108.484 40.9567C108.635 41.2168 108.716 41.5124 108.717 41.8136V89.6811ZM86.2468 66.3269C86.1614 66.4597 86.0432 66.5683 85.9037 66.6421C85.7641 66.7158 85.6079 66.7524 85.4501 66.7482C85.1671 66.9867 84.901 67.2446 84.6535 67.5199C84.936 67.5199 84.6535 67.9412 84.936 67.9412C84.3569 68.5716 85.1535 69.9031 84.3569 70.183C83.314 70.4628 82.2159 70.4628 81.1731 70.183C81.3281 70.1496 81.4864 70.1344 81.6449 70.1378H81.885C82.0621 70.1592 82.2418 70.1363 82.408 70.0712C82.5741 70.0061 82.7215 69.9007 82.837 69.7646V69.1992C82.837 69.0578 82.6929 69.0578 82.5545 69.0578C82.4803 69.1372 82.38 69.1874 82.272 69.1992C82.2651 69.072 82.2198 68.9499 82.1421 68.849C82.0645 68.748 81.9581 68.673 81.837 68.6338C81.4614 68.6839 81.0793 68.6396 80.7252 68.5049C80.371 68.3701 80.056 68.1492 79.8086 67.862C80.1917 67.6778 80.6255 67.6281 81.0403 67.7206C81.4019 67.7206 81.2579 67.0902 81.6929 66.8103H82.1279C82.9952 65.7587 84.5885 65.4788 84.8795 64.4271C84.8795 64.1444 84.0829 64.1444 83.5037 64.0059C82.7294 63.911 81.9443 63.9589 81.1872 64.1473C80.1708 64.2876 79.1743 64.5466 78.2182 64.9191C79.0099 64.3375 79.8904 63.8878 80.8256 63.5875C81.4821 63.3344 82.1613 63.1451 82.854 63.0221L83.2269 62.9486L83.6026 62.8723C84.115 62.7191 84.6609 62.7191 85.1733 62.8723C85.8259 63.155 86.9107 63.155 87.0548 63.5734C87.3373 64.3452 86.6197 65.1141 85.8259 65.6767C85.6648 65.9057 86.2468 66.0584 86.2468 66.3269Z" fill="white"/>
</svg>
