<svg width="51" height="50" viewBox="0 0 51 50" fill="none" xmlns="http://www.w3.org/2000/svg">
<g filter="url(#filter0_d_10795_3101)">
<rect x="3" y="3" width="44" height="44" fill="white"/>
</g>
<path d="M23.9692 38.5699L24.4507 35.8226L23.9268 35.5818V35.5252L25.0101 35.2986H25.0314V36.1341H25.0668C25.2178 35.8745 25.3453 35.6857 25.4491 35.5677C25.553 35.4496 25.645 35.3765 25.7253 35.3481C25.8055 35.3151 25.8811 35.2986 25.9519 35.2986C26.0416 35.2986 26.1218 35.3269 26.1926 35.3836C26.2634 35.4402 26.2988 35.5016 26.2988 35.5677C26.2988 35.596 26.2917 35.6267 26.2776 35.6597L26.0793 36.0633H26.0368L25.9589 36.0067C25.8787 35.9453 25.7843 35.9146 25.6757 35.9146C25.5955 35.9146 25.5223 35.9311 25.4562 35.9642C25.3901 35.9972 25.317 36.0633 25.2367 36.1624C25.1612 36.2569 25.0668 36.4008 24.9535 36.5944L24.6136 38.5699H23.9692Z" fill="#161616"/>
<path d="M20.8799 40.2695C20.7666 40.2695 20.6769 40.2459 20.6108 40.1987C20.5448 40.1515 20.5117 40.0972 20.5117 40.0358C20.5117 39.9981 20.5259 39.9509 20.5542 39.8942L20.6817 39.6393H20.7241L20.8799 39.7526C20.9413 39.7951 21.031 39.8163 21.149 39.8163C21.3331 39.8163 21.4794 39.7219 21.588 39.5331C21.6966 39.349 21.7745 39.0965 21.8217 38.7755L22.2819 35.6812H21.7367V35.3696H22.3244L22.3669 35.1005C22.381 34.9967 22.4259 34.8692 22.5014 34.7182C22.5817 34.5624 22.6832 34.4019 22.8059 34.2367C22.9286 34.0667 23.0679 33.9086 23.2237 33.7623C23.3794 33.6112 23.5447 33.4908 23.7193 33.4011C23.894 33.3067 24.071 33.2595 24.2504 33.2595C24.3023 33.2595 24.3519 33.2666 24.3991 33.2808C24.4463 33.2902 24.4888 33.302 24.5265 33.3162C24.5926 33.3492 24.6351 33.3799 24.654 33.4082C24.6776 33.4318 24.6894 33.4625 24.6894 33.5003C24.6894 33.5192 24.6823 33.5428 24.6681 33.5711C24.6587 33.5994 24.6469 33.6254 24.6327 33.649L24.484 33.9251H24.4274L24.2716 33.8331C24.1489 33.7623 24.0096 33.7269 23.8539 33.7269C23.6367 33.7269 23.4644 33.8213 23.337 34.0101C23.2142 34.1942 23.1269 34.4515 23.075 34.7819L22.9829 35.3696H23.7547V35.6812H22.9404L22.5156 38.4497C22.5014 38.5489 22.4589 38.674 22.3881 38.825C22.322 38.9808 22.2347 39.1413 22.1261 39.3065C22.0223 39.4717 21.9019 39.6275 21.765 39.7739C21.6328 39.9202 21.4912 40.0382 21.3402 40.1279C21.1891 40.2223 21.0357 40.2695 20.8799 40.2695Z" fill="#161616"/>
<path d="M20.3948 38.6053C20.2721 38.6053 20.18 38.5699 20.1187 38.4991C20.062 38.4283 20.0337 38.3386 20.0337 38.23C20.0337 38.1073 20.0762 37.9964 20.1611 37.8972C20.2461 37.7981 20.3547 37.7485 20.4869 37.7485C20.6096 37.7485 20.6993 37.7839 20.7559 37.8547C20.8173 37.9256 20.848 38.0152 20.848 38.1238C20.848 38.2465 20.8055 38.3575 20.7205 38.4566C20.6403 38.5557 20.5317 38.6053 20.3948 38.6053Z" fill="#161616"/>
<path d="M18.1307 38.5699L17.4722 35.7872L16.9058 35.5818V35.5252L18.0245 35.2986H18.0458L18.5981 37.7131H18.6264L19.1079 36.998C19.2589 36.7667 19.351 36.5849 19.384 36.4528C19.4218 36.3206 19.4407 36.2144 19.4407 36.1341C19.4407 36.0586 19.4218 35.9949 19.384 35.9429C19.3463 35.891 19.2967 35.8485 19.2353 35.8155L19.1362 35.7588V35.7234L19.2707 35.4756C19.3085 35.4001 19.3416 35.3529 19.3699 35.334C19.3982 35.3104 19.4407 35.2986 19.4973 35.2986C19.5729 35.2986 19.6437 35.3293 19.7098 35.3906C19.7758 35.452 19.8278 35.5275 19.8655 35.6172C19.908 35.7069 19.9293 35.7919 19.9293 35.8721C19.9293 35.9901 19.8915 36.1318 19.816 36.297C19.7452 36.4575 19.6153 36.6746 19.4265 36.9484L18.3148 38.5699H18.1307Z" fill="#161616"/>
<path d="M14.2249 38.6407C14.0456 38.6407 13.8969 38.5723 13.7788 38.4354C13.6656 38.2985 13.6089 38.1097 13.6089 37.8689C13.6089 37.8264 13.6113 37.7816 13.616 37.7344C13.6207 37.6872 13.6278 37.64 13.6372 37.5928L13.9488 35.8226L13.4248 35.5818V35.5252L14.6498 35.2986H14.6781L14.3028 37.4724C14.2839 37.5857 14.2745 37.6683 14.2745 37.7202C14.2745 37.8429 14.3052 37.9468 14.3666 38.0318C14.4279 38.1167 14.5247 38.1592 14.6569 38.1592C14.7466 38.1592 14.8362 38.1309 14.9259 38.0743C15.0156 38.0129 15.103 37.9397 15.1879 37.8548C15.2776 37.7651 15.3555 37.6801 15.4216 37.5998L15.7331 35.8226L15.2729 35.5818V35.5252L16.4412 35.2986H16.4695L16.0447 37.7131C15.9975 37.9633 16.0376 38.0884 16.1651 38.0884C16.2453 38.0884 16.3279 38.0483 16.4129 37.968C16.5026 37.8831 16.5899 37.7485 16.6749 37.5644L16.7811 37.6069C16.6442 37.961 16.4955 38.223 16.335 38.3929C16.1745 38.5581 16.0022 38.6407 15.8181 38.6407C15.6293 38.6407 15.4971 38.5746 15.4216 38.4425C15.3508 38.3056 15.3343 38.1285 15.372 37.9114H15.3579C15.2021 38.0861 15.0652 38.2277 14.9472 38.3362C14.8292 38.4448 14.7159 38.5227 14.6073 38.5699C14.4987 38.6171 14.3713 38.6407 14.2249 38.6407Z" fill="#161616"/>
<path d="M11.1305 38.6407C10.7104 38.6407 10.3988 38.5109 10.1958 38.2513C9.99757 37.9916 9.89844 37.6589 9.89844 37.2529C9.89844 37.0263 9.93856 36.7997 10.0188 36.5731C10.1038 36.3418 10.2218 36.1294 10.3729 35.9359C10.5239 35.7423 10.7033 35.5889 10.911 35.4756C11.1187 35.3576 11.3476 35.2986 11.5978 35.2986C12.0274 35.2986 12.3437 35.4308 12.5467 35.6951C12.7496 35.9547 12.8511 36.2875 12.8511 36.6935C12.8511 36.9106 12.811 37.1349 12.7308 37.3662C12.6505 37.5928 12.5349 37.8028 12.3838 37.9964C12.2327 38.1899 12.051 38.3457 11.8386 38.4637C11.6309 38.5817 11.3948 38.6407 11.1305 38.6407ZM11.2084 38.3504C11.3972 38.3504 11.5601 38.2702 11.697 38.1097C11.8386 37.9492 11.9471 37.7367 12.0227 37.4724C12.1029 37.208 12.143 36.9201 12.143 36.6085C12.143 36.2734 12.1006 36.0185 12.0156 35.8438C11.9306 35.6691 11.7748 35.5818 11.5483 35.5818C11.3642 35.5818 11.2013 35.655 11.0597 35.8013C10.9181 35.9477 10.8071 36.1506 10.7269 36.4103C10.6466 36.6699 10.6065 36.9697 10.6065 37.3095C10.6065 37.64 10.649 37.8972 10.734 38.0813C10.8189 38.2607 10.9771 38.3504 11.2084 38.3504Z" fill="#161616"/>
<path d="M7.90006 37.4795C7.73485 37.4795 7.58615 37.4535 7.45397 37.4016C7.35956 37.4488 7.29112 37.5102 7.24863 37.5857C7.21087 37.6565 7.19199 37.7297 7.19199 37.8052C7.19199 37.8996 7.23919 37.9728 7.3336 38.0247C7.43273 38.0766 7.55783 38.1191 7.70888 38.1521C7.85994 38.1852 8.02044 38.2182 8.19038 38.2513C8.36032 38.2843 8.52081 38.3315 8.67187 38.3929C8.82293 38.4543 8.94566 38.5369 9.04007 38.6407C9.1392 38.7446 9.18877 38.8862 9.18877 39.0656C9.18877 39.2591 9.1274 39.4479 9.00467 39.632C8.88193 39.8161 8.69783 39.9672 8.45237 40.0852C8.2069 40.2079 7.90006 40.2693 7.53186 40.2693C7.11646 40.2693 6.80726 40.2009 6.60428 40.064C6.4013 39.9271 6.2998 39.7571 6.2998 39.5541C6.2998 39.4125 6.32105 39.2992 6.36353 39.2143C6.40602 39.1293 6.47918 39.0349 6.58304 38.931L7.12118 38.6266V38.6124C6.97956 38.5699 6.85919 38.5085 6.76006 38.4283C6.66565 38.3433 6.61844 38.2253 6.61844 38.0743C6.61844 37.9704 6.6326 37.8807 6.66093 37.8052C6.69397 37.7297 6.74589 37.6541 6.8167 37.5786L7.29112 37.3379V37.3237C7.02677 37.1538 6.89459 36.9036 6.89459 36.5731C6.89459 36.3749 6.9536 36.179 7.07161 35.9854C7.18962 35.7872 7.35012 35.6243 7.55311 35.4968C7.76081 35.3647 7.99448 35.2986 8.2541 35.2986C8.391 35.2986 8.53026 35.3222 8.67187 35.3694H9.77648V35.6809H9.1392L9.1038 35.7093C9.21709 35.8462 9.27374 36.0232 9.27374 36.2403C9.27374 36.4244 9.21709 36.6133 9.1038 36.8068C8.99051 36.9956 8.83001 37.1561 8.62231 37.2883C8.41932 37.4157 8.17858 37.4795 7.90006 37.4795ZM8.02044 37.2033C8.14789 37.2033 8.25883 37.1538 8.35324 37.0546C8.45237 36.9555 8.5279 36.8328 8.57982 36.6864C8.63647 36.5354 8.66479 36.3867 8.66479 36.2403C8.66479 36.0373 8.61995 35.8768 8.53026 35.7588C8.44529 35.6361 8.32255 35.5747 8.16205 35.5747C8.02516 35.5747 7.90715 35.6219 7.80801 35.7164C7.7136 35.8108 7.63808 35.9311 7.58143 36.0775C7.5295 36.2238 7.50354 36.3749 7.50354 36.5306C7.50354 36.7289 7.54839 36.8918 7.63808 37.0192C7.72777 37.142 7.85522 37.2033 8.02044 37.2033ZM6.85919 39.4692C6.85919 39.6344 6.93 39.7713 7.07161 39.8799C7.21323 39.9884 7.40677 40.0427 7.65224 40.0427C7.96379 40.0427 8.1951 39.9719 8.34615 39.8303C8.50193 39.6887 8.57982 39.5211 8.57982 39.3276C8.57982 39.1954 8.5397 39.0915 8.45945 39.016C8.38392 38.9452 8.28479 38.8885 8.16205 38.8461C8.03932 38.8036 7.90242 38.7705 7.75137 38.7469C7.60503 38.7233 7.46106 38.695 7.31944 38.662C7.12118 38.7989 6.99372 38.9334 6.93708 39.0656C6.88515 39.1977 6.85919 39.3323 6.85919 39.4692Z" fill="#161616"/>
<path d="M44.0642 30.7379C43.9415 30.7379 43.8495 30.7025 43.7881 30.6317C43.7314 30.5609 43.7031 30.4712 43.7031 30.3626C43.7031 30.2399 43.7456 30.1289 43.8306 30.0298C43.9155 29.9307 44.0241 29.8811 44.1563 29.8811C44.279 29.8811 44.3687 29.9165 44.4254 29.9873C44.4867 30.0581 44.5174 30.1478 44.5174 30.2564C44.5174 30.3791 44.4749 30.4901 44.39 30.5892C44.3097 30.6883 44.2011 30.7379 44.0642 30.7379Z" fill="#161616"/>
<path d="M43.1849 30.1217C42.8521 30.5677 42.2998 30.8439 41.6272 30.8439C40.3597 30.8439 39.6445 29.9588 39.6445 28.9179C39.6445 27.8629 40.3101 26.9919 41.4785 26.9919C42.4698 26.9919 43.1212 27.6646 43.1212 28.5993C43.1212 28.7975 43.0929 28.9816 43.0646 29.102H40.565C40.65 29.7676 41.0607 30.0367 41.6201 30.0367C42.0095 30.0367 42.3494 29.8667 42.5406 29.6118L43.1849 30.1217ZM41.4572 27.7283C40.997 27.7283 40.6925 27.9833 40.5934 28.4506H42.2361C42.2219 28.0895 41.96 27.7283 41.4572 27.7283Z" fill="#161616"/>
<path d="M37.9976 29.1589V27.1338H38.9039V29.1164C38.9039 30.1856 38.2808 30.8441 37.2328 30.8441C36.1849 30.8441 35.5688 30.1856 35.5688 29.1164V27.1338H36.4752V29.1589C36.4752 29.6758 36.7443 29.9944 37.2399 29.9944C37.7285 29.9944 37.9976 29.6758 37.9976 29.1589Z" fill="#161616"/>
<path d="M30.7451 28.9179C30.7451 27.877 31.4249 26.9919 32.5578 26.9919C33.0393 26.9919 33.3863 27.1477 33.6624 27.4239V27.1336H34.5687V32.4442H33.6624V30.412C33.3863 30.6881 33.0393 30.8439 32.5578 30.8439C31.4249 30.8439 30.7451 29.9588 30.7451 28.9179ZM31.6798 28.9179C31.6798 29.541 32.0692 29.9942 32.6782 29.9942C33.0959 29.9942 33.4429 29.8101 33.6624 29.4844V28.3515C33.4217 28.0187 33.0818 27.8416 32.6782 27.8416C32.0692 27.8416 31.6798 28.2948 31.6798 28.9179Z" fill="#161616"/>
<path d="M29.4764 26.5106C29.1577 26.5106 28.8887 26.2415 28.8887 25.9229C28.8887 25.6043 29.1577 25.3352 29.4764 25.3352C29.795 25.3352 30.057 25.6043 30.057 25.9229C30.057 26.2415 29.795 26.5106 29.4764 26.5106ZM29.0232 30.7024V27.1337H29.9225V30.7024H29.0232Z" fill="#161616"/>
<path d="M26.146 30.7025V27.1338H27.0453V27.4878C27.2789 27.2471 27.5834 27.063 27.987 27.063C28.1074 27.063 28.2136 27.0842 28.2986 27.1126V27.9977C28.1853 27.9693 28.0649 27.9481 27.902 27.9481C27.463 27.9481 27.1798 28.1888 27.0453 28.4154V30.7025H26.146Z" fill="#161616"/>
<path d="M25.3309 30.1217C24.9981 30.5677 24.4458 30.8439 23.7732 30.8439C22.5057 30.8439 21.7905 29.9588 21.7905 28.9179C21.7905 27.8629 22.4561 26.9919 23.6245 26.9919C24.6158 26.9919 25.2672 27.6646 25.2672 28.5993C25.2672 28.7975 25.2389 28.9816 25.2106 29.102H22.711C22.796 29.7676 23.2067 30.0367 23.7661 30.0367C24.1555 30.0367 24.4954 29.8667 24.6866 29.6118L25.3309 30.1217ZM23.6032 27.7283C23.143 27.7283 22.8385 27.9833 22.7394 28.4506H24.3821C24.3679 28.0895 24.1059 27.7283 23.6032 27.7283Z" fill="#161616"/>
<path d="M15.5386 30.7023V27.1336H16.4378V27.4026C16.6786 27.169 16.9831 26.9919 17.4221 26.9919C17.8752 26.9919 18.2718 27.1902 18.5054 27.5726C18.7603 27.261 19.1002 26.9919 19.7021 26.9919C20.4385 26.9919 21.0191 27.5018 21.0191 28.5072V30.7023H20.1128V28.5426C20.1128 28.1107 19.8791 27.8416 19.4755 27.8416C19.0861 27.8416 18.8736 28.1107 18.732 28.3515C18.7391 28.401 18.7391 28.4506 18.7391 28.5072V30.7023H17.8328V28.5426C17.8328 28.1107 17.5991 27.8416 17.1955 27.8416C16.7848 27.8416 16.5724 28.1461 16.4378 28.3727V30.7023H15.5386Z" fill="#161616"/>
<path d="M13.6372 29.1589V27.1338H14.5436V29.1164C14.5436 30.1856 13.9204 30.8441 12.8725 30.8441C11.8245 30.8441 11.2085 30.1856 11.2085 29.1164V27.1338H12.1148V29.1589C12.1148 29.6758 12.3839 29.9944 12.8796 29.9944C13.3681 29.9944 13.6372 29.6758 13.6372 29.1589Z" fill="#161616"/>
<path d="M6.92285 30.7023V27.1336H7.82211V27.4168C8.06994 27.176 8.40274 26.9919 8.87715 26.9919C9.64896 26.9919 10.265 27.523 10.265 28.578V30.7023H9.35865V28.6134C9.35865 28.139 9.08958 27.8416 8.65057 27.8416C8.19739 27.8416 7.95665 28.1461 7.82211 28.3727V30.7023H6.92285Z" fill="#161616"/>
<path d="M32.4 22.9198C32.053 22.9198 31.7769 22.6437 31.7769 22.3038C31.7769 21.971 32.053 21.6877 32.4 21.6877C32.7328 21.6877 33.0231 21.971 33.0231 22.3038C33.0231 22.6437 32.7328 22.9198 32.4 22.9198Z" fill="#161616"/>
<path d="M29.9976 22.835V17.5244H30.8968V22.835H29.9976Z" fill="#161616"/>
<path d="M26.9996 22.9411C26.2845 22.9411 25.7959 22.5304 25.7959 21.8719C25.7959 21.3337 26.2137 20.9301 26.9784 20.8027L28.0688 20.6186V20.5265C28.0688 20.1512 27.7856 19.9105 27.3749 19.9105C27.028 19.9105 26.7589 20.0733 26.5677 20.3353L25.9092 19.8326C26.2278 19.3936 26.7518 19.1245 27.4032 19.1245C28.437 19.1245 28.9681 19.7405 28.9681 20.5265V22.8348H28.0688V22.4879C27.8422 22.764 27.4174 22.9411 26.9996 22.9411ZM26.6881 21.8294C26.6881 22.0701 26.8793 22.2259 27.1837 22.2259C27.5944 22.2259 27.8918 22.0347 28.0688 21.7515V21.2488L27.2191 21.3904C26.8439 21.4541 26.6881 21.6099 26.6881 21.8294Z" fill="#161616"/>
<path d="M24.4695 18.6432C24.1509 18.6432 23.8818 18.3741 23.8818 18.0555C23.8818 17.7368 24.1509 17.4678 24.4695 17.4678C24.7882 17.4678 25.0502 17.7368 25.0502 18.0555C25.0502 18.3741 24.7882 18.6432 24.4695 18.6432ZM24.0164 22.835V19.2663H24.9156V22.835H24.0164Z" fill="#161616"/>
<path d="M22.0386 22.835V17.5244H22.9378V22.835H22.0386Z" fill="#161616"/>
<path d="M20.5145 18.6432C20.1958 18.6432 19.9268 18.3741 19.9268 18.0555C19.9268 17.7368 20.1958 17.4678 20.5145 17.4678C20.8331 17.4678 21.0951 17.7368 21.0951 18.0555C21.0951 18.3741 20.8331 18.6432 20.5145 18.6432ZM20.0613 22.835V19.2663H20.9606V22.835H20.0613Z" fill="#161616"/>
<path d="M13.5542 22.8348V19.2661H14.4535V19.5352C14.6942 19.3015 14.9987 19.1245 15.4377 19.1245C15.8909 19.1245 16.2874 19.3228 16.5211 19.7051C16.776 19.3936 17.1158 19.1245 17.7177 19.1245C18.4541 19.1245 19.0347 19.6343 19.0347 20.6398V22.8348H18.1284V20.6752C18.1284 20.2433 17.8947 19.9742 17.4911 19.9742C17.1017 19.9742 16.8893 20.2433 16.7476 20.484C16.7547 20.5336 16.7547 20.5832 16.7547 20.6398V22.8348H15.8484V20.6752C15.8484 20.2433 15.6147 19.9742 15.2111 19.9742C14.8004 19.9742 14.588 20.2787 14.4535 20.5053V22.8348H13.5542Z" fill="#161616"/>
<path d="M10.5558 22.9411C9.84063 22.9411 9.35205 22.5304 9.35205 21.8719C9.35205 21.3337 9.76982 20.9301 10.5345 20.8027L11.625 20.6186V20.5265C11.625 20.1512 11.3418 19.9105 10.9311 19.9105C10.5841 19.9105 10.315 20.0733 10.1239 20.3353L9.46534 19.8326C9.78398 19.3936 10.308 19.1245 10.9594 19.1245C11.9932 19.1245 12.5242 19.7405 12.5242 20.5265V22.8348H11.625V22.4879C11.3984 22.764 10.9736 22.9411 10.5558 22.9411ZM10.2442 21.8294C10.2442 22.0701 10.4354 22.2259 10.7399 22.2259C11.1506 22.2259 11.448 22.0347 11.625 21.7515V21.2488L10.7753 21.3904C10.4 21.4541 10.2442 21.6099 10.2442 21.8294Z" fill="#161616"/>
<path d="M6.48389 19.2663H7.14948V18.891C7.14948 18.1334 7.65222 17.5244 8.5444 17.5244C8.87011 17.5244 9.14627 17.6023 9.37285 17.7227L8.99049 18.4732C8.88428 18.3954 8.74266 18.3316 8.55856 18.3316C8.25409 18.3316 8.05582 18.544 8.05582 18.8698V19.2663H9.14627V20.0735H8.05582V22.835H7.14948V20.0735H6.48389V19.2663Z" fill="#161616"/>
<path d="M37.4014 12.7229H39.3132V13.5938H37.4014V12.7229Z" fill="#161616"/>
<path d="M35.1754 13.6644V12.2057H34.5098V11.3985H35.1754V10.5063H36.0817V11.3985H37.1721V12.2057H36.0817V13.6644C36.0817 14.0609 36.2941 14.2167 36.6482 14.2167C36.896 14.2167 37.0589 14.1884 37.1792 14.1388V14.9248C37.0022 15.0027 36.7898 15.0381 36.4924 15.0381C35.6002 15.0381 35.1754 14.5353 35.1754 13.6644Z" fill="#161616"/>
<path d="M30.5859 14.9674V11.3987H31.4852V11.6819C31.733 11.4412 32.0658 11.2571 32.5402 11.2571C33.312 11.2571 33.9281 11.7881 33.9281 12.8432V14.9674H33.0217V12.8786C33.0217 12.4042 32.7527 12.1068 32.3137 12.1068C31.8605 12.1068 31.6197 12.4112 31.4852 12.6378V14.9674H30.5859Z" fill="#161616"/>
<path d="M29.7704 14.3868C29.4376 14.8329 28.8853 15.109 28.2126 15.109C26.9451 15.109 26.23 14.2239 26.23 13.1831C26.23 12.128 26.8956 11.2571 28.0639 11.2571C29.0552 11.2571 29.7067 11.9298 29.7067 12.8644C29.7067 13.0627 29.6783 13.2468 29.65 13.3672H27.1505C27.2355 14.0328 27.6461 14.3018 28.2055 14.3018C28.595 14.3018 28.9348 14.1319 29.126 13.877L29.7704 14.3868ZM28.0427 11.9935C27.5824 11.9935 27.2779 12.2484 27.1788 12.7157H28.8216C28.8074 12.3546 28.5454 11.9935 28.0427 11.9935Z" fill="#161616"/>
<path d="M24.9608 10.7755C24.6421 10.7755 24.373 10.5064 24.373 10.1878C24.373 9.86917 24.6421 9.6001 24.9608 9.6001C25.2794 9.6001 25.5414 9.86917 25.5414 10.1878C25.5414 10.5064 25.2794 10.7755 24.9608 10.7755ZM24.5076 14.9673V11.3986H25.4068V14.9673H24.5076Z" fill="#161616"/>
<path d="M21.7051 13.6644V12.2057H21.0396V11.3985H21.7051V10.5063H22.6115V11.3985H23.7019V12.2057H22.6115V13.6644C22.6115 14.0609 22.8239 14.2167 23.178 14.2167C23.4258 14.2167 23.5886 14.1884 23.709 14.1388V14.9248C23.532 15.0027 23.3196 15.0381 23.0222 15.0381C22.13 15.0381 21.7051 14.5353 21.7051 13.6644Z" fill="#161616"/>
<path d="M18.7453 11.2571C19.9066 11.2571 20.6996 12.1139 20.6996 13.1831C20.6996 14.2523 19.9066 15.109 18.7453 15.109C17.5841 15.109 16.791 14.2523 16.791 13.1831C16.791 12.1139 17.5841 11.2571 18.7453 11.2571ZM18.7595 14.2593C19.333 14.2593 19.7649 13.7991 19.7649 13.1831C19.7649 12.5599 19.333 12.1068 18.7595 12.1068C18.1647 12.1068 17.7257 12.5599 17.7257 13.1831C17.7257 13.8062 18.1647 14.2593 18.7595 14.2593Z" fill="#161616"/>
<path d="M15.1445 13.4238V11.3987H16.0509V13.3813C16.0509 14.4505 15.4278 15.109 14.3798 15.109C13.3318 15.109 12.7158 14.4505 12.7158 13.3813V11.3987H13.6222V13.4238C13.6222 13.9407 13.8912 14.2593 14.3869 14.2593C14.8755 14.2593 15.1445 13.9407 15.1445 13.4238Z" fill="#161616"/>
<path d="M11.2707 14.8399C11.6531 15.1868 11.993 15.3143 12.3116 15.3143C12.4178 15.3143 12.5594 15.3001 12.6656 15.2576V16.1073C12.5028 16.171 12.3612 16.1994 12.1417 16.1994C11.5894 16.1994 11.0795 15.9728 10.591 15.5479L10.0033 15.024C9.79084 15.0806 9.56426 15.1089 9.32351 15.1089C7.75865 15.1089 6.68945 13.9052 6.68945 12.489C6.68945 11.0729 7.75865 9.86914 9.32351 9.86914C10.8813 9.86914 11.9505 11.0729 11.9505 12.489C11.9505 13.3175 11.5823 14.0751 10.9733 14.5566L11.2707 14.8399ZM9.32351 14.1672C10.2511 14.1672 10.9167 13.4379 10.9167 12.489C10.9167 11.5402 10.2511 10.8109 9.32351 10.8109C8.38884 10.8109 7.72325 11.5402 7.72325 12.489C7.72325 13.4379 8.38884 14.1672 9.32351 14.1672Z" fill="#161616"/>
<defs>
<filter id="filter0_d_10795_3101" x="1" y="2" width="48" height="48" filterUnits="userSpaceOnUse" color-interpolation-filters="sRGB">
<feFlood flood-opacity="0" result="BackgroundImageFix"/>
<feColorMatrix in="SourceAlpha" type="matrix" values="0 0 0 0 0 0 0 0 0 0 0 0 0 0 0 0 0 0 127 0" result="hardAlpha"/>
<feOffset dy="1"/>
<feGaussianBlur stdDeviation="1"/>
<feComposite in2="hardAlpha" operator="out"/>
<feColorMatrix type="matrix" values="0 0 0 0 0 0 0 0 0 0 0 0 0 0 0 0 0 0 0.25 0"/>
<feBlend mode="normal" in2="BackgroundImageFix" result="effect1_dropShadow_10795_3101"/>
<feBlend mode="normal" in="SourceGraphic" in2="effect1_dropShadow_10795_3101" result="shape"/>
</filter>
</defs>
</svg>
