<svg width="131" height="131" viewBox="0 0 131 131" fill="none" xmlns="http://www.w3.org/2000/svg">
<g filter="url(#filter0_d_10795_3101)">
<rect x="5" y="5" width="120" height="120" fill="#F7ECDB"/>
</g>
<path d="M62.1891 102.009L63.5023 94.5159L62.0732 93.8594V93.7049L65.0279 93.0869H65.0858V95.3656H65.1824C65.5943 94.6576 65.9419 94.1426 66.2252 93.8207C66.5084 93.4989 66.7594 93.2993 66.9783 93.2221C67.1972 93.132 67.4031 93.0869 67.5963 93.0869C67.8409 93.0869 68.0597 93.1642 68.2528 93.3187C68.446 93.4731 68.5425 93.6405 68.5425 93.8207C68.5425 93.898 68.5232 93.9817 68.4846 94.0718L67.9439 95.1725H67.828L67.6156 95.018C67.3967 94.8507 67.1392 94.767 66.8431 94.767C66.6243 94.767 66.4247 94.8121 66.2445 94.9022C66.0642 94.9923 65.8647 95.1725 65.6458 95.4429C65.4398 95.7004 65.1824 96.093 64.8734 96.6209L63.9464 102.009H62.1891Z" fill="#161616"/>
<path d="M53.7635 106.644C53.4545 106.644 53.2099 106.58 53.0296 106.451C52.8494 106.322 52.7593 106.174 52.7593 106.007C52.7593 105.904 52.7979 105.775 52.8751 105.621L53.2227 104.925H53.3386L53.7635 105.234C53.9308 105.35 54.1754 105.408 54.4973 105.408C54.9994 105.408 55.3985 105.151 55.6946 104.636C55.9907 104.134 56.2031 103.445 56.3319 102.569L57.5871 94.1303H56.1001V93.2806H57.703L57.8188 92.5468C57.8574 92.2636 57.9798 91.916 58.1857 91.504C58.4046 91.0792 58.6814 90.6414 59.0161 90.1908C59.3509 89.7274 59.7306 89.2961 60.1555 88.897C60.5803 88.485 61.0309 88.1567 61.5073 87.9121C61.9836 87.6546 62.4664 87.5259 62.9556 87.5259C63.0972 87.5259 63.2324 87.5452 63.3612 87.5838C63.4899 87.6096 63.6058 87.6417 63.7088 87.6804C63.889 87.7705 64.0049 87.8542 64.0564 87.9314C64.1207 87.9958 64.1529 88.0795 64.1529 88.1825C64.1529 88.234 64.1336 88.2983 64.095 88.3756C64.0692 88.4528 64.0371 88.5236 63.9984 88.588L63.5929 89.3411H63.4384L63.0136 89.0901C62.6788 88.897 62.299 88.8004 61.8742 88.8004C61.282 88.8004 60.8121 89.0579 60.4645 89.5729C60.1297 90.075 59.8916 90.7766 59.75 91.6778L59.4989 93.2806H61.6038V94.1303H59.383L58.2244 101.681C58.1857 101.951 58.0699 102.293 57.8768 102.705C57.6965 103.129 57.4584 103.567 57.1622 104.018C56.879 104.468 56.5507 104.893 56.1774 105.292C55.8169 105.691 55.4307 106.013 55.0187 106.258C54.6067 106.515 54.1883 106.644 53.7635 106.644Z" fill="#161616"/>
<path d="M52.4404 102.105C52.1057 102.105 51.8547 102.009 51.6873 101.816C51.5328 101.623 51.4556 101.378 51.4556 101.082C51.4556 100.747 51.5714 100.445 51.8032 100.174C52.0349 99.904 52.331 99.7688 52.6915 99.7688C53.0262 99.7688 53.2708 99.8654 53.4253 100.058C53.5927 100.252 53.6764 100.496 53.6764 100.792C53.6764 101.127 53.5605 101.43 53.3288 101.7C53.1099 101.97 52.8138 102.105 52.4404 102.105Z" fill="#161616"/>
<path d="M46.2657 102.009L44.4697 94.4194L42.9248 93.8594V93.7049L45.976 93.0869H46.0339L47.5402 99.6721H47.6174L48.9306 97.7216C49.3426 97.0908 49.5936 96.5951 49.6837 96.2346C49.7867 95.8742 49.8382 95.5845 49.8382 95.3656C49.8382 95.1597 49.7867 94.9859 49.6837 94.8442C49.5808 94.7026 49.4456 94.5868 49.2782 94.4966L49.0078 94.3421V94.2456L49.3748 93.5697C49.4778 93.3637 49.5679 93.235 49.6451 93.1835C49.7224 93.1191 49.8382 93.0869 49.9927 93.0869C50.1987 93.0869 50.3918 93.1706 50.5721 93.338C50.7523 93.5053 50.8939 93.7113 50.9969 93.9559C51.1128 94.2005 51.1707 94.4323 51.1707 94.6511C51.1707 94.973 51.0677 95.3592 50.8617 95.8098C50.6686 96.2475 50.3146 96.8397 49.7996 97.5864L46.7677 102.009H46.2657Z" fill="#161616"/>
<path d="M35.6133 102.202C35.1241 102.202 34.7186 102.015 34.3967 101.642C34.0877 101.268 33.9332 100.753 33.9332 100.097C33.9332 99.981 33.9397 99.8587 33.9526 99.73C33.9654 99.6012 33.9847 99.4725 34.0105 99.3438L34.8602 94.5159L33.4312 93.8594V93.7049L36.772 93.0869H36.8492L35.8257 99.0155C35.7743 99.3245 35.7485 99.5497 35.7485 99.6914C35.7485 100.026 35.8322 100.309 35.9996 100.541C36.1669 100.773 36.4308 100.889 36.7913 100.889C37.0359 100.889 37.2805 100.811 37.5251 100.657C37.7697 100.49 38.0079 100.29 38.2397 100.058C38.4843 99.8137 38.6967 99.5819 38.8769 99.3631L39.7266 94.5159L38.4714 93.8594V93.7049L41.6578 93.0869H41.735L40.5763 99.6721C40.4476 100.354 40.557 100.696 40.9046 100.696C41.1235 100.696 41.3488 100.586 41.5805 100.367C41.8251 100.136 42.0633 99.7686 42.295 99.2665L42.5847 99.3824C42.2113 100.348 41.8058 101.062 41.3681 101.526C40.9304 101.977 40.4605 102.202 39.9584 102.202C39.4434 102.202 39.0829 102.022 38.8769 101.661C38.6838 101.288 38.6388 100.805 38.7417 100.213H38.7031C38.2783 100.689 37.9049 101.075 37.5831 101.371C37.2612 101.668 36.9522 101.88 36.6561 102.009C36.36 102.137 36.0124 102.202 35.6133 102.202Z" fill="#161616"/>
<path d="M27.1741 102.202C26.0283 102.202 25.1786 101.848 24.625 101.14C24.0843 100.432 23.814 99.524 23.814 98.4168C23.814 97.7989 23.9234 97.1809 24.1423 96.5629C24.374 95.9321 24.6958 95.3528 25.1078 94.8249C25.5198 94.2971 26.009 93.8787 26.5755 93.5697C27.1419 93.2478 27.7663 93.0869 28.4487 93.0869C29.6202 93.0869 30.4828 93.4474 31.0364 94.1683C31.59 94.8764 31.8668 95.7841 31.8668 96.8912C31.8668 97.4835 31.7573 98.095 31.5385 98.7258C31.3196 99.3438 31.0042 99.9167 30.5922 100.445C30.1802 100.972 29.6846 101.397 29.1053 101.719C28.5388 102.041 27.8951 102.202 27.1741 102.202ZM27.3865 101.41C27.9015 101.41 28.3457 101.191 28.719 100.753C29.1053 100.316 29.4014 99.7364 29.6073 99.0155C29.8262 98.2945 29.9356 97.5092 29.9356 96.6595C29.9356 95.7454 29.8198 95.0502 29.588 94.5739C29.3563 94.0975 28.9314 93.8594 28.3135 93.8594C27.8114 93.8594 27.3672 94.0589 26.981 94.458C26.5948 94.8571 26.2922 95.4107 26.0734 96.1188C25.8545 96.8269 25.7451 97.6444 25.7451 98.5713C25.7451 99.4725 25.861 100.174 26.0927 100.676C26.3244 101.165 26.7557 101.41 27.3865 101.41Z" fill="#161616"/>
<path d="M18.3639 99.0348C17.9133 99.0348 17.5077 98.964 17.1472 98.8224C16.8898 98.9511 16.7031 99.1185 16.5872 99.3245C16.4842 99.5176 16.4327 99.7171 16.4327 99.9231C16.4327 100.181 16.5615 100.38 16.819 100.522C17.0893 100.663 17.4305 100.779 17.8425 100.869C18.2544 100.959 18.6921 101.05 19.1556 101.14C19.6191 101.23 20.0568 101.359 20.4688 101.526C20.8808 101.693 21.2155 101.919 21.473 102.202C21.7433 102.485 21.8785 102.871 21.8785 103.361C21.8785 103.888 21.7111 104.403 21.3764 104.905C21.0417 105.407 20.5396 105.819 19.8701 106.141C19.2007 106.476 18.3639 106.643 17.3597 106.643C16.2267 106.643 15.3835 106.457 14.8299 106.083C14.2763 105.71 13.9995 105.247 13.9995 104.693C13.9995 104.307 14.0574 103.998 14.1733 103.766C14.2892 103.534 14.4887 103.277 14.772 102.994L16.2396 102.163V102.125C15.8534 102.009 15.5251 101.841 15.2547 101.622C14.9973 101.391 14.8685 101.069 14.8685 100.657C14.8685 100.374 14.9071 100.129 14.9844 99.9231C15.0745 99.7171 15.2161 99.5111 15.4092 99.3051L16.7031 98.6486V98.6099C15.9821 98.1465 15.6217 97.4641 15.6217 96.5629C15.6217 96.0222 15.7826 95.488 16.1044 94.9601C16.4263 94.4194 16.864 93.9752 17.4176 93.6276C17.9841 93.2672 18.6213 93.0869 19.3294 93.0869C19.7028 93.0869 20.0826 93.1513 20.4688 93.28H23.4813V94.1297H21.7433L21.6468 94.207C21.9558 94.5803 22.1102 95.0631 22.1102 95.6553C22.1102 96.1574 21.9558 96.6724 21.6468 97.2002C21.3378 97.7152 20.9001 98.1529 20.3336 98.5134C19.78 98.861 19.1234 99.0348 18.3639 99.0348ZM18.6921 98.2816C19.0398 98.2816 19.3423 98.1465 19.5998 97.8761C19.8701 97.6058 20.0761 97.271 20.2177 96.8719C20.3722 96.4599 20.4495 96.0544 20.4495 95.6553C20.4495 95.1017 20.3272 94.664 20.0826 94.3421C19.8508 94.0074 19.5161 93.8401 19.0784 93.8401C18.705 93.8401 18.3832 93.9688 18.1128 94.2263C17.8553 94.4838 17.6493 94.8121 17.4949 95.2112C17.3532 95.6103 17.2824 96.0222 17.2824 96.4471C17.2824 96.9878 17.4047 97.4319 17.6493 97.7796C17.8939 98.1143 18.2416 98.2816 18.6921 98.2816ZM15.5251 104.461C15.5251 104.912 15.7182 105.285 16.1044 105.581C16.4907 105.877 17.0185 106.025 17.688 106.025C18.5377 106.025 19.1685 105.832 19.5805 105.446C20.0053 105.06 20.2177 104.603 20.2177 104.075C20.2177 103.715 20.1083 103.431 19.8894 103.225C19.6835 103.032 19.4131 102.878 19.0784 102.762C18.7436 102.646 18.3703 102.556 17.9583 102.491C17.5592 102.427 17.1666 102.35 16.7803 102.26C16.2396 102.633 15.892 103 15.7375 103.361C15.5959 103.721 15.5251 104.088 15.5251 104.461Z" fill="#161616"/>
<path d="M116.994 80.6487C116.659 80.6487 116.408 80.5521 116.241 80.359C116.086 80.1659 116.009 79.9213 116.009 79.6252C116.009 79.2905 116.125 78.9879 116.356 78.7176C116.588 78.4472 116.884 78.312 117.245 78.312C117.579 78.312 117.824 78.4086 117.979 78.6017C118.146 78.7948 118.23 79.0394 118.23 79.3355C118.23 79.6702 118.114 79.9728 117.882 80.2431C117.663 80.5135 117.367 80.6487 116.994 80.6487Z" fill="#161616"/>
<path d="M114.595 78.9682C113.687 80.1848 112.181 80.9379 110.347 80.9379C106.89 80.9379 104.939 78.524 104.939 75.6853C104.939 72.8079 106.755 70.4326 109.941 70.4326C112.645 70.4326 114.421 72.2672 114.421 74.8163C114.421 75.357 114.344 75.8591 114.267 76.1874H107.45C107.682 78.0026 108.802 78.7365 110.327 78.7365C111.389 78.7365 112.316 78.273 112.838 77.5778L114.595 78.9682ZM109.883 72.441C108.628 72.441 107.798 73.1362 107.527 74.4107H112.007C111.969 73.4259 111.254 72.441 109.883 72.441Z" fill="#161616"/>
<path d="M100.448 76.3424V70.8193H102.92V76.2265C102.92 79.1425 101.22 80.9384 98.3624 80.9384C95.5043 80.9384 93.8242 79.1425 93.8242 76.2265V70.8193H96.2961V76.3424C96.2961 77.7521 97.0299 78.6211 98.3817 78.6211C99.7142 78.6211 100.448 77.7521 100.448 76.3424Z" fill="#161616"/>
<path d="M80.6685 75.6853C80.6685 72.8465 82.5223 70.4326 85.6121 70.4326C86.9253 70.4326 87.8716 70.8575 88.6247 71.6106V70.8188H91.0965V85.3023H88.6247V79.76C87.8716 80.5131 86.9253 80.9379 85.6121 80.9379C82.5223 80.9379 80.6685 78.524 80.6685 75.6853ZM83.2175 75.6853C83.2175 77.3847 84.2797 78.6206 85.9404 78.6206C87.0798 78.6206 88.026 78.1185 88.6247 77.2302V74.1404C87.9681 73.2327 87.0412 72.75 85.9404 72.75C84.2797 72.75 83.2175 73.9859 83.2175 75.6853Z" fill="#161616"/>
<path d="M77.2083 69.1197C76.3393 69.1197 75.6055 68.3859 75.6055 67.5169C75.6055 66.6479 76.3393 65.9141 77.2083 65.9141C78.0773 65.9141 78.7918 66.6479 78.7918 67.5169C78.7918 68.3859 78.0773 69.1197 77.2083 69.1197ZM75.9724 80.552V70.8191H78.4249V80.552H75.9724Z" fill="#161616"/>
<path d="M68.1255 80.5522V70.8193H70.578V71.7849C71.2153 71.1283 72.0457 70.6262 73.1464 70.6262C73.4747 70.6262 73.7644 70.6842 73.9961 70.7614V73.1753C73.6871 73.0981 73.3588 73.0401 72.9147 73.0401C71.7174 73.0401 70.9449 73.6967 70.578 74.3147V80.5522H68.1255Z" fill="#161616"/>
<path d="M65.9027 78.9682C64.9951 80.1848 63.4888 80.9379 61.6542 80.9379C58.1975 80.9379 56.2471 78.524 56.2471 75.6853C56.2471 72.8079 58.0623 70.4326 61.2487 70.4326C63.9523 70.4326 65.7289 72.2672 65.7289 74.8163C65.7289 75.357 65.6517 75.8591 65.5744 76.1874H58.7575C58.9893 78.0026 60.1093 78.7365 61.6349 78.7365C62.697 78.7365 63.624 78.273 64.1454 77.5778L65.9027 78.9682ZM61.1908 72.441C59.9355 72.441 59.1051 73.1362 58.8348 74.4107H63.315C63.2764 73.4259 62.5619 72.441 61.1908 72.441Z" fill="#161616"/>
<path d="M39.1963 80.5517V70.8188H41.6488V71.5527C42.3054 70.9154 43.1358 70.4326 44.3331 70.4326C45.569 70.4326 46.6504 70.9733 47.2877 72.0161C47.9829 71.1664 48.9099 70.4326 50.5513 70.4326C52.5597 70.4326 54.1432 71.823 54.1432 74.5652V80.5517H51.6714V74.6618C51.6714 73.4838 51.0341 72.75 49.9333 72.75C48.8712 72.75 48.2919 73.4838 47.9057 74.1404C47.925 74.2756 47.925 74.4107 47.925 74.5652V80.5517H45.4531V74.6618C45.4531 73.4838 44.8159 72.75 43.7151 72.75C42.5951 72.75 42.0157 73.5804 41.6488 74.1983V80.5517H39.1963Z" fill="#161616"/>
<path d="M34.0105 76.3424V70.8193H36.4823V76.2265C36.4823 79.1425 34.7829 80.9384 31.9249 80.9384C29.0668 80.9384 27.3867 79.1425 27.3867 76.2265V70.8193H29.8586V76.3424C29.8586 77.7521 30.5924 78.6211 31.9442 78.6211C33.2767 78.6211 34.0105 77.7521 34.0105 76.3424Z" fill="#161616"/>
<path d="M15.6987 80.5517V70.8188H18.1513V71.5913C18.8272 70.9347 19.7348 70.4326 21.0286 70.4326C23.1336 70.4326 24.8136 71.881 24.8136 74.7583V80.5517H22.3418V74.8549C22.3418 73.561 21.608 72.75 20.4107 72.75C19.1748 72.75 18.5182 73.5804 18.1513 74.1983V80.5517H15.6987Z" fill="#161616"/>
<path d="M85.1818 59.3267C84.2356 59.3267 83.4824 58.5736 83.4824 57.6466C83.4824 56.739 84.2356 55.9666 85.1818 55.9666C86.0894 55.9666 86.8812 56.739 86.8812 57.6466C86.8812 58.5736 86.0894 59.3267 85.1818 59.3267Z" fill="#862B0E"/>
<path d="M78.6299 59.0955V44.6121H81.0824V59.0955H78.6299Z" fill="#862B0E"/>
<path d="M70.4538 59.3846C68.5034 59.3846 67.1709 58.2645 67.1709 56.4686C67.1709 55.0009 68.3103 53.9002 70.3959 53.5526L73.3698 53.0505V52.7995C73.3698 51.776 72.5974 51.1194 71.4773 51.1194C70.5311 51.1194 69.7972 51.5635 69.2758 52.2781L67.4799 50.907C68.3489 49.7097 69.7779 48.9758 71.5546 48.9758C74.374 48.9758 75.8223 50.6559 75.8223 52.7995V59.0949H73.3698V58.1487C72.7519 58.9018 71.5932 59.3846 70.4538 59.3846ZM69.6041 56.3527C69.6041 57.0093 70.1255 57.4342 70.9559 57.4342C72.076 57.4342 72.887 56.9128 73.3698 56.1403V54.7692L71.0525 55.1554C70.029 55.3292 69.6041 55.7541 69.6041 56.3527Z" fill="#862B0E"/>
<path d="M63.5535 47.6632C62.6845 47.6632 61.9507 46.9294 61.9507 46.0604C61.9507 45.1913 62.6845 44.4575 63.5535 44.4575C64.4225 44.4575 65.137 45.1913 65.137 46.0604C65.137 46.9294 64.4225 47.6632 63.5535 47.6632ZM62.3176 59.0955V49.3626H64.7701V59.0955H62.3176Z" fill="#862B0E"/>
<path d="M56.9233 59.0955V44.6121H59.3759V59.0955H56.9233Z" fill="#862B0E"/>
<path d="M52.7669 47.6632C51.8979 47.6632 51.1641 46.9294 51.1641 46.0604C51.1641 45.1913 51.8979 44.4575 52.7669 44.4575C53.6359 44.4575 54.3504 45.1913 54.3504 46.0604C54.3504 46.9294 53.6359 47.6632 52.7669 47.6632ZM51.531 59.0955V49.3626H53.9835V59.0955H51.531Z" fill="#862B0E"/>
<path d="M33.7842 59.0949V49.3621H36.2367V50.0959C36.8933 49.4586 37.7237 48.9758 38.921 48.9758C40.1569 48.9758 41.2383 49.5165 41.8756 50.5594C42.5708 49.7097 43.4977 48.9758 45.1392 48.9758C47.1476 48.9758 48.7311 50.3662 48.7311 53.1084V59.0949H46.2593V53.205C46.2593 52.027 45.622 51.2932 44.5212 51.2932C43.4591 51.2932 42.8798 52.027 42.4936 52.6836C42.5129 52.8188 42.5129 52.9539 42.5129 53.1084V59.0949H40.041V53.205C40.041 52.027 39.4038 51.2932 38.303 51.2932C37.183 51.2932 36.6036 52.1236 36.2367 52.7415V59.0949H33.7842Z" fill="#862B0E"/>
<path d="M25.6066 59.3846C23.6562 59.3846 22.3237 58.2645 22.3237 56.4686C22.3237 55.0009 23.4631 53.9002 25.5487 53.5526L28.5226 53.0505V52.7995C28.5226 51.776 27.7502 51.1194 26.6301 51.1194C25.6839 51.1194 24.9501 51.5635 24.4287 52.2781L22.6327 50.907C23.5017 49.7097 24.9308 48.9758 26.7074 48.9758C29.5268 48.9758 30.9752 50.6559 30.9752 52.7995V59.0949H28.5226V58.1487C27.9047 58.9018 26.746 59.3846 25.6066 59.3846ZM24.7569 56.3527C24.7569 57.0093 25.2784 57.4342 26.1087 57.4342C27.2288 57.4342 28.0399 56.9128 28.5226 56.1403V54.7692L26.2053 55.1554C25.1818 55.3292 24.7569 55.7541 24.7569 56.3527Z" fill="#862B0E"/>
<path d="M14.5015 49.3626H16.3167V48.3391C16.3167 46.2728 17.6878 44.6121 20.121 44.6121C21.0094 44.6121 21.7625 44.8245 22.3805 45.1528L21.3377 47.1998C21.048 46.9873 20.6618 46.8135 20.1597 46.8135C19.3293 46.8135 18.7886 47.3929 18.7886 48.2812V49.3626H21.7625V51.5641H18.7886V59.0955H16.3167V51.5641H14.5015V49.3626Z" fill="#862B0E"/>
<path d="M98.8218 31.5171H104.036V33.8924H98.8218V31.5171Z" fill="#862B0E"/>
<path d="M92.7508 34.0847V30.1066H90.9355V27.9051H92.7508V25.4719H95.2226V27.9051H98.1966V30.1066H95.2226V34.0847C95.2226 35.1662 95.802 35.591 96.7676 35.591C97.4434 35.591 97.8876 35.5138 98.2159 35.3786V37.5222C97.7331 37.7346 97.1538 37.8311 96.3427 37.8311C93.9095 37.8311 92.7508 36.46 92.7508 34.0847Z" fill="#862B0E"/>
<path d="M80.2344 37.6384V27.9055H82.6869V28.678C83.3628 28.0214 84.2704 27.5193 85.5643 27.5193C87.6692 27.5193 89.3493 28.9676 89.3493 31.845V37.6384H86.8774V31.9416C86.8774 30.6477 86.1436 29.8366 84.9463 29.8366C83.7104 29.8366 83.0538 30.667 82.6869 31.285V37.6384H80.2344Z" fill="#862B0E"/>
<path d="M78.0101 36.0549C77.1025 37.2715 75.5962 38.0246 73.7616 38.0246C70.3049 38.0246 68.3545 35.6107 68.3545 32.772C68.3545 29.8946 70.1697 27.5193 73.3561 27.5193C76.0597 27.5193 77.8363 29.3539 77.8363 31.9029C77.8363 32.4437 77.7591 32.9458 77.6818 33.274H70.865C71.0967 35.0893 72.2167 35.8231 73.7423 35.8231C74.8045 35.8231 75.7314 35.3597 76.2528 34.6645L78.0101 36.0549ZM73.2982 29.5277C72.0429 29.5277 71.2126 30.2229 70.9422 31.4974H75.4224C75.3838 30.5125 74.6693 29.5277 73.2982 29.5277Z" fill="#862B0E"/>
<path d="M64.8929 26.2059C64.0239 26.2059 63.29 25.4721 63.29 24.6031C63.29 23.7341 64.0239 23.0002 64.8929 23.0002C65.7619 23.0002 66.4764 23.7341 66.4764 24.6031C66.4764 25.4721 65.7619 26.2059 64.8929 26.2059ZM63.657 37.6382V27.9053H66.1095V37.6382H63.657Z" fill="#862B0E"/>
<path d="M56.014 34.0847V30.1066H54.1987V27.9051H56.014V25.4719H58.4858V27.9051H61.4598V30.1066H58.4858V34.0847C58.4858 35.1662 59.0652 35.591 60.0307 35.591C60.7066 35.591 61.1508 35.5138 61.4791 35.3786V37.5222C60.9963 37.7346 60.417 37.8311 59.6059 37.8311C57.1727 37.8311 56.014 36.46 56.014 34.0847Z" fill="#862B0E"/>
<path d="M47.9417 27.5193C51.1088 27.5193 53.2716 29.856 53.2716 32.772C53.2716 35.688 51.1088 38.0246 47.9417 38.0246C44.7747 38.0246 42.6118 35.688 42.6118 32.772C42.6118 29.856 44.7747 27.5193 47.9417 27.5193ZM47.9803 35.7073C49.5446 35.7073 50.7225 34.452 50.7225 32.772C50.7225 31.0726 49.5446 29.8366 47.9803 29.8366C46.3582 29.8366 45.1609 31.0726 45.1609 32.772C45.1609 34.4713 46.3582 35.7073 47.9803 35.7073Z" fill="#862B0E"/>
<path d="M38.1213 33.4285V27.9055H40.5932V33.3127C40.5932 36.2287 38.8938 38.0246 36.0357 38.0246C33.1776 38.0246 31.4976 36.2287 31.4976 33.3127V27.9055H33.9694V33.4285C33.9694 34.8383 34.7032 35.7073 36.055 35.7073C37.3875 35.7073 38.1213 34.8383 38.1213 33.4285Z" fill="#862B0E"/>
<path d="M27.5564 37.2904C28.5992 38.2366 29.5261 38.5842 30.3952 38.5842C30.6848 38.5842 31.071 38.5456 31.3607 38.4298V40.7471C30.9166 40.9209 30.5303 40.9982 29.9317 40.9982C28.4254 40.9982 27.035 40.3802 25.7025 39.2215L24.0997 37.7925C23.5203 37.947 22.9024 38.0242 22.2458 38.0242C17.978 38.0242 15.062 34.7413 15.062 30.8791C15.062 27.0168 17.978 23.7339 22.2458 23.7339C26.4943 23.7339 29.4103 27.0168 29.4103 30.8791C29.4103 33.1385 28.4061 35.2048 26.7453 36.5179L27.5564 37.2904ZM22.2458 35.4558C24.7756 35.4558 26.5908 33.4668 26.5908 30.8791C26.5908 28.2913 24.7756 26.3023 22.2458 26.3023C19.6967 26.3023 17.8815 28.2913 17.8815 30.8791C17.8815 33.4668 19.6967 35.4558 22.2458 35.4558Z" fill="#862B0E"/>
<defs>
<filter id="filter0_d_10795_3101" x="3" y="4" width="124" height="124" filterUnits="userSpaceOnUse" color-interpolation-filters="sRGB">
<feFlood flood-opacity="0" result="BackgroundImageFix"/>
<feColorMatrix in="SourceAlpha" type="matrix" values="0 0 0 0 0 0 0 0 0 0 0 0 0 0 0 0 0 0 127 0" result="hardAlpha"/>
<feOffset dy="1"/>
<feGaussianBlur stdDeviation="1"/>
<feComposite in2="hardAlpha" operator="out"/>
<feColorMatrix type="matrix" values="0 0 0 0 0 0 0 0 0 0 0 0 0 0 0 0 0 0 0.25 0"/>
<feBlend mode="normal" in2="BackgroundImageFix" result="effect1_dropShadow_10795_3101"/>
<feBlend mode="normal" in="SourceGraphic" in2="effect1_dropShadow_10795_3101" result="shape"/>
</filter>
</defs>
</svg>
