<svg width="131" height="131" viewBox="0 0 131 131" fill="none" xmlns="http://www.w3.org/2000/svg">
<path d="M62.6565 67.3786V67.1836C62.678 65.1141 62.8934 63.4672 63.3027 62.2428C63.712 61.0185 64.2937 60.0271 65.0476 59.2686C65.8016 58.5102 66.7063 57.8113 67.7619 57.1721C68.3974 56.782 68.9683 56.3215 69.4745 55.7906C69.9807 55.2489 70.3793 54.6259 70.6701 53.9216C70.9717 53.2173 71.1224 52.4372 71.1224 51.5813C71.1224 50.5194 70.8747 49.5985 70.3793 48.8184C69.8838 48.0382 69.2214 47.4369 68.392 47.0143C67.5626 46.5918 66.6417 46.3805 65.6293 46.3805C64.746 46.3805 63.8951 46.5647 63.0765 46.9331C62.2579 47.3015 61.574 47.8811 61.0247 48.6721C60.4753 49.463 60.1576 50.4978 60.0714 51.7763H56C56.0862 49.9344 56.5601 48.3579 57.4218 47.0468C58.2942 45.7358 59.4413 44.7336 60.8631 44.0402C62.2956 43.3467 63.8844 43 65.6293 43C67.5249 43 69.1729 43.3792 70.5731 44.1377C71.9841 44.8961 73.072 45.9363 73.8367 47.2581C74.6122 48.58 75 50.086 75 51.7763C75 52.9681 74.8169 54.0462 74.4507 55.0105C74.0952 55.9748 73.5782 56.8362 72.8997 57.5946C72.2319 58.3531 71.424 59.0249 70.4762 59.6099C69.5283 60.2059 68.769 60.8343 68.1981 61.4952C67.6273 62.1453 67.2126 62.92 66.9541 63.8193C66.6956 64.7186 66.5556 65.84 66.534 67.1836V67.3786H62.6565ZM64.7245 77C63.9274 77 63.2435 76.7129 62.6726 76.1386C62.1018 75.5644 61.8163 74.8764 61.8163 74.0746C61.8163 73.2728 62.1018 72.5848 62.6726 72.0105C63.2435 71.4363 63.9274 71.1491 64.7245 71.1491C65.5215 71.1491 66.2055 71.4363 66.7764 72.0105C67.3472 72.5848 67.6327 73.2728 67.6327 74.0746C67.6327 74.6055 67.498 75.0931 67.2287 75.5373C66.9702 75.9815 66.6202 76.3391 66.1786 76.6099C65.7477 76.87 65.263 77 64.7245 77Z" fill="#000091"/>
<path fill-rule="evenodd" clip-rule="evenodd" d="M66 113.679C53.5039 113.679 42.0239 109.328 32.9926 102.058L42.4616 92.5892C48.9464 97.2532 56.9024 100 65.5 100C67.5389 100 69.5418 99.8455 71.4975 99.5476C71.2354 99.9775 71.0423 100.456 70.949 100.963C70.5507 103.124 71.8563 105.352 74.8812 107.456L79.126 110.476L80.7213 111.596C76.0525 112.952 71.1138 113.679 66 113.679ZM86.1857 115.391C79.8994 117.725 73.0986 119 66 119C33.9675 119 8 93.0325 8 61C8 28.9675 33.9675 3 66 3C98.0325 3 124 28.9675 124 61C124 72.4582 120.677 83.1404 114.943 92.1356C116.131 94.6064 116.496 97.006 116.249 100.597C116.201 101.296 116.014 102.18 115.69 103.338L115.453 104.152L115.218 104.917L114.239 107.979L114.18 108.166L116.732 112.586C117.097 113.219 116.913 114.022 116.327 114.455L116.185 114.548C115.54 114.921 114.732 114.751 114.305 114.179L114.213 114.04L111.065 108.588L111.335 107.633L111.634 106.669L112.455 104.112L112.67 103.41L112.879 102.693L113.051 102.056C113.231 101.359 113.335 100.823 113.361 100.45C113.598 97.0051 113.23 95.0224 111.989 92.748L111.786 92.3862L98.5731 69.5009C97.9959 68.5011 96.6821 68.171 95.6355 68.7753C94.6505 69.3439 94.2639 70.5315 94.7031 71.5028L94.7952 71.6821L102.303 84.6868C102.697 85.3689 102.453 86.2474 101.757 86.6489C101.111 87.0218 100.304 86.8523 99.8764 86.2801L99.7847 86.1409L89.4242 68.196C88.847 67.1962 87.5332 66.8661 86.4866 67.4703C85.5016 68.039 85.115 69.2265 85.5542 70.1978L85.6462 70.3772L96.0068 88.3221C96.4006 89.0042 96.156 89.8827 95.4605 90.2843C94.8147 90.6571 94.0071 90.4877 93.5797 89.9154L93.4881 89.7763L81.0094 68.1624C80.4186 67.1393 79.094 66.7981 78.0508 67.4004C77.0689 67.9673 76.6861 69.1679 77.137 70.1602L77.2314 70.3437L89.7101 91.9575C90.104 92.6396 89.8594 93.5181 89.1639 93.9196C88.5181 94.2925 87.7105 94.123 87.2831 93.5508L87.1915 93.4116L78.2781 77.9732C77.6874 76.95 76.3628 76.6088 75.3195 77.2112C74.3376 77.7781 73.9549 78.9787 74.4058 79.971L74.5001 80.1544L86.9789 101.768C87.305 102.333 87.1933 103.033 86.7503 103.484C86.7252 103.51 86.6991 103.535 86.6719 103.559C86.306 103.881 85.7879 104.016 85.29 103.872L84.3358 103.588L83.4086 103.3L82.4622 102.992L81.4508 102.651L80.3281 102.262L77.5152 101.269L76.402 100.892L75.5797 100.63L75.0195 100.474L74.8287 100.432L74.6925 100.412C74.6559 100.409 74.6278 100.409 74.6076 100.413C74.3845 100.454 73.8887 100.929 73.7961 101.431C73.6401 102.278 74.2989 103.453 76.2922 104.903L81.9187 108.899L85.3462 111.299L87.4083 112.719L88.491 113.454C88.7338 113.618 89.0688 113.783 89.4942 113.947L89.9497 114.111L90.4651 114.275L91.0398 114.437C91.2413 114.491 91.4526 114.545 91.6736 114.599L92.3661 114.759L93.1167 114.918L93.9251 115.075L94.7909 115.23L95.7137 115.382L97.2038 115.605L98.4215 115.772L101.619 121.311C102.013 121.993 101.769 122.871 101.073 123.273C100.431 123.644 99.6292 123.478 99.1999 122.914L99.1006 122.765L96.5921 118.421L96.1182 118.352C95.723 118.294 95.3395 118.235 94.9678 118.175L93.8876 117.993C93.1907 117.869 92.5402 117.743 91.9354 117.612L91.0623 117.414C89.2446 116.976 87.906 116.495 87.0225 115.953L86.8345 115.832L86.1857 115.391ZM111.93 86.8185C116.228 79.1876 118.679 70.3791 118.679 61C118.679 48.2323 114.137 36.5254 106.58 27.4072L97.1391 36.8482C102.076 43.4417 105 51.6294 105 60.5C105 64.4691 104.415 68.3015 103.325 71.9155L111.93 86.8185ZM99.2533 66.2375C99.6626 64.5085 99.6625 63.2874 99.6622 60.7185L99.6622 60.5C99.6622 41.6328 84.3672 26.3378 65.5 26.3378C46.6328 26.3378 31.3378 41.6328 31.3378 60.5C31.3378 79.3672 46.6328 94.6622 65.5 94.6622C69.9592 94.6622 74.22 93.8075 78.1268 92.2526L71.9815 81.6085C70.6031 79.2211 71.4591 76.1464 73.8933 74.741C74.5694 74.3507 75.296 74.1302 76.0225 74.0664L74.7127 71.7978C73.3344 69.4104 74.1903 66.3357 76.6246 64.9303C78.9777 63.5717 81.9443 64.2703 83.3845 66.4749L83.4056 66.5092C83.8261 65.9114 84.3826 65.3915 85.0605 65.0001C87.4104 63.6434 90.3694 64.322 91.8004 66.5101L91.9429 66.7418L92.5586 67.8083C92.9786 67.213 93.5337 66.6952 94.2094 66.3051C95.835 65.3665 97.7522 65.402 99.2533 66.2375ZM80.8209 96.9188C79.7048 97.3889 78.5626 97.8092 77.397 98.1769L77.4389 98.1905L78.7411 98.6398L81.3201 99.5528L82.5955 99.9926L80.8209 96.9188ZM101.024 21.6497C91.7155 13.3588 79.4461 8.3211 66 8.3211C52.8069 8.3211 40.7466 13.171 31.5047 21.1851L40.3552 30.0357C47.1859 24.3913 55.9469 21 65.5 21C75.5612 21 84.7439 24.7617 91.7183 30.9553L101.024 21.6497ZM13.3211 61C13.3211 47.9789 18.0454 36.0612 25.8733 26.8675L34.7325 35.7266C29.2701 42.5022 26 51.1192 26 60.5C26 70.832 29.9669 80.2374 36.4606 87.2765L27.1545 96.5826C18.5637 87.2092 13.3211 74.7168 13.3211 61Z" fill="#000091"/>
</svg>
