<svg width="131" height="131" viewBox="0 0 131 131" fill="none" xmlns="http://www.w3.org/2000/svg">
<path d="M78.1611 73.5C80.4557 73.5001 82.7472 74.6207 84.1826 76.6016L92.7188 87.959L92.7256 87.9688C93.224 88.6663 94.0222 89.0654 94.8057 89.0654H108.548C113.647 89.0654 118.521 91.0522 122.076 94.5771C122.083 94.5844 122.091 94.5915 122.099 94.5986L122.12 94.6211L122.126 94.626L122.132 94.6328C124.295 96.926 125.5 99.9603 125.5 103.114V114.548C125.5 115.889 124.407 116.97 123.064 116.97H117.546C117.097 119.499 115.967 121.793 114.348 123.656H123.064C124.407 123.656 125.5 124.737 125.5 126.078C125.5 127.419 124.407 128.5 123.064 128.5H6.93555C5.59354 128.5 4.5 127.419 4.5 126.078C4.50009 124.737 5.5936 123.656 6.93555 123.656H19.5234C17.904 121.793 16.7741 119.499 16.3252 116.97H10.6133C7.37426 116.97 4.67349 114.424 4.50781 111.21L4.5 110.896V98.0205C4.50024 93.0668 8.53515 89.0657 13.5156 89.0654H20.2324C20.981 89.0654 21.7155 88.7622 22.2461 88.2354L34.8262 75.7441C36.2702 74.3105 38.2455 73.5001 40.2832 73.5H78.1611ZM30.1621 105.439C25.093 105.439 20.9845 109.524 20.9844 114.548C20.9844 119.572 25.093 123.656 30.1621 123.656C35.2311 123.656 39.3389 119.572 39.3389 114.548C39.3387 109.524 35.231 105.44 30.1621 105.439ZM43.998 116.97C43.5491 119.499 42.4193 121.793 40.7998 123.656H93.0713C91.4519 121.793 90.3229 119.499 89.874 116.97H43.998ZM103.71 105.439C98.6409 105.439 94.5323 109.524 94.5322 114.548C94.5322 119.572 98.6408 123.656 103.71 123.656C108.779 123.656 112.888 119.572 112.888 114.548C112.888 109.524 108.779 105.439 103.71 105.439ZM107.581 112.126C108.923 112.126 110.016 113.207 110.017 114.548C110.017 117.998 107.176 120.813 103.71 120.813C100.244 120.813 97.4033 117.998 97.4033 114.548C97.4034 113.207 98.4969 112.126 99.8389 112.126C101.181 112.126 102.274 113.207 102.274 114.548C102.274 115.325 102.918 115.97 103.71 115.97C104.502 115.97 105.146 115.325 105.146 114.548C105.146 113.207 106.239 112.126 107.581 112.126ZM30.1621 108.283C33.6282 108.283 36.4677 111.098 36.4678 114.548C36.4678 115.889 35.3751 116.969 34.0332 116.97C32.6911 116.97 31.5977 115.889 31.5977 114.548C31.5975 113.771 30.9536 113.126 30.1621 113.126C29.3704 113.126 28.7267 113.771 28.7266 114.548C28.7266 115.889 27.6331 116.97 26.291 116.97C24.9489 116.97 23.8555 115.889 23.8555 114.548C23.8556 111.098 26.6959 108.283 30.1621 108.283ZM40.2852 78.3438C39.5366 78.3438 38.8013 78.6469 38.2705 79.1738L25.6904 91.6641C24.2464 93.0978 22.2713 93.9092 20.2334 93.9092H13.5176C11.2212 93.9092 9.37228 95.7492 9.37207 98.0205V110.896C9.37207 111.571 9.93204 112.126 10.6143 112.126H16.3271C17.4867 105.577 23.2404 100.596 30.1621 100.596C37.0839 100.596 42.8372 105.577 43.9971 112.126H89.875C91.0345 105.577 96.7884 100.596 103.71 100.596C110.632 100.596 116.386 105.577 117.546 112.126H120.63V103.114C120.63 101.21 119.907 99.3754 118.591 97.96C115.954 95.3676 112.333 93.9092 108.549 93.9092H94.8066C92.5092 93.9091 90.2145 92.7862 88.7793 90.8008L80.249 79.4502L80.2422 79.4404C79.7438 78.7429 78.9455 78.3438 78.1621 78.3438H40.2852ZM61.1299 81.3789C62.4718 81.3791 63.5644 82.4597 63.5645 83.8008V92.9092H88.2256C89.5677 92.9092 90.6611 93.9898 90.6611 95.3311C90.6611 96.6723 89.5677 97.7529 88.2256 97.7529H30.1611C28.819 97.7529 27.7256 96.6723 27.7256 95.3311C27.7256 93.9898 28.819 92.9092 30.1611 92.9092H58.6943V83.8008C58.6944 82.4596 59.7878 81.3789 61.1299 81.3789Z" fill="#000091"/>
<path d="M48.5 68.5V4L54.5 7.5L60.5622 4L66.6244 7.5L72.6865 4L78.7487 7.5L84.8109 4L90.8731 7.5L96.9352 4L103 7.5L109.5 4V88" stroke="#000091" stroke-width="2.5" stroke-linecap="round" stroke-linejoin="round"/>
<path fill-rule="evenodd" clip-rule="evenodd" d="M91.8333 17.831V40.0024C91.8333 40.49 91.6396 40.955 91.2973 41.2973C90.955 41.6396 90.49 41.8333 90.0024 41.8333H67.831C67.3434 41.8333 66.8784 41.6396 66.5361 41.2973C66.1938 40.955 66 40.49 66 40.0024V17.831C66 17.3433 66.1938 16.8784 66.5361 16.536C66.8783 16.1938 67.3434 16 67.831 16H90.0024C90.49 16 90.955 16.1938 91.2973 16.536C91.6396 16.8783 91.8333 17.3433 91.8333 17.831ZM77.6245 28.9489C78.4156 28.9425 79.5652 28.936 81.0409 28.9295C83.437 28.9198 85.3745 26.9759 85.3745 24.5798V24.5766C85.3745 21.9803 83.2691 19.8749 80.6728 19.8749H76.3328C75.6191 19.8749 75.0411 20.4529 75.0411 21.1666V36.6667C75.0411 37.3804 75.6191 37.9584 76.3328 37.9584C77.0464 37.9584 77.6245 37.3804 77.6245 36.6667V28.9489ZM77.6245 26.3656C78.4188 26.3591 79.562 26.3526 81.0313 26.3462C82.0033 26.3429 82.7912 25.5518 82.7912 24.5798V24.5766C82.7912 23.4076 81.8418 22.4582 80.6728 22.4582H77.6245V26.3656Z" fill="#000091"/>
<path d="M59 49H99" stroke="#000091" stroke-width="2.5" stroke-linecap="round"/>
<path d="M59 55H86" stroke="#000091" stroke-width="2.5" stroke-linecap="round"/>
<path d="M59 61H99" stroke="#000091" stroke-width="2.5" stroke-linecap="round"/>
<path d="M79 67L99 67" stroke="#000091" stroke-width="2.5" stroke-linecap="round"/>
</svg>
