<svg width="131" height="131" viewBox="0 0 131 131" fill="none" xmlns="http://www.w3.org/2000/svg">
<path d="M64.8662 69.6656C69.8319 69.6656 73.8574 65.64 73.8574 60.6743C73.8574 55.7086 69.8319 51.6831 64.8662 51.6831C59.9005 51.6831 55.875 55.7086 55.875 60.6743C55.875 65.64 59.9005 69.6656 64.8662 69.6656Z" stroke="#000091" stroke-width="5" stroke-miterlimit="10" stroke-linecap="round"/>
<path d="M53.0619 72.7251C53.0619 72.7251 50.1914 73.895 50.1914 77.6158C50.1914 81.3367 50.1914 99.0898 50.1914 99.0898L56.0827 102.492V124.071H70.176" stroke="#000091" stroke-width="5" stroke-miterlimit="10" stroke-linecap="round"/>
<path d="M109.031 69.6645C113.996 69.6645 118.021 65.6395 118.021 60.6743C118.021 55.7091 113.996 51.6841 109.031 51.6841C104.066 51.6841 100.041 55.7091 100.041 60.6743C100.041 65.6395 104.066 69.6645 109.031 69.6645Z" stroke="#000091" stroke-width="5" stroke-miterlimit="10" stroke-linecap="round"/>
<path d="M119.131 72.7251C119.131 72.7251 122.001 73.895 122.001 77.6158C122.001 81.3367 122.001 95.6874 122.001 95.6874L116.109 97.3881V124.071H102.016" stroke="#000091" stroke-width="5" stroke-miterlimit="10" stroke-linecap="round"/>
<path d="M91.8682 52.5342C96.8339 52.5342 100.859 48.5087 100.859 43.543C100.859 38.5773 96.8339 34.5518 91.8682 34.5518C86.9025 34.5518 82.877 38.5773 82.877 43.543C82.877 48.5087 86.9025 52.5342 91.8682 52.5342Z" stroke="#000091" stroke-width="5" stroke-miterlimit="10" stroke-linecap="round"/>
<path d="M82.0219 54.0146C82.0219 54.0146 79.1523 55.1845 79.1523 58.9054" stroke="#000091" stroke-width="5" stroke-miterlimit="10" stroke-linecap="round"/>
<path d="M86.3018 90.5625C91.2675 90.5625 95.293 86.537 95.293 81.5713C95.293 76.6056 91.2675 72.5801 86.3018 72.5801C81.3361 72.5801 77.3105 76.6056 77.3105 81.5713C77.3105 86.537 81.3361 90.5625 86.3018 90.5625Z" stroke="#000091" stroke-width="5" stroke-miterlimit="10" stroke-linecap="round"/>
<path d="M94.2052 94.6265C94.2052 94.6265 96.3366 95.8704 97.0758 99.5162C98.0683 104.406 99.6268 115.889 99.6268 115.889H92.0358V124.072H86.3027" stroke="#000091" stroke-width="5" stroke-miterlimit="10" stroke-linecap="round"/>
<path d="M78.7663 94.6265C78.7663 94.6265 76.635 95.8704 75.8948 99.5162C74.9022 104.406 73.3438 115.889 73.3438 115.889H80.9358V124.072H86.6678" stroke="#000091" stroke-width="5" stroke-miterlimit="10" stroke-linecap="round"/>
<path d="M45.5205 49.9824C50.4862 49.9824 54.5117 45.9569 54.5117 40.9912C54.5117 36.0255 50.4862 32 45.5205 32C40.5548 32 36.5293 36.0255 36.5293 40.9912C36.5293 45.9569 40.5548 49.9824 45.5205 49.9824Z" stroke="#000091" stroke-width="5" stroke-miterlimit="10" stroke-linecap="round"/>
<path d="M32.8705 53.1646C32.8705 53.1646 30 54.3344 30 58.0553C30 61.7762 30 81.231 30 81.231L35.8913 84.6323V124.072H47.4336" stroke="#000091" stroke-width="5" stroke-miterlimit="10" stroke-linecap="round"/>
<path d="M85.9906 7.23305C85.9102 6.53885 85.3215 6 84.6071 6H9.39286L9.23042 6.00939C8.5377 6.09002 8 6.68 8 7.39583V71.6042L8.00937 71.767C8.08983 72.4612 8.67855 73 9.39286 73H28.8929L29.0553 72.9906C29.748 72.91 30.2857 72.32 30.2857 71.6042L30.2763 71.4414C30.1959 70.7472 29.6072 70.2083 28.8929 70.2083H10.7857V19.9583H62.3214L62.4839 19.9489C63.1766 19.8683 63.7143 19.2783 63.7143 18.5625C63.7143 17.7916 63.0907 17.1667 62.3214 17.1667H10.7857V8.79167H83.2143V17.1667H70.6786L70.5161 17.1761C69.8234 17.2567 69.2857 17.8467 69.2857 18.5625C69.2857 19.3334 69.9093 19.9583 70.6786 19.9583H83.2143V28.4375L83.2237 28.6003C83.3041 29.2945 83.8928 29.8333 84.6071 29.8333C85.3764 29.8333 86 29.2084 86 28.4375V7.39583L85.9906 7.23305Z" fill="#000091"/>
<path d="M14.9643 14.375C14.1963 14.375 13.5714 13.7488 13.5714 12.9792C13.5714 12.2094 14.1963 11.5833 14.9643 11.5833C15.7323 11.5833 16.3571 12.2094 16.3571 12.9792C16.3571 13.7488 15.7323 14.375 14.9643 14.375Z" fill="#000091"/>
<path d="M19.1429 12.9792C19.1429 13.7488 19.7677 14.375 20.5357 14.375C21.3037 14.375 21.9286 13.7488 21.9286 12.9792C21.9286 12.2094 21.3037 11.5833 20.5357 11.5833C19.7677 11.5833 19.1429 12.2094 19.1429 12.9792Z" fill="#000091"/>
<path d="M26.1071 14.375C25.3391 14.375 24.7143 13.7488 24.7143 12.9792C24.7143 12.2094 25.3391 11.5833 26.1071 11.5833C26.8752 11.5833 27.5 12.2094 27.5 12.9792C27.5 13.7488 26.8752 14.375 26.1071 14.375Z" fill="#000091"/>
<path d="M79.0357 11.5833C79.805 11.5833 80.4286 12.2083 80.4286 12.9792C80.4286 13.695 79.8909 14.285 79.1982 14.3656L79.0357 14.375H37.25C36.4807 14.375 35.8571 13.7501 35.8571 12.9792C35.8571 12.2633 36.3948 11.6734 37.0876 11.5927L37.25 11.5833H79.0357Z" fill="#000091"/>
<path d="M36 29.7292C36 28.9583 35.3764 28.3333 34.6071 28.3333H17.5357L17.3733 28.3427C16.6806 28.4234 16.1429 29.0133 16.1429 29.7292C16.1429 30.5001 16.7665 31.125 17.5357 31.125H34.6071L34.7696 31.1156C35.4623 31.035 36 30.445 36 29.7292Z" fill="#000091"/>
<path d="M29.0357 36.7083C29.805 36.7083 30.4286 37.3333 30.4286 38.1042C30.4286 38.82 29.8909 39.41 29.1982 39.4906L29.0357 39.5H17.5357C16.7665 39.5 16.1429 38.8751 16.1429 38.1042C16.1429 37.3883 16.6806 36.7984 17.3733 36.7177L17.5357 36.7083H29.0357Z" fill="#000091"/>
<path d="M27.6429 46.4792C27.6429 45.7083 27.0193 45.0833 26.25 45.0833H17.5357L17.3733 45.0927C16.6806 45.1734 16.1429 45.7633 16.1429 46.4792C16.1429 47.2501 16.7665 47.875 17.5357 47.875H26.25L26.4124 47.8656C27.1052 47.785 27.6429 47.195 27.6429 46.4792Z" fill="#000091"/>
</svg>
