<svg width="131" height="131" viewBox="0 0 131 131" fill="none" xmlns="http://www.w3.org/2000/svg">
<path fill-rule="evenodd" clip-rule="evenodd" d="M72.2545 31.0464C75.5455 32.3788 77.8711 35.2124 77.9948 38.5647L78 38.8462H75.5C75.5 35.4932 72.1812 32.6923 68 32.6923C63.9183 32.6923 60.6585 35.3614 60.5056 38.6076L60.5 38.8462H58C58 35.3715 60.3628 32.416 63.7455 31.0464C62.5179 29.9228 61.75 28.3189 61.75 26.5385C61.75 23.1398 64.5482 20.3846 68 20.3846C71.4518 20.3846 74.25 23.1398 74.25 26.5385C74.25 28.3189 73.4821 29.9228 72.2545 31.0464ZM68 30.2308C70.0711 30.2308 71.75 28.5777 71.75 26.5385C71.75 24.4993 70.0711 22.8462 68 22.8462C65.9289 22.8462 64.25 24.4993 64.25 26.5385C64.25 28.5777 65.9289 30.2308 68 30.2308Z" fill="#000091"/>
<path fill-rule="evenodd" clip-rule="evenodd" d="M56.75 13H79.25C81.3211 13 83 14.6531 83 16.6923V41.3077C83 43.3469 81.3211 45 79.25 45H56.75C54.6789 45 53 43.3469 53 41.3077V16.6923C53 14.6531 54.6789 13 56.75 13ZM79.25 15.4615H56.75C56.0596 15.4615 55.5 16.0126 55.5 16.6923V41.3077C55.5 41.9874 56.0596 42.5385 56.75 42.5385H79.25C79.9404 42.5385 80.5 41.9874 80.5 41.3077V16.6923C80.5 16.0126 79.9404 15.4615 79.25 15.4615Z" fill="#000091"/>
<path d="M46.0057 42.2933C46.1416 45.5461 48.6996 45.7083 51.8726 45.7083H54.6406L54.7846 45.7001C55.3985 45.6291 55.875 45.1095 55.875 44.4792L55.8667 44.3358C55.7954 43.7245 55.2737 43.25 54.6406 43.25H51.8726L51.6744 43.2438C49.9024 43.1327 48.4688 44.0006 48.4688 42.0208V12.1458L48.4746 11.9275C48.5793 9.97804 50.0771 8.45833 51.8726 8.45833H106.484L106.628 8.45006C107.242 8.37906 107.719 7.85953 107.719 7.22917C107.719 6.55032 107.166 6 106.484 6H51.8726L51.6097 6.00602C48.4722 6.15008 46 8.85946 46 12.1458V42.0208L46.0057 42.2933Z" fill="#000091"/>
<path d="M124.994 11.8733C124.858 8.62056 122.3 6 119.127 6H113.891L113.747 6.00827C113.133 6.07927 112.656 6.59881 112.656 7.22917C112.656 7.90802 113.209 8.45833 113.891 8.45833H119.127L119.326 8.46453C121.098 8.57561 122.531 10.166 122.531 12.1458V58.8542L122.525 59.0725C122.421 61.022 120.923 62.5417 119.127 62.5417H97.3281L97.1842 62.5499C96.5703 62.6209 96.0938 63.1405 96.0938 63.7708C96.0938 64.4497 96.6464 65 97.3281 65H119.127L119.39 64.994C122.528 64.8499 125 62.1405 125 58.8542V12.1458L124.994 11.8733Z" fill="#000091"/>
<path d="M105.25 56.3958C105.25 55.717 104.697 55.1667 104.016 55.1667H101.547L101.403 55.1749C100.789 55.2459 100.312 55.7655 100.312 56.3958C100.312 57.0747 100.865 57.625 101.547 57.625H104.016L104.16 57.6167C104.773 57.5457 105.25 57.0262 105.25 56.3958Z" fill="#000091"/>
<path d="M116.359 55.1667C117.041 55.1667 117.594 55.717 117.594 56.3958C117.594 57.0262 117.117 57.5457 116.503 57.6167L116.359 57.625H108.953C108.271 57.625 107.719 57.0747 107.719 56.3958C107.719 55.7655 108.195 55.2459 108.809 55.1749L108.953 55.1667H116.359Z" fill="#000091"/>
<path d="M97.2031 57.625C96.5225 57.625 95.9688 57.0736 95.9688 56.3958C95.9688 55.718 96.5225 55.1667 97.2031 55.1667C97.8838 55.1667 98.4375 55.718 98.4375 56.3958C98.4375 57.0736 97.8838 57.625 97.2031 57.625Z" fill="#000091"/>
<path d="M115.125 17.0625C115.125 16.3836 114.572 15.8333 113.891 15.8333H91.6719L91.5279 15.8416C90.914 15.9126 90.4375 16.4321 90.4375 17.0625C90.4375 17.7414 90.9901 18.2917 91.6719 18.2917H113.891L114.035 18.2834C114.648 18.2124 115.125 17.6929 115.125 17.0625Z" fill="#000091"/>
<path d="M101.547 20.75C102.229 20.75 102.781 21.3003 102.781 21.9792C102.781 22.6095 102.305 23.1291 101.691 23.2001L101.547 23.2083H91.6719C90.9901 23.2083 90.4375 22.658 90.4375 21.9792C90.4375 21.3488 90.914 20.8293 91.5279 20.7583L91.6719 20.75H101.547Z" fill="#000091"/>
<path d="M105.25 21.9792C105.25 22.6569 105.804 23.2083 106.484 23.2083C107.165 23.2083 107.719 22.6569 107.719 21.9792C107.719 21.3013 107.165 20.75 106.484 20.75C105.804 20.75 105.25 21.3013 105.25 21.9792Z" fill="#000091"/>
<path d="M106.484 25.6667C107.166 25.6667 107.719 26.217 107.719 26.8958C107.719 27.5262 107.242 28.0457 106.628 28.1167L106.484 28.125H91.6719C90.9901 28.125 90.4375 27.5747 90.4375 26.8958C90.4375 26.2655 90.914 25.7459 91.5279 25.6749L91.6719 25.6667H106.484Z" fill="#000091"/>
<path fill-rule="evenodd" clip-rule="evenodd" d="M94.7578 33.0417C92.3718 33.0417 90.4375 34.9678 90.4375 37.3437C90.4375 39.7197 92.3718 41.6458 94.7578 41.6458C97.1439 41.6458 99.0781 39.7197 99.0781 37.3437C99.0781 34.9678 97.1439 33.0417 94.7578 33.0417ZM94.7578 35.5C95.7804 35.5 96.6094 36.3255 96.6094 37.3437C96.6094 38.362 95.7804 39.1875 94.7578 39.1875C93.7352 39.1875 92.9062 38.362 92.9062 37.3437C92.9062 36.3255 93.7352 35.5 94.7578 35.5Z" fill="#000091"/>
<path d="M113.891 45.3333C114.572 45.3333 115.125 45.8837 115.125 46.5625C115.125 47.1929 114.648 47.7124 114.035 47.7834L113.891 47.7917H91.6719C90.9901 47.7917 90.4375 47.2413 90.4375 46.5625C90.4375 45.9321 90.914 45.4126 91.5279 45.3416L91.6719 45.3333H113.891Z" fill="#000091"/>
<path fill-rule="evenodd" clip-rule="evenodd" d="M12.1219 50.3459C12.1219 46.2691 15.391 43 19.4678 43H73.3145C77.3717 43 80.6951 46.2497 80.6951 50.3459V54.1712H82.0017V53.9138C82.0017 52.689 82.9946 51.6962 84.2193 51.6962H90.5993C91.8241 51.6962 92.8169 52.689 92.8169 53.9138V66.7287C92.8169 67.9535 91.8241 68.9464 90.5993 68.9464H84.2193C82.9946 68.9464 82.0017 67.9535 82.0017 66.7287V58.6065H80.6951V116.078C80.6951 117.302 79.7021 118.295 78.4774 118.295H74.5619V122.419C74.5619 124.457 72.9506 126.23 70.7851 126.23H67.216C65.1137 126.23 63.4045 124.521 63.4045 122.419V118.295H29.4125V122.419C29.4125 124.521 27.7033 126.23 25.601 126.23H22.0319C19.8664 126.23 18.2551 124.457 18.2551 122.419V118.295H14.3395C13.1147 118.295 12.1219 117.302 12.1219 116.078V58.6065H10.8152V66.7287C10.8152 67.9535 9.82238 68.9464 8.59762 68.9464H2.21762C0.992861 68.9464 0 67.9535 0 66.7287V53.9138C0 52.689 0.992861 51.6962 2.21762 51.6962H8.59762C9.82238 51.6962 10.8152 52.689 10.8152 53.9138V54.1712H12.1219V50.3459ZM67.8397 118.295V121.795H70.1267V118.295H67.8397ZM22.6903 118.295H24.9773V121.795H22.6903V118.295ZM76.2598 50.3459V54.1712H16.5572V50.3459C16.5572 48.7186 17.8405 47.4352 19.4678 47.4352H73.3145C74.9613 47.4352 76.2598 48.738 76.2598 50.3459ZM16.5572 84.9516V58.6065H76.2598V84.9516H16.5572ZM16.5572 92.0798V89.3869H76.2598V92.0798H16.5572ZM16.5572 96.5151V113.86H76.2598V96.5151H16.5572ZM22.4131 105.202C22.4131 101.27 25.6534 98.0296 29.5857 98.0296C33.5181 98.0296 36.7237 101.27 36.7237 105.202C36.7237 109.135 33.5181 112.34 29.5857 112.34C25.6534 112.34 22.4131 109.135 22.4131 105.202ZM32.2884 105.202C32.2884 103.667 31.1211 102.465 29.5857 102.465C28.0503 102.465 26.8484 103.667 26.8484 105.202C26.8484 106.738 28.0503 107.905 29.5857 107.905C31.1211 107.905 32.2884 106.738 32.2884 105.202ZM63.2313 98.0296C67.1636 98.0296 70.4039 101.27 70.4039 105.202C70.4039 109.135 67.1636 112.34 63.2313 112.34C59.2989 112.34 56.0933 109.135 56.0933 105.202C56.0933 101.27 59.2989 98.0296 63.2313 98.0296ZM63.2313 102.465C61.6959 102.465 60.5286 103.667 60.5286 105.202C60.5286 106.738 61.6959 107.905 63.2313 107.905C64.7665 107.905 65.9686 106.738 65.9686 105.202C65.9686 103.667 64.7665 102.465 63.2313 102.465ZM42.9572 102.97C41.7325 102.97 40.7396 103.963 40.7396 105.187C40.7396 106.412 41.7325 107.405 42.9572 107.405H49.9588C51.1835 107.405 52.1764 106.412 52.1764 105.187C52.1764 103.963 51.1835 102.97 49.9588 102.97H42.9572ZM86.437 56.1314V64.5111H88.3817V56.1314H86.437ZM6.37999 64.5111V56.1314H4.43525V64.5111H6.37999Z" fill="#000091"/>
</svg>
