<svg width="131" height="131" viewBox="0 0 131 131" fill="none" xmlns="http://www.w3.org/2000/svg">
<path d="M116 103L116 113" stroke="#000091" stroke-width="4" stroke-linecap="round" stroke-linejoin="round"/>
<path d="M98 103L98 113" stroke="#000091" stroke-width="4" stroke-linecap="round" stroke-linejoin="round"/>
<path d="M104 103L104 113" stroke="#000091" stroke-width="4" stroke-linecap="round" stroke-linejoin="round"/>
<path d="M110 103L110 113" stroke="#000091" stroke-width="4" stroke-linecap="round" stroke-linejoin="round"/>
<path d="M107.757 91L121.514 98.1333H93.9997L107.757 91Z" stroke="#000091" stroke-width="3" stroke-linecap="round" stroke-linejoin="round"/>
<path d="M119.475 114H95.0177" stroke="#000091" stroke-width="4" stroke-linecap="round" stroke-linejoin="round"/>
<path d="M116 62L116 72" stroke="#000091" stroke-width="4" stroke-linecap="round" stroke-linejoin="round"/>
<path d="M98 62L98 72" stroke="#000091" stroke-width="4" stroke-linecap="round" stroke-linejoin="round"/>
<path d="M104 62L104 72" stroke="#000091" stroke-width="4" stroke-linecap="round" stroke-linejoin="round"/>
<path d="M110 62L110 72" stroke="#000091" stroke-width="4" stroke-linecap="round" stroke-linejoin="round"/>
<path d="M107.757 50L121.514 57.1333H93.9997L107.757 50Z" stroke="#000091" stroke-width="3" stroke-linecap="round" stroke-linejoin="round"/>
<path d="M119.475 73H95.0177" stroke="#000091" stroke-width="4" stroke-linecap="round" stroke-linejoin="round"/>
<path d="M116 23L116 33" stroke="#000091" stroke-width="4" stroke-linecap="round" stroke-linejoin="round"/>
<path d="M98 23L98 33" stroke="#000091" stroke-width="4" stroke-linecap="round" stroke-linejoin="round"/>
<path d="M104 23L104 33" stroke="#000091" stroke-width="4" stroke-linecap="round" stroke-linejoin="round"/>
<path d="M110 23L110 33" stroke="#000091" stroke-width="4" stroke-linecap="round" stroke-linejoin="round"/>
<path d="M107.757 11L121.514 18.1333H93.9997L107.757 11Z" stroke="#000091" stroke-width="3" stroke-linecap="round" stroke-linejoin="round"/>
<path d="M119.475 34H95.0177" stroke="#000091" stroke-width="4" stroke-linecap="round" stroke-linejoin="round"/>
<path d="M79 106L57 106L57 25L79 25" stroke="#000091" stroke-width="3"/>
<path d="M36 65L78 65" stroke="#000091" stroke-width="3"/>
<circle cx="77.5" cy="25.5" r="2.5" transform="rotate(-90 77.5 25.5)" fill="#000091" stroke="#000091" stroke-width="5" stroke-linecap="round" stroke-linejoin="round"/>
<circle cx="77.5" cy="65.5" r="2.5" transform="rotate(-90 77.5 65.5)" fill="#000091" stroke="#000091" stroke-width="5" stroke-linecap="round" stroke-linejoin="round"/>
<circle cx="77.5" cy="105.5" r="2.5" transform="rotate(-90 77.5 105.5)" fill="#000091" stroke="#000091" stroke-width="5" stroke-linecap="round" stroke-linejoin="round"/>
<ellipse cx="24" cy="51.3333" rx="12" ry="4.33333" stroke="#000091" stroke-width="4" stroke-linecap="round" stroke-linejoin="round"/>
<path d="M36 59C36 61.2091 30.6274 63 24 63C17.3726 63 12 61.2091 12 59" stroke="#000091" stroke-width="4" stroke-linecap="round" stroke-linejoin="round"/>
<path d="M36 67C36 69.2091 30.6274 71 24 71C17.3726 71 12 69.2091 12 67" stroke="#000091" stroke-width="4" stroke-linecap="round" stroke-linejoin="round"/>
<path d="M36 75C36 77.2091 30.6274 79 24 79C17.3726 79 12 77.2091 12 75" stroke="#000091" stroke-width="4" stroke-linecap="round" stroke-linejoin="round"/>
<path d="M36 51.668L36 75.0013" stroke="#000091" stroke-width="4" stroke-linecap="round"/>
<path d="M12 51.668L12 75.0013" stroke="#000091" stroke-width="4" stroke-linecap="round"/>
</svg>
