<svg width="133" height="133" viewBox="0 0 133 133" fill="none" xmlns="http://www.w3.org/2000/svg">
<path d="M50.0586 82.0273V82.0267C50.0586 76.5429 51.6376 71.181 54.5974 66.6192C57.5573 62.0571 61.7658 58.4992 66.6925 56.3976C71.6194 54.2959 77.0417 53.7457 82.2731 54.8173C87.5044 55.889 92.3075 58.5337 96.076 62.4147C99.8444 66.2955 102.409 71.2382 103.448 76.617C104.487 81.9958 103.954 87.5712 101.916 92.6387C99.8773 97.7064 96.4247 102.04 91.9921 105.09C87.5593 108.141 82.3462 109.77 77.012 109.77V109.27L77.0113 109.77C69.861 109.76 63.0093 106.831 57.9579 101.628C52.9069 96.4268 50.0678 89.3775 50.0586 82.0273ZM95.6243 53.315C90.1138 49.523 83.6368 47.5001 77.0123 47.5C68.1323 47.5102 59.6157 51.1475 53.332 57.6188C47.0477 64.0906 43.5104 72.8685 43.5005 82.0272C43.5006 88.859 45.4679 95.5362 49.1519 101.214C52.836 106.893 58.0708 111.316 64.1926 113.927C70.3142 116.539 77.0493 117.222 83.5469 115.891C90.0447 114.56 96.0153 111.274 100.703 106.446C105.391 101.618 108.585 95.4656 109.879 88.7653C111.173 82.0649 110.509 75.1199 107.971 68.8092C105.432 62.4985 101.135 57.1071 95.6243 53.315Z" fill="#000091" stroke="#000091"/>
<path d="M100 106L127.495 128.549" stroke="#000091" stroke-width="8" stroke-linecap="round" stroke-linejoin="round"/>
<rect x="11" y="17" width="35" height="46" stroke="#000091" stroke-width="4" stroke-linecap="round" stroke-linejoin="round"/>
<rect x="11" y="72" width="35" height="46" stroke="#000091" stroke-width="4" stroke-linecap="round" stroke-linejoin="round"/>
<rect x="55" y="17" width="35" height="46" stroke="#000091" stroke-width="4" stroke-linecap="round" stroke-linejoin="round"/>
<rect x="17" y="37" width="6" height="9" stroke="#000091" stroke-width="2" stroke-linecap="round" stroke-linejoin="round"/>
<rect x="17" y="92" width="6" height="9" stroke="#000091" stroke-width="2" stroke-linecap="round" stroke-linejoin="round"/>
<rect x="61" y="37" width="6" height="9" stroke="#000091" stroke-width="2" stroke-linecap="round" stroke-linejoin="round"/>
<rect x="17" y="23" width="6" height="9" stroke="#000091" stroke-width="2" stroke-linecap="round" stroke-linejoin="round"/>
<rect x="17" y="78" width="6" height="9" stroke="#000091" stroke-width="2" stroke-linecap="round" stroke-linejoin="round"/>
<rect x="61" y="23" width="6" height="9" stroke="#000091" stroke-width="2" stroke-linecap="round" stroke-linejoin="round"/>
<rect x="28" y="37" width="6" height="9" stroke="#000091" stroke-width="2" stroke-linecap="round" stroke-linejoin="round"/>
<rect x="26" y="52" width="10" height="11" stroke="#000091" stroke-width="4" stroke-linecap="round" stroke-linejoin="round"/>
<rect x="26" y="107" width="10" height="11" stroke="#000091" stroke-width="4" stroke-linecap="round" stroke-linejoin="round"/>
<rect x="28" y="92" width="6" height="9" stroke="#000091" stroke-width="2" stroke-linecap="round" stroke-linejoin="round"/>
<rect x="72" y="37" width="6" height="9" stroke="#000091" stroke-width="2" stroke-linecap="round" stroke-linejoin="round"/>
<rect x="28" y="23" width="6" height="9" stroke="#000091" stroke-width="2" stroke-linecap="round" stroke-linejoin="round"/>
<rect x="28" y="78" width="6" height="9" stroke="#000091" stroke-width="2" stroke-linecap="round" stroke-linejoin="round"/>
<rect x="72" y="23" width="6" height="9" stroke="#000091" stroke-width="2" stroke-linecap="round" stroke-linejoin="round"/>
<rect x="39" y="37" width="6" height="9" stroke="#000091" stroke-width="2" stroke-linecap="round" stroke-linejoin="round"/>
<rect x="39" y="92" width="6" height="9" stroke="#000091" stroke-width="2" stroke-linecap="round" stroke-linejoin="round"/>
<rect x="83" y="37" width="6" height="9" stroke="#000091" stroke-width="2" stroke-linecap="round" stroke-linejoin="round"/>
<rect x="39" y="23" width="6" height="9" stroke="#000091" stroke-width="2" stroke-linecap="round" stroke-linejoin="round"/>
<rect x="39" y="78" width="6" height="9" stroke="#000091" stroke-width="2" stroke-linecap="round" stroke-linejoin="round"/>
<rect x="83" y="23" width="6" height="9" stroke="#000091" stroke-width="2" stroke-linecap="round" stroke-linejoin="round"/>
<rect x="57" y="72" width="40" height="52" stroke="#000091" stroke-width="4" stroke-linecap="round" stroke-linejoin="round"/>
<rect x="66" y="79" width="7" height="10" stroke="#000091" stroke-width="3" stroke-linecap="round" stroke-linejoin="round"/>
<rect x="65" y="95" width="7" height="10" stroke="#000091" stroke-width="2" stroke-linecap="round" stroke-linejoin="round"/>
<rect x="78" y="79" width="7" height="10" stroke="#000091" stroke-width="3" stroke-linecap="round" stroke-linejoin="round"/>
<rect x="77" y="95" width="7" height="10" stroke="#000091" stroke-width="2" stroke-linecap="round" stroke-linejoin="round"/>
<rect x="90" y="79" width="7" height="10" stroke="#000091" stroke-width="3" stroke-linecap="round" stroke-linejoin="round"/>
<rect x="89" y="95" width="7" height="10" stroke="#000091" stroke-width="2" stroke-linecap="round" stroke-linejoin="round"/>
<rect x="-0.5" y="0.5" width="37" height="13" rx="1.5" transform="matrix(-1 0 0 1 100 77)" fill="#000091" stroke="#000091"/>
<circle r="2.5" transform="matrix(-1 0 0 1 81 84)" fill="white" stroke="#000091"/>
<circle r="2.5" transform="matrix(-1 0 0 1 93 84)" fill="white" stroke="#000091"/>
</svg>
