<svg width="133" height="133" viewBox="0 0 133 133" fill="none" xmlns="http://www.w3.org/2000/svg">
<ellipse rx="14.2137" ry="14.2137" transform="matrix(-1 0 0 1 77.1603 74.1161)" stroke="#000091" stroke-width="5" stroke-linecap="round" stroke-linejoin="round"/>
<ellipse rx="11.1679" ry="11.1679" transform="matrix(-1 0 0 1 27.4122 23.3515)" stroke="#000091" stroke-width="4" stroke-linecap="round" stroke-linejoin="round"/>
<ellipse rx="11.1679" ry="11.1679" transform="matrix(-1 0 0 1 77.1603 23.3515)" stroke="#000091" stroke-width="5" stroke-linecap="round" stroke-linejoin="round"/>
<ellipse rx="11.1679" ry="11.1679" transform="matrix(-1 0 0 1 27.4122 78.1758)" stroke="#000091" stroke-width="5" stroke-linecap="round" stroke-linejoin="round"/>
<path d="M56.855 54.8249C56.855 43.6105 65.946 34.5195 77.1603 34.5195C88.3746 34.5195 97.4657 43.6105 97.4657 54.8249" stroke="#000091" stroke-width="5" stroke-linejoin="round"/>
<path d="M77.1603 89.3438C88.3746 89.3438 97.4657 98.0744 97.4657 108.844V124.878H56.855V108.844C56.855 98.0744 65.946 89.3438 77.1603 89.3438Z" stroke="#000091" stroke-width="4" stroke-linejoin="round"/>
<path d="M19.4931 71.0691C18.062 71.0691 9.67352 71.0691 8.12213 71.0691V54.5772C8.12213 43.4997 17.2131 34.5195 28.4275 34.5195C39.6418 34.5195 48.7328 43.4997 48.7328 54.5772V71.0691C47.0342 71.0691 38.5116 71.0691 36.9557 71.0691" stroke="#000091" stroke-width="4" stroke-linejoin="round"/>
<path d="M28.4275 89.3438C39.6418 89.3438 48.7328 98.0744 48.7328 108.844V124.878H8.12213V108.844C8.12213 98.0744 17.2131 89.3438 28.4275 89.3438Z" stroke="#000091" stroke-width="5" stroke-linejoin="round"/>
<rect x="-0.5" y="0.5" width="21" height="8" rx="2.5" transform="matrix(-1 0 0 1 91 69)" fill="#000091" stroke="#000091"/>
<circle r="1.5" transform="matrix(-1 0 0 1 78 74)" fill="white" stroke="#000091"/>
<circle r="1.5" transform="matrix(-1 0 0 1 86 74)" fill="white" stroke="#000091"/>
<path d="M76.6527 105.41H76.652C69.5017 105.401 62.65 102.471 57.5985 97.2691C52.5476 92.0674 49.7085 85.0181 49.6993 77.668V77.6673C49.6993 72.1835 51.2783 66.8217 54.2381 62.2598C57.198 57.6978 61.4065 54.1398 66.3332 52.0382C71.2601 49.9365 76.6824 49.3863 81.9138 50.458C87.1451 51.5296 91.9482 54.1743 95.7167 58.0553C99.4851 61.9361 102.05 66.8789 103.089 72.2577C104.128 77.6364 103.594 83.2118 101.556 88.2794C99.518 93.347 96.0654 97.6808 91.6328 100.731C87.2 103.781 81.9869 105.41 76.6527 105.41ZM95.265 48.9556C89.7545 45.1637 83.2775 43.1407 76.6529 43.1406C67.773 43.1508 59.2564 46.7881 52.9727 53.2594C46.6884 59.7313 43.1511 68.5091 43.1412 77.6679C43.1413 84.4996 45.1086 91.1768 48.7926 96.855C52.4767 102.533 57.7115 106.956 63.8332 109.568C69.9548 112.179 76.69 112.862 83.1876 111.531C89.6854 110.2 95.656 106.914 100.344 102.087C105.031 97.2589 108.226 91.1062 109.52 84.4059C110.814 77.7055 110.149 70.7605 107.611 64.4498C105.073 58.1391 100.776 52.7477 95.265 48.9556Z" fill="#000091" stroke="#000091"/>
<line x1="4" y1="-4" x2="42.2749" y2="-4" transform="matrix(0.759257 0.650791 0.650791 -0.759257 97.8655 97.4961)" stroke="#000091" stroke-width="8" stroke-linecap="round" stroke-linejoin="round"/>
</svg>
