<svg width="131" height="131" viewBox="0 0 131 131" fill="none" xmlns="http://www.w3.org/2000/svg">
<path d="M116 97V26H16V97H116Z" stroke="#000091" stroke-width="5" stroke-linecap="round" stroke-linejoin="round"/>
<path d="M72 113V97H61V113H72Z" stroke="#000091" stroke-width="5" stroke-linecap="round" stroke-linejoin="round"/>
<path d="M116 82H16" stroke="#000091" stroke-width="5" stroke-linecap="round" stroke-linejoin="round"/>
<path d="M98 113L34 113" stroke="#000091" stroke-width="6" stroke-linecap="round" stroke-linejoin="round"/>
<rect x="25" y="58" width="40" height="24" stroke="#000091" stroke-width="4" stroke-linecap="round" stroke-linejoin="round"/>
<path d="M52 40L106 40" stroke="#000091" stroke-width="4" stroke-linecap="round" stroke-linejoin="round"/>
<path d="M52 47L94 47" stroke="#000091" stroke-width="4" stroke-linecap="round" stroke-linejoin="round"/>
<path d="M79.4306 82C76.6989 79.356 75 75.6463 75 71.5387C75 63.5092 81.4919 57 89.5 57C97.5081 57 104 63.5092 104 71.5387C104 75.4405 102.467 78.9832 99.9722 81.5946" stroke="#000091" stroke-width="4"/>
<path d="M83 69.913L88.2812 75L96 66" stroke="#000091" stroke-width="5" stroke-linecap="round" stroke-linejoin="round"/>
<path d="M40 42L40 46" stroke="#000091" stroke-width="3" stroke-linecap="round" stroke-linejoin="round"/>
<path d="M28 42L28 46" stroke="#000091" stroke-width="3" stroke-linecap="round" stroke-linejoin="round"/>
<path d="M32 42L32 46" stroke="#000091" stroke-width="3" stroke-linecap="round" stroke-linejoin="round"/>
<path d="M36 42L36 46" stroke="#000091" stroke-width="3" stroke-linecap="round" stroke-linejoin="round"/>
<path d="M34.5 34L44 38.9259H25L34.5 34Z" stroke="#000091" stroke-width="2.5" stroke-linecap="round" stroke-linejoin="round"/>
<path d="M42.5918 49.8828H25.7029" stroke="#000091" stroke-width="3" stroke-linecap="round" stroke-linejoin="round"/>
</svg>
