<svg width="131" height="131" viewBox="0 0 131 131" fill="none" xmlns="http://www.w3.org/2000/svg">
<path d="M116 97V26H16V97H116Z" stroke="#000091" stroke-width="5" stroke-linecap="round" stroke-linejoin="round"/>
<path d="M72 113V97H61V113H72Z" stroke="#000091" stroke-width="5" stroke-linecap="round" stroke-linejoin="round"/>
<path d="M81 82H16" stroke="#000091" stroke-width="5" stroke-linecap="round" stroke-linejoin="round"/>
<path d="M98 113L34 113" stroke="#000091" stroke-width="6" stroke-linecap="round" stroke-linejoin="round"/>
<path d="M74.8333 82H67.5H29V38H106V82H98.0556" stroke="#000091" stroke-width="4" stroke-linecap="round" stroke-linejoin="round"/>
<path d="M84 66.913L89.2812 72L97 63" stroke="#000091" stroke-width="5" stroke-linecap="round" stroke-linejoin="round"/>
<g clip-path="url(#clip0_2104_66144)">
<path d="M99 93.2359V93.2361L90.5145 88.1444L90 87.8357L89.4855 88.1444L81 93.2361V93.2339V79.4939V79.0135L80.625 78.7133C78.199 76.7709 76.4362 74.1231 75.5802 71.1355C74.7242 68.148 74.8173 64.9684 75.8465 62.036C76.8758 59.1037 78.7904 56.5634 81.3258 54.7663C83.8613 52.9692 86.8923 52.0039 90 52.0039C93.1077 52.0039 96.1387 52.9692 98.6742 54.7663C101.21 56.5634 103.124 59.1037 104.153 62.036C105.183 64.9684 105.276 68.148 104.42 71.1355C103.564 74.1231 101.801 76.7709 99.375 78.7133L99.9984 79.4919H99V79.4939V81.5756V93.2359ZM83 87.9379V89.7041L84.5145 88.7954L90 85.5041L95.4855 88.7954L97 89.7041V87.9379V81.8379V80.3548L95.6251 80.9109C93.8382 81.6335 91.9285 82.004 90.0011 82.0019L89.9989 82.0019C88.0715 82.004 86.1618 81.6335 84.3749 80.9109L84 81.8379H83V87.9379ZM90 80.0019C93.4478 80.0019 96.7544 78.6323 99.1924 76.1943C101.63 73.7563 103 70.4497 103 67.0019C103 63.5541 101.63 60.2475 99.1924 57.8095C96.7544 55.3715 93.4478 54.0019 90 54.0019C86.5522 54.0019 83.2456 55.3715 80.8076 57.8095C78.3696 60.2475 77 63.5541 77 67.0019C77 70.4497 78.3696 73.7563 80.8076 76.1943C83.2456 78.6323 86.5522 80.0019 90 80.0019Z" fill="#000091" stroke="#000091" stroke-width="2"/>
</g>
<path d="M38 46L97 46" stroke="#000091" stroke-width="4" stroke-linecap="round" stroke-linejoin="round"/>
<path d="M38 65H59" stroke="#000091" stroke-width="4" stroke-linecap="round" stroke-linejoin="round"/>
<path d="M38 72H59" stroke="#000091" stroke-width="4" stroke-linecap="round" stroke-linejoin="round"/>
<defs>
<clipPath id="clip0_2104_66144">
<rect width="48" height="48" fill="white" transform="translate(66 49)"/>
</clipPath>
</defs>
</svg>
