<svg width="131" height="131" viewBox="0 0 131 131" fill="none" xmlns="http://www.w3.org/2000/svg">
<path d="M116 97V26H16V97H116Z" stroke="#000091" stroke-width="5" stroke-linecap="round" stroke-linejoin="round"/>
<path d="M72 113V97H61V113H72Z" stroke="#000091" stroke-width="5" stroke-linecap="round" stroke-linejoin="round"/>
<path d="M116 82H16" stroke="#000091" stroke-width="5" stroke-linecap="round" stroke-linejoin="round"/>
<path d="M98 113L34 113" stroke="#000091" stroke-width="6" stroke-linecap="round" stroke-linejoin="round"/>
<path d="M52 40L106 40" stroke="#000091" stroke-width="4" stroke-linecap="round" stroke-linejoin="round"/>
<path d="M52 47L94 47" stroke="#000091" stroke-width="4" stroke-linecap="round" stroke-linejoin="round"/>
<path d="M40 42L40 46" stroke="#000091" stroke-width="3" stroke-linecap="round" stroke-linejoin="round"/>
<path d="M28 42L28 46" stroke="#000091" stroke-width="3" stroke-linecap="round" stroke-linejoin="round"/>
<path d="M32 42L32 46" stroke="#000091" stroke-width="3" stroke-linecap="round" stroke-linejoin="round"/>
<path d="M36 42L36 46" stroke="#000091" stroke-width="3" stroke-linecap="round" stroke-linejoin="round"/>
<path d="M34.5 34L44 38.9259H25L34.5 34Z" stroke="#000091" stroke-width="2.5" stroke-linecap="round" stroke-linejoin="round"/>
<path d="M42.5918 49.8828H25.7029" stroke="#000091" stroke-width="3" stroke-linecap="round" stroke-linejoin="round"/>
<rect x="27" y="57" width="40" height="24" stroke="#000091" stroke-width="4" stroke-linecap="round" stroke-linejoin="round"/>
<path d="M76 66V74H106V66" stroke="#000091" stroke-width="4" stroke-linecap="round" stroke-linejoin="round"/>
<path d="M85 62.3478L90.6875 68L99 58" stroke="#000091" stroke-width="4" stroke-linecap="round" stroke-linejoin="round"/>
</svg>
