<svg width="131" height="131" viewBox="0 0 131 131" fill="none" xmlns="http://www.w3.org/2000/svg">
<path d="M76.5 70H115V119H76.5M51 70H16V119H52" stroke="#000091" stroke-width="5" stroke-linecap="round" stroke-linejoin="round"/>
<path d="M85 54L115 53.9999" stroke="#000091" stroke-width="4" stroke-linecap="round" stroke-linejoin="round"/>
<path d="M82.5 61.9999L112 62" stroke="#000091" stroke-width="4" stroke-linecap="round" stroke-linejoin="round"/>
<path d="M85 47L112 47" stroke="#000091" stroke-width="4" stroke-linecap="round" stroke-linejoin="round"/>
<path d="M44 54L16.5 54" stroke="#000091" stroke-width="4" stroke-linecap="round" stroke-linejoin="round"/>
<path d="M46.5 61.9999L17 62" stroke="#000091" stroke-width="4" stroke-linecap="round" stroke-linejoin="round"/>
<path d="M44 47L17 47" stroke="#000091" stroke-width="4" stroke-linecap="round" stroke-linejoin="round"/>
<path d="M115 69L115 40L84 40M16 69L16 40L44.5 40" stroke="#000091" stroke-width="5" stroke-linecap="round" stroke-linejoin="round"/>
<path d="M52 70V123H76V70" stroke="#000091" stroke-width="5" stroke-linecap="round" stroke-linejoin="round"/>
<circle cx="64.5" cy="51.5" r="20.5" stroke="#000091" stroke-width="4"/>
<path d="M27 82L27 110" stroke="#000091" stroke-width="4" stroke-linecap="round" stroke-linejoin="round"/>
<path d="M103 110H87" stroke="#000091" stroke-width="4" stroke-linecap="round" stroke-linejoin="round"/>
<path d="M73.4286 49.5703L73.4286 58.1417" stroke="#000091" stroke-width="4" stroke-linejoin="round"/>
<path d="M56.2857 49.5703L56.2857 58.1417" stroke="#000091" stroke-width="4" stroke-linejoin="round"/>
<path d="M62.2857 49.5703L62.2857 58.1417" stroke="#000091" stroke-width="4" stroke-linejoin="round"/>
<path d="M67.4286 49.5703L67.4286 58.1417" stroke="#000091" stroke-width="4" stroke-linejoin="round"/>
<path d="M64.5 39L78 46H51L64.5 39Z" stroke="#000091" stroke-width="4" stroke-linecap="round" stroke-linejoin="round"/>
<path d="M76 61.5703H52" stroke="#000091" stroke-width="4" stroke-linecap="round" stroke-linejoin="round"/>
<path d="M48 37.5L34 15H42L45 5L59 30" stroke="#000091" stroke-width="5" stroke-linecap="round" stroke-linejoin="round"/>
<path d="M81 37L95.5 15H87.5L84.5 5L69 30.5" stroke="#000091" stroke-width="5" stroke-linecap="round" stroke-linejoin="round"/>
<path d="M100 86H86" stroke="#000091" stroke-width="4" stroke-linecap="round" stroke-linejoin="round"/>
<path d="M100 91H86" stroke="#000091" stroke-width="4" stroke-linecap="round" stroke-linejoin="round"/>
<path d="M90 88C90 85 91.4789 78.9988 97.3944 79C102.042 79.001 104.5 81.5 105 83" stroke="#000091" stroke-width="4" stroke-linecap="round" stroke-linejoin="round"/>
<path d="M90 88C90 91 91.4789 97.0012 97.3944 97C103 96.9988 104.5 94 105 93" stroke="#000091" stroke-width="4" stroke-linecap="round" stroke-linejoin="round"/>
</svg>
