<svg width="131" height="131" viewBox="0 0 131 131" fill="none" xmlns="http://www.w3.org/2000/svg">
<path d="M94 31C111.137 31 83.5 31 114 31V126H41C41 100.905 41 115.768 41 95.5" stroke="#000091" stroke-width="6" stroke-linecap="round" stroke-linejoin="round"/>
<line x1="51" y1="111" x2="67" y2="111" stroke="#000091" stroke-width="4" stroke-linecap="round" stroke-linejoin="round"/>
<line x1="51" y1="100" x2="67" y2="100" stroke="#000091" stroke-width="4" stroke-linecap="round" stroke-linejoin="round"/>
<path d="M78 105.087L85.7188 113L97 99" stroke="#000091" stroke-width="6" stroke-linecap="round" stroke-linejoin="round"/>
<path d="M59.1667 49H86V83H59.1667M41.3939 49H17V83H42.0909" stroke="#000091" stroke-width="4" stroke-linecap="round" stroke-linejoin="round"/>
<path d="M65 41L86 41" stroke="#000091" stroke-width="3" stroke-linecap="round" stroke-linejoin="round"/>
<path d="M65 34L84 34" stroke="#000091" stroke-width="3" stroke-linecap="round" stroke-linejoin="round"/>
<path d="M37 41L17 41" stroke="#000091" stroke-width="3" stroke-linecap="round" stroke-linejoin="round"/>
<path d="M37 34L18 34" stroke="#000091" stroke-width="3" stroke-linecap="round" stroke-linejoin="round"/>
<path d="M86 49L86 28L64.3939 28M17 49L17 28L36.8636 28" stroke="#000091" stroke-width="4" stroke-linecap="round" stroke-linejoin="round"/>
<path d="M42 49V86H59V49" stroke="#000091" stroke-width="5" stroke-linecap="round" stroke-linejoin="round"/>
<circle cx="50.5" cy="36.5" r="13" stroke="#000091" stroke-width="5"/>
<path d="M25 58L25 77" stroke="#000091" stroke-width="4" stroke-linecap="round" stroke-linejoin="round"/>
<path d="M78 77H66" stroke="#000091" stroke-width="3" stroke-linecap="round" stroke-linejoin="round"/>
<path d="M56 35L56 40.974" stroke="#000091" stroke-width="3" stroke-linejoin="round"/>
<path d="M46 35L46 40.974" stroke="#000091" stroke-width="3" stroke-linejoin="round"/>
<path d="M51 35L51 40.974" stroke="#000091" stroke-width="3" stroke-linejoin="round"/>
<path d="M50.5 29L57 32H44L50.5 29Z" stroke="#000091" stroke-width="3" stroke-linecap="round" stroke-linejoin="round"/>
<path d="M58 41H44" stroke="#000091" stroke-width="3" stroke-linecap="round" stroke-linejoin="round"/>
<path d="M39.52 27L30 11.0769H35.44L37.48 4L47 21.6923" stroke="#000091" stroke-width="5" stroke-linecap="round" stroke-linejoin="round"/>
<path d="M62.1509 26L72 10.875H66.566L64.5283 4L54 21.5312" stroke="#000091" stroke-width="5" stroke-linecap="round" stroke-linejoin="round"/>
<path d="M76 60H66" stroke="#000091" stroke-width="3" stroke-linecap="round" stroke-linejoin="round"/>
<path d="M76 64H66" stroke="#000091" stroke-width="3" stroke-linecap="round" stroke-linejoin="round"/>
<path d="M69 62C69 60 69.9859 55.9992 73.9296 56C77.0282 56.0007 78.6667 57.6667 79 58.6667" stroke="#000091" stroke-width="3" stroke-linecap="round" stroke-linejoin="round"/>
<path d="M69 62C69 64 69.9859 68.0008 73.9296 68C77.6667 67.9992 78.6667 66 79 65.3333" stroke="#000091" stroke-width="3" stroke-linecap="round" stroke-linejoin="round"/>
<path d="M107 93.534L107 90.514L103.36 89.174L103.36 83.574L107 82.234L107 79.214L93 84.514L93 88.234L107 93.534ZM100.94 88.294L95.68 86.374L100.94 84.454L100.94 88.294ZM105.06 78.1512C106.54 76.9112 107.4 75.3312 107.4 72.9712C107.4 70.3912 105.82 68.3512 103.18 68.3112C98.38 68.3112 99.1 74.6712 96.56 74.6712C95.72 74.6712 95.08 74.0112 95.08 73.0112C95.08 71.9512 95.78 71.0312 96.84 70.2112L94.96 68.1312C93.54 69.3312 92.6 70.9312 92.6 73.0312C92.6 75.7112 94.44 77.5512 96.66 77.5512C101.4 77.5512 100.7 71.1912 103.28 71.1912C104.28 71.1912 104.88 71.8712 104.88 72.9912C104.88 74.1312 104.24 75.2512 103.16 76.0912L105.06 78.1512ZM105.06 66.5301C106.54 65.2901 107.4 63.7101 107.4 61.3501C107.4 58.7701 105.82 56.7301 103.18 56.6901C98.38 56.6901 99.1 63.0501 96.56 63.0501C95.72 63.0501 95.08 62.3901 95.08 61.3901C95.08 60.3301 95.78 59.4101 96.84 58.5901L94.96 56.5101C93.54 57.7101 92.6 59.3101 92.6 61.4101C92.6 64.0901 94.44 65.9301 96.66 65.9301C101.4 65.9301 100.7 59.5701 103.28 59.5701C104.28 59.5701 104.88 60.2501 104.88 61.3701C104.88 62.5101 104.24 63.6301 103.16 64.4701L105.06 66.5301ZM92.6 47.448C92.6 51.868 96 54.888 100 54.888C104 54.888 107.4 51.868 107.4 47.448C107.4 43.048 104 40.028 100 40.028C96 40.028 92.6 43.048 92.6 47.448ZM104.74 47.448C104.74 50.088 102.68 51.968 100 51.968C97.32 51.968 95.26 50.088 95.26 47.448C95.26 44.828 97.32 42.948 100 42.948C102.68 42.948 104.74 44.828 104.74 47.448Z" fill="#000091"/>
</svg>
