<svg width="78" height="78" viewBox="0 0 78 78" fill="none" xmlns="http://www.w3.org/2000/svg">
<path d="M16.25 40.625C16.25 41.6423 17.7483 43.4135 21.2225 45.1522C25.7205 47.4012 32.1003 48.75 39 48.75C45.8997 48.75 52.2795 47.4012 56.7775 45.1522C60.2517 43.4135 61.75 41.6423 61.75 40.625V33.5693C56.3875 36.8843 48.1877 39 39 39C29.8123 39 21.6125 36.881 16.25 33.5693V40.625ZM61.75 49.8193C56.3875 53.1343 48.1877 55.25 39 55.25C29.8123 55.25 21.6125 53.131 16.25 49.8193V56.875C16.25 57.8923 17.7483 59.6635 21.2225 61.4022C25.7205 63.6512 32.1003 65 39 65C45.8997 65 52.2795 63.6512 56.7775 61.4022C60.2517 59.6635 61.75 57.8923 61.75 56.875V49.8193ZM9.75 56.875V24.375C9.75 16.2988 22.8475 9.75 39 9.75C55.1525 9.75 68.25 16.2988 68.25 24.375V56.875C68.25 64.9512 55.1525 71.5 39 71.5C22.8475 71.5 9.75 64.9512 9.75 56.875ZM39 32.5C45.8997 32.5 52.2795 31.1512 56.7775 28.9022C60.2517 27.1635 61.75 25.3923 61.75 24.375C61.75 23.3577 60.2517 21.5865 56.7775 19.8477C52.2795 17.5987 45.8997 16.25 39 16.25C32.1003 16.25 25.7205 17.5987 21.2225 19.8477C17.7483 21.5865 16.25 23.3577 16.25 24.375C16.25 25.3923 17.7483 27.1635 21.2225 28.9022C25.7205 31.1512 32.1003 32.5 39 32.5Z" fill="#161616"/>
</svg>
