<svg width="77" height="77" viewBox="0 0 77 77" fill="none" xmlns="http://www.w3.org/2000/svg">
<path d="M19.25 41.707L12.8334 41.707L12.8334 60.957L6.4167 60.957L6.4167 41.707C6.4167 40.0052 7.09275 38.3731 8.2961 37.1698C9.49946 35.9664 11.1316 35.2904 12.8334 35.2904L19.25 35.2904L19.25 25.6654C19.25 22.2617 20.6021 18.9975 23.0088 16.5908C25.4156 14.1841 28.6798 12.832 32.0834 12.832L54.5417 12.832C55.3926 12.832 56.2087 13.1701 56.8103 13.7717C57.412 14.3734 57.75 15.1895 57.75 16.0404L57.75 25.6654L70.5834 25.6654L70.5834 32.082L57.75 32.082L57.75 44.9154L70.5834 44.9154L70.5834 51.332L57.75 51.332L57.75 60.957C57.75 61.8079 57.412 62.624 56.8103 63.2257C56.2087 63.8273 55.3926 64.1654 54.5417 64.1654L32.0834 64.1654C28.6798 64.1654 25.4156 62.8133 23.0088 60.4066C20.6021 57.9998 19.25 54.7356 19.25 51.332L19.25 41.707ZM25.6667 25.6654L25.6667 51.332C25.6667 53.0338 26.3427 54.6659 27.5461 55.8693C28.7495 57.0726 30.3816 57.7487 32.0834 57.7487L41.7084 57.7487L41.7084 19.2487L32.0834 19.2487C30.3816 19.2487 28.7495 19.9247 27.5461 21.1281C26.3427 22.3315 25.6667 23.9636 25.6667 25.6654ZM51.3334 57.7487L51.3334 19.2487L48.125 19.2487L48.125 57.7487L51.3334 57.7487ZM30.4792 38.4987C30.4792 37.6478 30.8172 36.8317 31.4189 36.2301C32.0206 35.6284 32.8366 35.2904 33.6875 35.2904C34.5384 35.2904 35.3545 35.6284 35.9562 36.2301C36.5579 36.8317 36.8959 37.6478 36.8959 38.4987C36.8959 39.3496 36.5579 40.1656 35.9562 40.7673C35.3545 41.369 34.5384 41.707 33.6875 41.707C32.8366 41.707 32.0206 41.369 31.4189 40.7673C30.8172 40.1656 30.4792 39.3496 30.4792 38.4987Z" fill="#161616"/>
</svg>
