<svg width="77" height="77" viewBox="0 0 77 77" fill="none" xmlns="http://www.w3.org/2000/svg">
<path d="M32.0833 6.41797C33.8543 6.41797 35.2917 7.8553 35.2917 9.6263V22.4596C35.2917 24.2306 33.8543 25.668 32.0833 25.668H25.6667V32.0846H41.7083V28.8763C41.7083 27.1053 43.1457 25.668 44.9167 25.668H64.1667C65.9377 25.668 67.375 27.1053 67.375 28.8763V41.7096C67.375 43.4806 65.9377 44.918 64.1667 44.918H44.9167C43.1457 44.918 41.7083 43.4806 41.7083 41.7096V38.5013H25.6667V57.7513H41.7083V54.543C41.7083 52.772 43.1457 51.3346 44.9167 51.3346H64.1667C65.9377 51.3346 67.375 52.772 67.375 54.543V67.3763C67.375 69.1473 65.9377 70.5846 64.1667 70.5846H44.9167C43.1457 70.5846 41.7083 69.1473 41.7083 67.3763V64.168H22.4583C20.6873 64.168 19.25 62.7306 19.25 60.9596V25.668H12.8333C11.0623 25.668 9.625 24.2306 9.625 22.4596V9.6263C9.625 7.8553 11.0623 6.41797 12.8333 6.41797H32.0833ZM60.9583 57.7513H48.125V64.168H60.9583V57.7513ZM60.9583 32.0846H48.125V38.5013H60.9583V32.0846ZM28.875 12.8346H16.0417V19.2513H28.875V12.8346Z" fill="#161616"/>
</svg>
