<svg width="79" height="79" viewBox="0 0 79 79" fill="none" xmlns="http://www.w3.org/2000/svg">
<path d="M55.9583 50.1795V72.7998C55.9584 73.091 55.8812 73.377 55.7346 73.6286C55.588 73.8802 55.3773 74.0884 55.1239 74.232C54.8706 74.3756 54.5837 74.4494 54.2925 74.4458C54.0013 74.4423 53.7163 74.3616 53.4665 74.2119L39.5 65.8313L25.5334 74.2119C25.2834 74.3617 24.9981 74.4425 24.7066 74.4459C24.4151 74.4492 24.128 74.3752 23.8746 74.2312C23.6211 74.0872 23.4104 73.8786 23.2641 73.6265C23.1178 73.3744 23.041 73.088 23.0416 72.7965V50.1828C18.7827 46.7729 15.688 42.1244 14.1853 36.8796C12.6825 31.6349 12.8459 26.0528 14.6528 20.9049C16.4597 15.757 19.8209 11.2975 24.272 8.1425C28.7231 4.98754 34.0442 3.29297 39.5 3.29297C44.9558 3.29297 50.2769 4.98754 54.7279 8.1425C59.179 11.2975 62.5402 15.757 64.3471 20.9049C66.154 26.0528 66.3174 31.6349 64.8147 36.8796C63.3119 42.1244 60.2172 46.7729 55.9583 50.1828V50.1795ZM29.625 54.0406V64.0802L39.5 58.1552L49.375 64.0802V54.0406C46.2375 55.3095 42.8843 55.96 39.5 55.9563C36.1156 55.96 32.7624 55.3095 29.625 54.0406ZM39.5 49.373C44.738 49.373 49.7615 47.2922 53.4653 43.5884C57.1692 39.8845 59.25 34.861 59.25 29.623C59.25 24.385 57.1692 19.3615 53.4653 15.6576C49.7615 11.9538 44.738 9.873 39.5 9.873C34.2619 9.873 29.2384 11.9538 25.5346 15.6576C21.8308 19.3615 19.75 24.385 19.75 29.623C19.75 34.861 21.8308 39.8845 25.5346 43.5884C29.2384 47.2922 34.2619 49.373 39.5 49.373Z" fill="#161616"/>
</svg>
