<svg width="131" height="131" viewBox="0 0 131 131" fill="none" xmlns="http://www.w3.org/2000/svg">
<path d="M119 88V74H66V108H95.5" stroke="#000091" stroke-width="5" stroke-linecap="round" stroke-linejoin="round"/>
<rect x="5" y="77" width="50" height="31" stroke="#000091" stroke-width="5" stroke-linecap="round" stroke-linejoin="round"/>
<rect x="80" y="65" width="26" height="9" stroke="#000091" stroke-width="4" stroke-linecap="round" stroke-linejoin="round"/>
<rect x="20" y="9" width="26" height="9" stroke="#000091" stroke-width="4" stroke-linecap="round" stroke-linejoin="round"/>
<rect x="17" y="67" width="24" height="10" stroke="#000091" stroke-width="4" stroke-linecap="round" stroke-linejoin="round"/>
<line x1="5" y1="89" x2="55" y2="89" stroke="#000091" stroke-width="4"/>
<path d="M36 90C36 92.7614 33.5376 95 30.5 95C27.4624 95 25 92.7614 25 90" stroke="#000091" stroke-width="4"/>
<rect x="74" y="33" width="50" height="21" stroke="#000091" stroke-width="5" stroke-linecap="round" stroke-linejoin="round"/>
<rect x="27" y="31" width="11" height="7" stroke="#000091" stroke-width="4" stroke-linecap="round" stroke-linejoin="round"/>
<path d="M39 35L62 27V18H4V27L26.5 35" stroke="#000091" stroke-width="5" stroke-linecap="round" stroke-linejoin="round"/>
<path d="M7 29V54H59V29" stroke="#000091" stroke-width="5" stroke-linecap="round" stroke-linejoin="round"/>
<rect x="87" y="24" width="24" height="9" stroke="#000091" stroke-width="4" stroke-linecap="round" stroke-linejoin="round"/>
<line x1="74" y1="45" x2="124" y2="45" stroke="#000091" stroke-width="4"/>
<circle cx="111" cy="103" r="16" stroke="#000091" stroke-width="4"/>
<path d="M103 102L109.5 108.5L119 97" stroke="#000091" stroke-width="4" stroke-linecap="round" stroke-linejoin="round"/>
</svg>
